<svg xmlns="http://www.w3.org/2000/svg" xmlns:xlink="http://www.w3.org/1999/xlink" width="500" zoomAndPan="magnify" viewBox="0 0 375 374.999991" height="500" preserveAspectRatio="xMidYMid meet" version="1.0"><defs><clipPath id="fc537476ce"><path d="M 69 62 L 309.9375 62 L 309.9375 337 L 69 337 Z M 69 62 " clip-rule="nonzero"/></clipPath></defs><path fill="#ffffff" d="M 228.378906 136.957031 C 221.546875 137.59375 214.308594 138.265625 207.074219 138.941406 C 207.078125 139.089844 207.085938 139.242188 207.089844 139.390625 C 213.222656 139.066406 219.351562 138.742188 225.355469 138.425781 C 225.4375 138.398438 225.527344 138.382812 225.628906 138.378906 C 226.714844 138.351562 227.71875 138.027344 228.699219 137.621094 C 228.589844 137.40625 228.480469 137.1875 228.378906 136.957031 Z M 228.378906 136.957031 " fill-opacity="1" fill-rule="nonzero"/><g clip-path="url(#fc537476ce)"><path fill="#ffffff" d="M 297.914062 262.097656 C 293.777344 259.75 288.824219 258.644531 284.285156 257.300781 C 278.550781 255.605469 276.085938 256.058594 276.367188 249.730469 C 276.910156 237.585938 277.949219 225.46875 277.644531 213.300781 C 277.570312 210.300781 277.4375 207.304688 277.25 204.3125 C 277.117188 202.191406 276.023438 198.214844 276.601562 196.234375 C 277.96875 191.546875 282.175781 193.78125 285.242188 195.207031 C 285.414062 192.890625 282.585938 192.644531 280.980469 191.308594 C 279.660156 190.210938 278.621094 188.824219 277.269531 187.761719 C 276.164062 186.894531 273.515625 186.050781 272.808594 184.910156 C 271.398438 182.640625 274.550781 178.695312 277.023438 178.894531 C 279.367188 179.078125 283.214844 184.453125 284.644531 186.472656 C 286.316406 188.839844 288.390625 192.652344 292.089844 192.058594 C 295.011719 191.59375 294.726562 189.46875 293.84375 186.886719 C 291.242188 179.273438 284.773438 178.445312 277.976562 176.757812 C 277.992188 176.535156 278.007812 176.3125 278.023438 176.089844 C 283.867188 172.625 289.304688 175.332031 295.183594 173.222656 C 297.78125 172.289062 299.667969 170.191406 296.609375 168.378906 C 294.839844 167.332031 291.164062 168.050781 289.238281 168.335938 C 289.238281 164.773438 290.417969 158.667969 287.195312 156.019531 C 284.414062 153.730469 278.5 154.886719 275.1875 154.886719 C 274.554688 151.152344 269.167969 151.109375 268.601562 148.664062 C 267.984375 145.992188 277.15625 144.554688 278.433594 142.777344 C 281.738281 138.191406 275 138.789062 272.644531 140.09375 C 269.246094 141.96875 268.667969 144.40625 264.878906 145.933594 C 263.847656 142.488281 263.507812 139.648438 260.664062 137.375 C 257.355469 143.507812 263.371094 149.625 257.203125 154.109375 C 256.066406 150.644531 255.558594 148.238281 253.765625 144.894531 C 252.058594 147.011719 250.730469 148.664062 249.398438 150.3125 C 249.171875 150.234375 248.941406 150.152344 248.714844 150.074219 C 248.328125 145.214844 248.550781 140.367188 248.320312 135.507812 C 248.089844 130.613281 246.988281 126.457031 247.300781 121.519531 C 247.90625 111.875 247.261719 102.066406 246.988281 92.410156 C 246.859375 87.785156 246.820312 83.125 246.480469 78.507812 C 246.109375 73.449219 245.121094 71.988281 240.28125 70.621094 C 231.53125 68.148438 222.171875 67.507812 213.167969 66.511719 C 212.949219 66.207031 212.730469 65.902344 212.511719 65.59375 C 214 64.917969 214.480469 64.585938 215.304688 63.1875 C 213.140625 62.144531 212.378906 62.976562 209.984375 63.027344 C 208.246094 63.0625 206.632812 62.300781 204.925781 62.171875 C 201.683594 61.925781 198.375 63.15625 198.527344 67.046875 C 198.066406 66.851562 197.675781 66.683594 196.769531 66.296875 C 198.082031 70.898438 195.714844 74.578125 192.070312 77.21875 C 187.277344 80.695312 183.429688 78.300781 178.164062 77.824219 C 182.097656 81.113281 188.054688 83.25 192.777344 79.839844 C 195.109375 78.15625 195.960938 75.167969 198.179688 73.433594 C 199.972656 72.035156 202.769531 71.441406 204.902344 70.6875 C 211.710938 68.277344 217.175781 68.730469 224.230469 69.597656 C 231.394531 70.480469 238.292969 70.75 243.902344 75.496094 C 241.074219 77.382812 238.261719 79.421875 235.25 81.019531 C 233.605469 81.890625 230.824219 82.484375 230.507812 84.652344 C 234.433594 84.855469 239.472656 82.398438 244.671875 77.796875 C 244.671875 81.070312 245.65625 85.21875 243.105469 87.636719 C 243.066406 87.675781 243.023438 87.710938 242.980469 87.75 C 243.769531 87.679688 244.457031 87.847656 245 88.371094 C 246.980469 90.277344 245.445312 101.003906 245.570312 103.636719 C 246.179688 116.394531 246.433594 129.574219 245.402344 142.367188 C 239.222656 142.367188 234.1875 145.34375 230.578125 140.519531 C 228.605469 139.625 227.597656 139.941406 226.488281 140.101562 C 228.179688 145.390625 230.757812 153.667969 230.703125 153.679688 C 230.945312 153.949219 231.164062 154.242188 231.402344 154.527344 C 232.59375 154.582031 235.050781 155.878906 237.214844 156.667969 C 244.335938 159.261719 235.453125 146.472656 233.867188 144.070312 C 237.046875 143.714844 239.492188 143.445312 241.9375 143.171875 C 242 143.335938 242.878906 144.585938 244.070312 143.832031 C 244.90625 148.226562 240.984375 150.328125 242.351562 149.46875 C 242.351562 151.855469 240.886719 155.4375 239.3125 157.386719 C 236.988281 160.265625 233.753906 161.257812 237.507812 165.300781 C 237.613281 164.375 237.695312 163.640625 237.855469 162.226562 C 240.570312 166.554688 240.589844 166.328125 237.492188 170.789062 C 237.210938 170.714844 236.929688 170.640625 236.652344 170.566406 C 235.597656 165.632812 235.625 162.566406 230.355469 160.839844 C 226.496094 159.574219 220.828125 159.46875 217.222656 157.367188 C 216.972656 157.371094 215.625 156.914062 215.609375 156.476562 C 213.445312 156.777344 207.945312 156.652344 207.476562 159.242188 C 206.578125 164.222656 225.574219 164.453125 228.535156 164.453125 C 228.582031 164.636719 228.628906 164.820312 228.679688 165.003906 C 225.125 166.878906 220.601562 171.386719 221.394531 175.847656 C 222.144531 180.097656 228.5625 181.59375 231.933594 183.167969 C 230.304688 184.910156 225.570312 188.3125 226.644531 191.097656 C 227.253906 190.328125 227.765625 189.679688 228.226562 189.101562 C 230.144531 194.605469 230.253906 196.65625 236.363281 197.339844 C 235.335938 201.023438 223.460938 202.785156 220.109375 203.359375 C 216.96875 203.898438 213.683594 203.605469 210.589844 204.171875 C 207.394531 204.757812 205.308594 205.609375 201.925781 205.609375 C 207.90625 207.851562 214.773438 205.675781 220.953125 205.398438 C 227.675781 205.09375 233.460938 203.386719 239.847656 201.402344 C 238.664062 205.105469 238.636719 208.535156 240.378906 211.878906 C 243.785156 208.882812 247.578125 207.375 251.378906 204.972656 C 252.765625 204.097656 254.109375 203.253906 255.121094 201.921875 C 256.058594 200.691406 256.304688 198.5 257.492188 197.6875 C 259.515625 200.582031 263.449219 203.996094 266.761719 199.96875 C 269.261719 196.925781 265.046875 192.839844 264.304688 189.785156 C 267.359375 192.632812 269.960938 195.890625 274.480469 195.984375 C 275.207031 208.164062 275.859375 220.183594 275.285156 232.390625 C 274.988281 238.695312 276.292969 243.34375 270.074219 246.261719 C 264.902344 248.683594 259.648438 250.742188 254.277344 252.660156 C 261.449219 251.847656 267.78125 248.675781 274.585938 245.660156 C 274.585938 252.296875 276.464844 260.761719 273.375 266.925781 C 270.113281 273.425781 261.863281 279.113281 255.402344 281.941406 C 247.617188 285.351562 239.503906 288.234375 231.375 290.6875 C 228.753906 291.476562 208.652344 297.988281 207.277344 295.347656 C 193.59375 297.464844 179.328125 297.605469 165.644531 295.578125 C 165.527344 294.316406 164.066406 292.960938 163.773438 293.476562 C 162.015625 292.691406 160.425781 291.980469 158.269531 291.019531 C 157.496094 286.625 157.210938 284.257812 153.886719 281.273438 C 151.972656 279.558594 148.128906 274.328125 145.195312 276.136719 C 146.445312 277.125 147.503906 277.964844 148.789062 278.984375 C 147.109375 279.9375 145.585938 281.585938 143.683594 281.847656 C 142.050781 282.070312 141.121094 280.941406 139.621094 282.042969 C 136.175781 284.566406 136.632812 293.523438 134.519531 297.183594 C 133.804688 296.691406 133.371094 296.023438 133.226562 295.1875 C 133.039062 295.167969 132.847656 295.148438 132.660156 295.125 C 131.960938 298.035156 132.195312 300.050781 131 302.898438 C 130.574219 301.882812 130.289062 301.203125 129.972656 300.453125 C 129.285156 300.898438 128.699219 301.273438 128.121094 301.644531 C 126.03125 298.46875 126.734375 298.148438 129.117188 296.277344 C 132.597656 293.542969 133.195312 291.582031 132.058594 287.089844 C 131.730469 288.328125 131.398438 289.5625 131.070312 290.796875 C 130.832031 290.78125 130.589844 290.765625 130.351562 290.75 C 129.976562 286.710938 132.601562 281.304688 136.097656 279.035156 C 136.960938 278.476562 140.597656 276.546875 141.785156 277.035156 C 142.847656 277.46875 142.683594 278.863281 143.332031 279.792969 C 145.480469 277.25 141.742188 274.605469 141.214844 272.125 C 140.664062 269.53125 144.613281 265.210938 141.746094 263.640625 C 140.101562 262.742188 133.875 264.3125 132.328125 265.039062 C 129.035156 266.589844 127.882812 270.484375 126.242188 273.53125 C 124.636719 272.875 123.03125 272.21875 121.425781 271.5625 C 122.261719 270.4375 124.582031 270.277344 124.988281 269.003906 C 125.390625 267.738281 123.953125 266.902344 123.746094 265.796875 C 123.375 263.785156 124.003906 262.355469 123.210938 260.230469 C 122.410156 258.09375 121.507812 257.359375 121.695312 255.070312 C 120.070312 254.175781 118.144531 253.117188 116.632812 252.289062 C 113.824219 254.824219 101.367188 256.058594 103.808594 261.839844 C 104.53125 260.945312 105.28125 260.019531 106.03125 259.09375 C 106.195312 259.203125 106.359375 259.316406 106.523438 259.425781 C 104.390625 265.34375 103.378906 270.132812 98.566406 274.277344 C 95.957031 276.523438 94.957031 278.523438 93.199219 281.339844 C 91.816406 283.554688 89.558594 285.097656 88.308594 287.410156 C 85.164062 285.054688 78.855469 286.121094 77.4375 288.390625 C 75.496094 288.945312 74.171875 289.328125 72.851562 289.707031 C 70.679688 285.957031 75.648438 275.851562 81.238281 273.402344 C 80.578125 278.355469 79.957031 281.148438 84.503906 283.988281 C 89.5 287.113281 89.808594 283.355469 91.90625 278.949219 C 88.699219 275.046875 97.375 275.28125 96.367188 270.738281 C 95.496094 270.988281 94.621094 271.242188 93.75 271.492188 C 93.605469 271.269531 93.464844 271.050781 93.324219 270.828125 C 96.148438 268.273438 96.128906 267.816406 98.726562 270.40625 C 101.078125 266.8125 99.332031 264.164062 99.046875 260.441406 C 98.804688 257.339844 100.457031 253.914062 101.382812 250.957031 C 101.480469 250.992188 101.574219 251.027344 101.667969 251.058594 C 101.839844 252.574219 102.011719 254.085938 102.183594 255.597656 C 102.417969 255.582031 102.652344 255.570312 102.886719 255.554688 C 104.539062 249.5 104.046875 242.066406 104.226562 235.789062 C 104.421875 229.128906 104.113281 222.484375 103.972656 215.824219 C 103.6875 201.960938 103.824219 188.070312 104.511719 174.226562 C 104.722656 174.199219 104.9375 174.171875 105.152344 174.144531 C 107.585938 178.050781 109.769531 180.511719 113.335938 183.417969 C 113.566406 183.199219 113.796875 182.980469 114.03125 182.757812 C 109.351562 176.460938 105.304688 172.042969 111.453125 165.152344 C 116.195312 159.835938 125.996094 157.574219 132.472656 154.652344 C 132.375 154.398438 132.277344 154.148438 132.179688 153.894531 C 124.636719 155.160156 115.542969 158.453125 109.304688 162.976562 C 106.820312 164.777344 103.339844 167.398438 102.339844 170.390625 C 101.09375 174.113281 102.296875 180.957031 102.335938 184.925781 C 102.425781 194.296875 102.488281 203.65625 102.433594 213.027344 C 102.378906 222.351562 103.214844 232.230469 102.066406 241.484375 C 99.515625 240.109375 98.847656 239.316406 97.371094 242.164062 C 95.867188 245.070312 95.644531 249.191406 94.929688 252.367188 C 92.925781 248.582031 92.8125 246.679688 94.441406 242.695312 C 95.296875 240.605469 98.242188 237.164062 97.730469 234.816406 C 97.179688 232.273438 93.574219 230.609375 92.605469 228.050781 C 91.796875 225.921875 93.308594 222.425781 90.777344 221.242188 C 90.210938 222.5625 89.679688 223.792969 89.242188 224.808594 C 88.875 223.558594 88.492188 222.253906 88.109375 220.953125 C 87.714844 220.992188 87.320312 221.03125 86.929688 221.070312 C 86.367188 225.917969 85.808594 230.765625 85.21875 235.847656 C 79.429688 231.84375 76.851562 237.828125 81.367188 242.082031 C 83.464844 244.058594 86.460938 245.03125 88.335938 247.316406 C 90.488281 249.933594 90.0625 252.988281 90.359375 256.195312 C 87.777344 253.453125 86.488281 250.203125 82.1875 250.027344 C 79.628906 249.925781 75.855469 251.089844 75.816406 254.09375 C 75.714844 262.023438 90.632812 258.34375 95.089844 259.164062 C 93.515625 262.550781 85.179688 266.1875 81.765625 267.691406 C 76.945312 269.816406 72.636719 271.988281 70.199219 277.019531 C 67.550781 282.496094 70.308594 287.308594 70.089844 292.59375 C 69.917969 296.664062 71.023438 293.757812 72.753906 296.550781 C 74.003906 298.5625 72.109375 299.535156 70.792969 301.027344 C 65.453125 307.078125 73.476562 305.410156 77.917969 305.65625 C 82.511719 305.914062 87.082031 307.925781 90.769531 310.433594 C 96.5 314.335938 102.214844 318.75 108.722656 321.28125 C 114.84375 323.664062 121.242188 324.417969 127.6875 325.433594 C 127.722656 325.261719 127.753906 325.085938 127.785156 324.914062 C 126.878906 324.460938 125.972656 324.007812 124.609375 323.332031 C 128.496094 322.382812 129.640625 322.292969 129.574219 318.273438 C 129.5 313.289062 129.585938 309.382812 127.4375 304.730469 C 127.640625 304.542969 127.847656 304.351562 128.050781 304.164062 C 131.734375 307.375 132.582031 310.746094 132.710938 315.574219 C 132.816406 319.640625 133.777344 324.453125 132.28125 328.265625 C 133.820312 329.820312 135.722656 332.660156 138.035156 332.910156 C 140.417969 333.171875 143.1875 331.605469 145.847656 331.84375 C 152.007812 332.394531 158.128906 334.054688 164.253906 334.964844 C 176.320312 336.761719 189.988281 337.511719 202.152344 336.390625 C 213.976562 335.304688 225.90625 333.027344 237.484375 330.40625 C 248.6875 327.871094 259.84375 325.558594 270.449219 321.03125 C 279.890625 317.003906 287.679688 311.519531 294.570312 303.921875 C 300.523438 297.363281 308.882812 289.035156 309.261719 279.554688 C 309.5625 272.046875 304.226562 265.679688 297.914062 262.097656 Z M 289.445312 182.75 C 290.597656 183.890625 293.714844 188.007812 292.828125 189.628906 C 291.464844 192.128906 287.375 189.738281 286.34375 187.929688 C 285.671875 186.746094 286.175781 185.371094 285.421875 184.1875 C 284.335938 182.472656 281.914062 181.089844 280.375 179.820312 C 283.738281 179.652344 287.003906 180.328125 289.445312 182.75 Z M 296.636719 169.710938 C 294.996094 171.835938 289.234375 172.820312 286.222656 171.597656 C 288.585938 168.761719 293.75 167.90625 296.636719 169.710938 Z M 277.320312 162.105469 C 277.492188 162.210938 277.667969 162.320312 277.84375 162.425781 C 278.941406 165.824219 279.25 168.789062 282.851562 166.886719 C 284.675781 165.925781 286.570312 164.121094 285.9375 161.875 C 283.761719 162.210938 283.617188 159.261719 282.011719 157.742188 C 281.8125 157.921875 281.613281 158.105469 281.414062 158.289062 C 281.628906 159.011719 281.847656 159.734375 282.246094 161.054688 C 281.128906 160.332031 280.484375 159.917969 279.878906 159.527344 C 280.425781 156.90625 282.246094 155.273438 285.25 156.621094 C 288.046875 157.875 288.171875 161.601562 287.378906 164.269531 C 286.597656 166.902344 283.9375 169.644531 280.894531 169.191406 C 276.515625 168.542969 276.113281 165.378906 277.320312 162.105469 Z M 233.90625 148.210938 C 230.199219 147.996094 229.273438 146.75 229.207031 142.039062 C 231.25 143.886719 233.058594 145.53125 233.90625 148.210938 Z M 223.144531 162.113281 C 219.214844 161.523438 215.289062 160.9375 211.359375 160.351562 C 211.378906 160.027344 211.398438 159.703125 211.417969 159.378906 C 215.609375 158.496094 219.476562 159.640625 223.277344 161.230469 C 223.234375 161.523438 223.1875 161.816406 223.144531 162.113281 Z M 273.167969 158.429688 C 270.6875 156.246094 268.605469 154.417969 266.359375 152.4375 C 271.085938 149.25 273.585938 154.441406 273.167969 158.429688 Z M 267.085938 159.101562 C 267.429688 158.683594 267.761719 158.28125 268.164062 157.792969 C 268.710938 158.601562 269.203125 159.328125 269.820312 160.242188 C 270.347656 159.6875 270.753906 159.257812 271.160156 158.828125 C 271.289062 158.886719 271.421875 158.949219 271.550781 159.007812 C 270.964844 160.304688 270.378906 161.597656 269.75 162.980469 C 267.1875 161.726562 264.441406 160.382812 261.683594 159.035156 C 263.664062 157.488281 265.519531 157.46875 267.085938 159.101562 Z M 261.539062 138.996094 C 263.511719 142.488281 262.160156 146.375 263.484375 149.773438 C 260.699219 148.503906 259.460938 141.363281 261.539062 138.996094 Z M 264.003906 166.933594 C 263.53125 167.769531 263.054688 168.613281 262.484375 169.621094 C 260.167969 165.386719 256.738281 167.824219 253.691406 167.960938 C 255.144531 165.226562 260.445312 164.28125 264.003906 166.933594 Z M 258.359375 172.109375 C 258.566406 174.574219 261.085938 175.25 257.5 176.910156 C 255.257812 177.949219 253.273438 177.113281 252.300781 174.996094 C 251.070312 172.308594 252.25 170.472656 254.601562 169.339844 C 257.285156 168.046875 259.125 168.148438 260.625 170.523438 C 256.703125 170.105469 254.78125 171.285156 254.699219 174.570312 C 255.808594 172.972656 256.488281 172.726562 258.359375 172.109375 Z M 263.25 180.570312 C 261.507812 183.339844 254.269531 187.769531 251.46875 183.90625 C 248.386719 179.65625 260.710938 180.4375 263.25 180.570312 Z M 264.960938 167.730469 C 265.511719 169.105469 267.921875 178.914062 264.019531 178.585938 C 260.964844 178.328125 264.488281 169.011719 264.960938 167.730469 Z M 257.679688 162.851562 C 254.128906 164.964844 251.585938 165.875 249.890625 169.859375 C 248.332031 173.519531 248.898438 176.554688 249.175781 180.34375 C 245.445312 176.558594 245.40625 172.523438 248.195312 168.171875 C 249.722656 165.792969 254.335938 161.285156 257.679688 162.851562 Z M 253.78125 160.476562 C 251.066406 162.097656 249.261719 163.539062 247.164062 165.882812 C 246.996094 165.769531 246.824219 165.65625 246.65625 165.542969 C 247.734375 163.246094 250.917969 159.449219 253.78125 160.476562 Z M 242.996094 155.269531 C 246.3125 153.539062 247.003906 157.511719 249.609375 158.949219 C 247.867188 159.777344 246.761719 158.988281 245.152344 159.699219 C 243.945312 160.230469 243.691406 161.9375 242.449219 162.453125 C 240.402344 160.484375 240.175781 156.742188 242.996094 155.269531 Z M 229.210938 180.046875 C 222.804688 179.121094 222.722656 175.664062 224.667969 170.753906 L 225.175781 170.902344 C 225.304688 173.84375 225.125 177.222656 228.195312 178.726562 C 230.21875 179.71875 232.996094 179.246094 234.28125 177.328125 C 235.289062 175.824219 235.394531 172.425781 233.492188 171.4375 C 231.898438 170.605469 229.949219 172.058594 228.550781 172.699219 C 229.867188 173.734375 231.085938 174.695312 232.316406 175.660156 C 229.933594 180.097656 224.59375 175.066406 228.273438 171.195312 C 231.71875 167.574219 235.453125 170.113281 237.003906 174.003906 C 238.816406 178.550781 233.277344 180.636719 229.210938 180.046875 Z M 239.902344 194.472656 C 234.839844 198.34375 227.75 187.9375 234.972656 187.226562 C 234.300781 189.574219 232.957031 190.324219 234.664062 192.59375 C 235.765625 194.050781 236.683594 194.589844 238.382812 193.734375 C 241.878906 191.972656 240.902344 185.328125 237.050781 184.738281 C 238.609375 182.859375 242.265625 183.078125 243.699219 185.292969 C 245.167969 187.5625 241.863281 192.972656 239.902344 194.472656 Z M 246.386719 200.023438 C 247.53125 203.597656 246.957031 204.679688 241.136719 206.582031 C 240.324219 202.074219 245.695312 194.550781 251.292969 192.351562 C 252.152344 194.542969 250.6875 196.832031 246.386719 200.023438 Z M 264.710938 195.375 C 264.871094 197.109375 264.96875 198.152344 265.132812 199.871094 C 263.210938 199.0625 261.886719 198.503906 260.652344 197.984375 C 261.003906 194.863281 263.335938 196.988281 264.710938 195.375 Z M 255.144531 188.273438 C 248.738281 187.761719 244.695312 182.734375 240.089844 178.707031 C 241.5 176.066406 239.042969 175.789062 238.917969 173.71875 C 238.796875 171.722656 240.675781 170.289062 241.886719 168.875 C 242.898438 171.234375 238.300781 173.757812 244.183594 172.4375 C 244.957031 181.832031 251.921875 191.046875 262.082031 185.730469 C 266.789062 183.265625 268.917969 178.09375 268.671875 172.96875 C 268.351562 166.257812 265.523438 165.066406 259.578125 162.730469 C 262.09375 159.121094 271.308594 165.46875 272.234375 168.300781 C 273.507812 172.207031 270.289062 180.296875 267.601562 183.132812 C 268.550781 182.757812 269.496094 182.382812 270.441406 182.011719 L 270.859375 182.398438 C 266.808594 187.007812 261.316406 188.761719 255.144531 188.273438 Z M 272.449219 192.863281 C 271.6875 192.359375 266.359375 189.820312 267.859375 188.246094 C 269.074219 186.96875 274.351562 189.214844 275.28125 190.429688 C 274.449219 191.144531 273.695312 191.792969 272.449219 192.863281 Z M 81.027344 239.386719 C 85.53125 239.292969 88.195312 240.789062 89.503906 245.195312 C 86.464844 243.113281 83.945312 241.386719 81.027344 239.386719 Z M 77.914062 254.605469 C 80.808594 251.929688 85.484375 252.324219 87.421875 256.203125 C 83.945312 256.203125 80.542969 257.019531 77.914062 254.605469 Z M 100.480469 242.164062 C 99.644531 247.027344 99.226562 251.429688 96.839844 255.90625 C 95.832031 252.441406 98.078125 243.410156 100.480469 242.164062 Z M 87.367188 266.773438 C 87.808594 267.539062 88.117188 268.074219 88.582031 268.878906 C 91.324219 265.1875 97.5625 258.292969 98.527344 266.5625 C 95.453125 262.628906 92.125 270.027344 90.808594 271.960938 C 89.566406 271.011719 87.96875 269.789062 86.164062 268.410156 C 86.398438 268.089844 86.816406 267.523438 87.367188 266.773438 Z M 88.433594 272.746094 C 91.023438 274.976562 88.113281 276.207031 87.625 278.132812 C 87.246094 279.625 87.90625 281.035156 87.976562 282.554688 C 85.339844 282.621094 82.125 281.480469 82.355469 278.210938 C 81.839844 275.691406 85.714844 270.410156 88.433594 272.746094 Z M 131.625 276.082031 C 132.921875 276.316406 134.21875 276.550781 135.515625 276.785156 C 134.53125 277.707031 133.441406 278.726562 132.347656 279.746094 C 132.105469 279.746094 131.863281 279.746094 131.625 279.742188 Z M 125.625 275.777344 C 128.214844 276.984375 131.089844 278.347656 130.949219 281.59375 C 130.820312 284.601562 127.625 286.429688 127.414062 289.433594 C 127.140625 293.347656 128.980469 293.34375 125.714844 296.542969 C 123.65625 298.566406 121.597656 300.640625 119.128906 302.171875 C 113.960938 305.371094 106.894531 306.769531 101.90625 303.304688 C 99.949219 305.960938 98.167969 301.636719 96.898438 300.183594 C 94.65625 297.609375 93.863281 297.027344 95.425781 293.660156 C 96.464844 291.410156 97.925781 290.125 99.550781 288.347656 C 100.878906 286.894531 101.140625 285.234375 102.335938 283.734375 C 104.882812 280.535156 111.183594 279.050781 114.945312 280.289062 C 116.882812 280.925781 124.742188 288.410156 120.183594 290.433594 C 118.632812 291.121094 115.925781 284.585938 113.207031 283.957031 C 107.890625 282.726562 103.5625 286.855469 102.410156 291.636719 C 100.992188 297.535156 102.992188 302.078125 109.785156 302.140625 C 114.824219 302.183594 118.679688 298.023438 121.59375 294.359375 C 122.324219 295.363281 122.875 296.125 123.429688 296.886719 C 123.605469 296.839844 123.777344 296.796875 123.953125 296.75 C 123.738281 294.460938 122.753906 292.46875 122.492188 290.128906 C 122.226562 287.742188 122.238281 285.703125 120.964844 283.585938 C 118.144531 278.894531 113.753906 278.660156 108.855469 278.660156 C 108.5625 269.621094 121.453125 273.835938 125.625 275.777344 Z M 98.355469 304.550781 C 94.238281 305.59375 94.890625 302.707031 91.769531 300.976562 C 93.773438 299.128906 97.511719 301.117188 98.355469 304.550781 Z M 111.832031 288.222656 C 109.386719 289.402344 108.570312 291.296875 107.121094 293.601562 C 101.945312 293.371094 110.398438 285.582031 112.953125 285.683594 C 118.484375 285.902344 118.878906 295.382812 112.300781 293.644531 C 112.414062 291.605469 112.4375 290.152344 111.832031 288.222656 Z M 119.34375 292.171875 C 120.5 301.203125 101.746094 302.238281 103.070312 295.847656 C 109.4375 295.847656 115.492188 298.035156 119.34375 292.171875 Z M 121.15625 260.6875 C 123.109375 262.605469 122.894531 263.871094 120.042969 265.550781 C 120.476562 263.648438 120.804688 262.222656 121.15625 260.6875 Z M 109.597656 257.679688 C 112.007812 256.929688 116.546875 254.535156 118.84375 256.621094 C 121.738281 259.25 116.484375 261.644531 114.480469 263.210938 C 112.261719 260.71875 115.792969 259.238281 115.03125 256.890625 C 111.503906 258.480469 112.28125 261.566406 111.492188 264.320312 C 111.003906 263.289062 110.515625 262.257812 110.027344 261.230469 C 109.832031 261.234375 109.640625 261.238281 109.445312 261.246094 C 109.3125 262.832031 109.183594 264.417969 109.042969 266.105469 C 104.007812 266.328125 108.6875 259.738281 109.597656 257.679688 Z M 91.960938 285.953125 C 93.019531 286.761719 93.113281 289.464844 95.09375 288.277344 C 93.882812 283.914062 93.59375 280.808594 97.347656 277.519531 C 100.546875 274.710938 105.300781 272.832031 109.46875 272.832031 C 106.863281 277.703125 103.507812 281.253906 99.8125 285.414062 C 97.695312 287.792969 95.558594 289.445312 94.207031 292.441406 C 92.851562 295.449219 92.847656 297.433594 90.421875 299.71875 C 87.628906 294.785156 88.199219 290.007812 91.960938 285.953125 Z M 87.921875 288.1875 C 86.292969 291.136719 86.292969 291.136719 87.375 294.570312 C 84.402344 293.980469 83.136719 293 80.011719 293 C 76.367188 287.484375 84.75 288.1875 87.921875 288.1875 Z M 103.617188 314.941406 C 102.753906 314.488281 101.960938 313.933594 101.246094 313.273438 C 101.167969 313.496094 101.085938 313.71875 101.007812 313.941406 C 96.417969 312.886719 93.324219 310.4375 89.703125 307.5625 C 88.355469 306.496094 87.65625 305.878906 85.921875 305.449219 C 83.523438 304.855469 84.578125 306.683594 82.632812 304.878906 C 77.324219 299.957031 84.410156 293.78125 89.0625 300.230469 C 87.757812 303.335938 87.308594 303.777344 90.722656 305.078125 C 92.921875 305.917969 92.515625 305.578125 94.535156 306.851562 C 95.628906 307.542969 95.671875 307.820312 97.039062 307.976562 C 100.28125 308.34375 100.160156 306.675781 102.90625 309.222656 C 105.175781 311.332031 105.390625 312.253906 103.617188 314.941406 Z M 123.070312 301.582031 C 121.289062 311.179688 111.683594 310.007812 104.996094 307.300781 C 111.132812 306.242188 117.6875 306.5625 123.070312 301.582031 Z M 108.597656 317.933594 C 108.601562 317.574219 108.605469 317.210938 108.609375 316.851562 C 112.3125 315.648438 117.441406 314.871094 119.402344 311.746094 C 118.785156 311.078125 118.761719 310.4375 119.34375 309.816406 C 119.636719 309.566406 119.933594 309.316406 120.230469 309.0625 C 121.3125 307.40625 123.378906 305.738281 124.734375 304.265625 C 124.734375 311.457031 119.375 315.605469 122.421875 323.226562 C 117.402344 321.304688 113 319.617188 108.597656 317.933594 Z M 125.523438 320.539062 C 120.242188 320.433594 125.382812 310.753906 126.34375 308.554688 C 126.605469 308.519531 126.871094 308.484375 127.136719 308.445312 C 127.867188 310.945312 130.339844 320.632812 125.523438 320.539062 Z M 150.441406 282.101562 C 154.71875 282.855469 156.914062 286.339844 156.9375 290.5 C 156.957031 293.734375 153.902344 300.980469 149.46875 299.402344 C 144.234375 297.539062 152.980469 292.636719 155.152344 292.066406 C 155.421875 289.917969 153.019531 288.3125 151.070312 287.21875 C 148.128906 285.570312 145.492188 287.382812 144.1875 290.664062 C 142.683594 286.207031 145.695312 281.269531 150.441406 282.101562 Z M 146.394531 289.785156 C 148.574219 288.523438 147.917969 292.808594 147.917969 293.742188 C 143.785156 296.253906 145.132812 290.515625 146.394531 289.785156 Z M 142.472656 283.863281 C 143.210938 290.648438 143.933594 296.042969 147 302.019531 C 143.160156 301.152344 136.851562 300.125 136.734375 295.410156 C 136.660156 292.378906 138.253906 282.65625 142.472656 283.863281 Z M 135.128906 299.589844 C 135.265625 299.859375 135.402344 300.128906 135.535156 300.394531 C 135.164062 301.007812 134.792969 301.621094 134.171875 302.640625 C 136.648438 302.464844 137.941406 301.511719 140.519531 302.15625 C 142.777344 302.71875 144.738281 304.078125 147.015625 303.902344 C 152.503906 303.480469 154.796875 299.53125 157.554688 295.457031 C 160.40625 297.597656 158.929688 301.832031 157.089844 304.398438 C 155.253906 306.953125 152.296875 307.328125 149.375 307.675781 C 144.855469 308.21875 141.421875 307.542969 137.316406 305.636719 C 134.3125 304.242188 130.75 302.050781 135.128906 299.589844 Z M 143.246094 315.34375 C 141.140625 318.074219 135.070312 312.953125 134.316406 311 C 135.886719 311.203125 145.980469 311.804688 143.246094 315.34375 Z M 134.585938 322.695312 C 136.628906 325.074219 138.453125 327.203125 140.453125 329.53125 C 136.320312 330.246094 134.144531 326.429688 134.585938 322.695312 Z M 301.96875 286.441406 C 296.351562 297.359375 286.214844 305.246094 276.144531 311.832031 C 261.085938 321.6875 243.65625 325.710938 226.3125 329.511719 C 212.5 332.539062 198.933594 332.621094 184.847656 332.59375 C 180.417969 332.585938 175.984375 333.011719 171.558594 332.710938 C 167.277344 332.425781 163.234375 331.261719 158.917969 331.019531 C 155.800781 330.84375 153.242188 329.632812 150.230469 329.167969 C 146.628906 328.609375 144.039062 326.4375 141.605469 323.847656 C 141.183594 324.578125 140.914062 325.042969 140.4375 325.871094 C 137.910156 322.539062 135.726562 319.363281 133.667969 315.714844 C 137.410156 317.265625 140.203125 318.675781 143.414062 320.984375 C 145.195312 322.269531 149.375 324.128906 151.476562 322.40625 C 154.203125 320.164062 149.738281 318.3125 148.066406 316.894531 C 145.890625 315.050781 144.625 312.570312 143.121094 309.988281 C 144.988281 309.558594 146.230469 310.222656 148.125 310.066406 C 149.96875 309.917969 151.441406 308.546875 153.300781 308.71875 C 153.789062 311.378906 154.9375 317.824219 159.167969 313.730469 C 161.074219 311.886719 159.027344 309.824219 160.429688 307.839844 C 163.792969 311.335938 166.425781 314.046875 160.503906 315.960938 C 155.453125 317.589844 152.945312 316.105469 150.101562 311.898438 C 148.421875 315.707031 152.421875 318.382812 154.664062 321.007812 C 158.121094 319.648438 165.054688 318.359375 165.75 313.910156 C 166.464844 309.355469 162.003906 305.367188 157.710938 305.699219 C 158.484375 303.808594 160.03125 301.351562 160.300781 299.328125 C 160.570312 297.296875 159.773438 294.984375 159.597656 292.925781 L 160.800781 292.589844 C 161.679688 294.628906 162.308594 297.582031 164.34375 298.765625 C 166.4375 299.976562 171.925781 299.242188 174.492188 299.386719 C 181.582031 299.78125 188.667969 300.0625 195.757812 299.574219 C 201.730469 299.160156 207.1875 298.082031 212.921875 296.417969 C 218.210938 294.882812 222.929688 295.730469 228.136719 294.625 C 234.371094 293.304688 240.40625 291.144531 246.207031 288.523438 C 251.703125 286.042969 256.878906 282.421875 262.542969 280.398438 C 265.871094 279.207031 267.316406 278.714844 269.847656 276.269531 C 271.503906 274.675781 273.394531 273.183594 274.8125 271.359375 C 277.972656 267.300781 277.34375 264.027344 276.699219 259.253906 C 284.613281 258.769531 294.980469 260.679688 300.1875 267.246094 C 305.28125 273.667969 305.6875 279.21875 301.96875 286.441406 Z M 301.96875 286.441406 " fill-opacity="1" fill-rule="nonzero"/></g><path fill="#ffffff" d="M 242.980469 87.75 C 241.410156 87.886719 239.449219 88.984375 237.445312 90.15625 C 239.570312 89.648438 241.570312 89.015625 242.980469 87.75 Z M 242.980469 87.75 " fill-opacity="1" fill-rule="nonzero"/><path fill="#ffffff" d="M 237.445312 90.15625 C 234.507812 90.859375 231.332031 91.316406 229.152344 92.867188 C 231.152344 93.957031 234.347656 91.96875 237.445312 90.15625 Z M 237.445312 90.15625 " fill-opacity="1" fill-rule="nonzero"/><path fill="#ffffff" d="M 190.621094 55.109375 C 191.898438 54.910156 193.375 54.464844 194.679688 54.476562 C 195.636719 54.488281 197.265625 54.992188 198.03125 54.8125 C 200.746094 54.167969 202.679688 50.972656 204.398438 48.949219 C 204.75 49.050781 205.101562 49.15625 205.453125 49.257812 C 205.710938 53.351562 204.140625 56.160156 201.871094 59.632812 C 199.769531 62.855469 197.070312 63.546875 193.460938 64.867188 C 190.65625 65.890625 187.164062 66.4375 185.394531 69.136719 C 184.195312 70.964844 183.21875 74.660156 186.105469 74.746094 C 189.785156 74.855469 188.5625 70.742188 190.199219 69.246094 C 192.667969 66.996094 193.648438 70.390625 192.75 72.414062 C 190.308594 77.929688 184.15625 78.433594 182.089844 72.761719 C 178.808594 73.332031 175.726562 73.867188 172.238281 74.472656 C 173.605469 75.714844 174.660156 77.421875 176.191406 78.476562 C 177.769531 79.566406 179.453125 79.816406 180.734375 81.339844 C 183.371094 84.472656 180.59375 86.367188 178.101562 88.359375 C 180.238281 88.527344 181.859375 88.65625 183.476562 88.785156 C 177.851562 90.582031 172.113281 90.292969 165.933594 90.125 C 166.4375 92.832031 170.019531 103.765625 163.738281 98.785156 C 162.144531 97.527344 160.597656 94.792969 158.253906 95.1875 C 156.183594 95.535156 154.457031 98.339844 152.382812 99.234375 C 149.949219 93.597656 153.53125 89.878906 157.628906 86.207031 C 157.554688 85.984375 157.480469 85.761719 157.40625 85.535156 C 150.652344 85.148438 142.382812 82.90625 135.960938 85.566406 C 135.960938 91.121094 133.972656 101.699219 138.453125 105.542969 C 142.726562 109.210938 151.375 109.691406 156.667969 111.035156 C 156.585938 111.332031 156.503906 111.632812 156.421875 111.933594 C 149.703125 110.164062 142.980469 108.394531 135.878906 106.527344 C 135.054688 123.0625 135.851562 139.375 136.59375 155.886719 C 136.890625 162.546875 134.757812 169.972656 140.554688 174.898438 C 146 179.523438 153.550781 181.851562 160.074219 184.4375 C 153.246094 186.277344 141.332031 180.144531 137.21875 174.59375 C 134.382812 170.757812 134.820312 166.320312 134.738281 161.765625 C 134.644531 156.386719 134.554688 151.007812 134.464844 145.632812 C 134.125 125.285156 134.316406 104.980469 134.316406 84.632812 C 131.597656 84.96875 129.449219 85.277344 126.785156 84.707031 C 127.652344 81.925781 129.300781 81.019531 131.132812 78.730469 C 132.40625 77.140625 135.78125 75.289062 136.308594 73.347656 C 130.304688 73.347656 128.753906 71.785156 133.96875 67.894531 C 133.929688 67.621094 133.890625 67.34375 133.851562 67.070312 C 130.863281 67.070312 124.050781 68.214844 125.195312 63.367188 C 126.03125 59.839844 130.722656 59.25 133.617188 58.871094 C 131.863281 57.789062 131.289062 57.003906 130.273438 55.1875 C 128.261719 55.71875 127.320312 57.234375 125.144531 56.320312 C 123.0625 55.449219 121.75 52.304688 121.847656 50.222656 C 123.128906 51.644531 124.410156 53.066406 125.691406 54.488281 C 125.9375 54.292969 126.179688 54.09375 126.425781 53.898438 C 125.351562 52.402344 124.277344 50.910156 123.203125 49.417969 C 123.347656 49.246094 123.492188 49.078125 123.636719 48.910156 C 124.546875 49.433594 125.457031 49.957031 126.472656 50.539062 C 126.472656 48.09375 126.472656 45.8125 126.472656 43.449219 C 129.195312 43.152344 128.753906 47.050781 128.992188 48.808594 C 138.578125 46.515625 136.113281 55.238281 140.210938 60.5625 C 140.976562 56.722656 141.105469 51.402344 143.660156 48.347656 C 149.558594 53.765625 137.390625 64.109375 146.9375 67.074219 C 146.9375 63.265625 146.363281 61.738281 148.769531 58.710938 C 150.808594 56.144531 152.039062 53.007812 154.269531 56.703125 C 155.300781 49.6875 155.96875 43.316406 160.796875 38.433594 C 164.429688 45.136719 168.007812 51.742188 171.71875 58.589844 C 172.367188 58.367188 173.027344 58.140625 173.609375 57.9375 C 173.675781 56.617188 171.671875 55 171.324219 53.371094 C 171.019531 51.953125 170.941406 49.59375 171.25 48.175781 C 172.316406 43.273438 175.734375 46.378906 178.648438 48.425781 C 181.488281 44.519531 184.511719 37.503906 189.550781 42.695312 C 193.164062 46.417969 191.875 50.667969 190.621094 55.109375 Z M 167.890625 82.824219 C 165.171875 92.332031 181.84375 85.320312 179.492188 81.992188 C 179.097656 81.4375 175.238281 80.3125 174.609375 80.589844 C 173.457031 81.101562 173.660156 82.324219 173 83.097656 C 170.871094 85.585938 169.679688 85.574219 167.828125 82.78125 C 169.558594 81.25 171.285156 79.71875 173.011719 78.1875 C 171.097656 75.441406 168.09375 75.746094 165.492188 79.058594 C 166.269531 80.28125 167.082031 81.550781 167.890625 82.824219 Z M 184.390625 56.167969 C 188.628906 54.53125 192.648438 47.289062 188.496094 43.621094 C 182.832031 38.621094 180.855469 50.21875 181.1875 53.714844 C 182.300781 52.679688 183.414062 51.644531 184.664062 50.484375 C 186.460938 52.496094 183.925781 54.296875 184.390625 56.167969 Z M 152.621094 62.605469 C 154.058594 65.550781 156.601562 66.636719 159.804688 66.308594 C 161.898438 66.09375 168.628906 63.839844 168.578125 61.246094 C 168.464844 55.628906 156.082031 57.617188 153.582031 60.019531 C 154.210938 60.671875 154.839844 61.328125 155.851562 62.382812 C 154.363281 62.484375 153.625 62.535156 152.621094 62.605469 Z M 171.972656 71.265625 C 171.871094 70.945312 171.769531 70.625 171.667969 70.304688 C 167.921875 70.304688 163.210938 71.96875 159.660156 71.183594 C 156.003906 70.371094 154.0625 69.121094 150.007812 69.277344 C 153.234375 71.9375 155.445312 74.214844 159.570312 73.886719 C 163.832031 73.546875 168.097656 73.128906 171.972656 71.265625 Z M 144.621094 74.816406 C 139.5 73.429688 139.527344 78.226562 142.554688 80.679688 C 144.8125 82.515625 152.566406 84.992188 154.847656 81.632812 C 155.472656 80.714844 155.996094 78.644531 153.929688 78.386719 C 152.773438 78.242188 151.015625 81.203125 149.765625 81.46875 C 146.699219 82.117188 143.941406 77.875 144.621094 74.816406 Z M 178.222656 71.703125 C 181.027344 69.425781 181.578125 67.167969 183.53125 64.289062 C 185.296875 61.6875 188.339844 59.804688 190.785156 57.898438 C 190.566406 57.613281 190.347656 57.324219 190.128906 57.039062 C 187.777344 58.851562 185.425781 60.664062 182.488281 62.929688 C 182.792969 61.375 182.964844 60.503906 183.097656 59.816406 C 181.5 59.046875 180.011719 58.332031 178.457031 57.585938 C 182.910156 62.949219 182.769531 65.960938 178.222656 71.703125 Z M 174.308594 69.425781 C 174.5625 69.566406 174.8125 69.703125 175.0625 69.839844 C 176.085938 68.644531 178.355469 67.160156 178.980469 65.847656 C 179.558594 64.625 178.832031 59.96875 177.511719 59.355469 C 174.394531 57.910156 174.964844 67.285156 174.308594 69.425781 Z M 176.582031 55.164062 C 178.226562 50.890625 178.105469 49.105469 173.589844 47.417969 C 172.027344 51.601562 172.5625 53.171875 176.582031 55.164062 Z M 127.015625 64.46875 C 130.140625 64.46875 133.09375 64.46875 136.273438 64.46875 C 133.308594 60.441406 129.386719 60.453125 127.015625 64.46875 Z M 136.21875 57.820312 C 136.21875 56.078125 136.046875 48.988281 132.492188 49.667969 C 128.601562 50.414062 135.304688 56.714844 136.21875 57.820312 Z M 138.769531 69.699219 C 140.179688 69.480469 141.335938 69.441406 142.746094 69.441406 C 143.03125 69 143.386719 68.4375 143.628906 68.058594 C 142.601562 66.785156 141.660156 65.617188 141.042969 64.851562 C 140.320312 66.394531 139.640625 67.839844 138.769531 69.699219 Z M 146.378906 69.660156 C 146.203125 69.875 146.03125 70.085938 145.855469 70.300781 C 146.390625 73.445312 147.589844 74.210938 152.097656 74.019531 C 150.039062 72.449219 148.207031 71.054688 146.378906 69.660156 Z M 192.75 63.429688 C 191.945312 62.527344 191.304688 61.808594 190.582031 60.996094 C 189.289062 62.210938 188.066406 63.359375 186.84375 64.507812 C 186.953125 64.714844 187.066406 64.921875 187.179688 65.128906 C 189.003906 64.570312 190.828125 64.015625 192.75 63.429688 Z M 170.996094 62.789062 C 169.265625 64.320312 167.511719 65.871094 165.457031 67.6875 C 169.285156 68.050781 171.574219 65.492188 170.996094 62.789062 Z M 169.847656 59.472656 C 169.324219 55.746094 168.285156 55.074219 165.597656 56.554688 C 166.96875 57.496094 168.214844 58.351562 169.847656 59.472656 Z M 151.105469 63.1875 C 148.09375 64.160156 150.429688 67.808594 152.941406 66.199219 C 152.28125 65.121094 151.707031 64.175781 151.105469 63.1875 Z M 153.304688 93.390625 C 155.578125 93.742188 157.050781 92.15625 157.261719 89.109375 C 156.039062 90.429688 154.820312 91.75 153.304688 93.390625 Z M 158.089844 80.628906 C 159.476562 78.527344 159.222656 78.164062 155.980469 77.546875 C 156.765625 78.699219 157.394531 79.613281 158.089844 80.628906 Z M 158.089844 80.628906 " fill-opacity="1" fill-rule="nonzero"/><path fill="#ffffff" d="M 200.101562 192.566406 C 199.894531 191.585938 199.753906 190.945312 199.558594 190.035156 C 198.378906 190.394531 195.269531 191.96875 194.035156 191.042969 C 192.675781 190.027344 193.78125 189.535156 193.191406 188.234375 C 192.242188 186.136719 188.566406 184.496094 189.328125 181.839844 C 190.742188 176.890625 206.871094 181.621094 206.734375 185.667969 C 210.898438 186.210938 214.722656 185.945312 218.082031 183.054688 C 215.289062 183.054688 209.28125 184.082031 207.269531 181.6875 C 205.496094 179.574219 206.46875 176.949219 208.671875 175.8125 C 213.824219 173.152344 220.617188 177.515625 223.304688 181.695312 C 223.128906 181.925781 222.953125 182.160156 222.777344 182.390625 C 224.761719 182.390625 225.902344 182.1875 227.457031 183.386719 C 224.78125 186.1875 221.675781 189.449219 218.5625 191.757812 C 213.78125 195.296875 214.601562 190.144531 214.964844 186.339844 C 210.210938 188.332031 205.238281 190.414062 200.101562 192.566406 Z M 209.457031 179.027344 C 209.464844 179.355469 209.472656 179.683594 209.484375 180.011719 C 212.304688 180.011719 215.125 180.011719 217.945312 180.011719 C 215.222656 177.941406 212.332031 178.621094 209.457031 179.027344 Z M 222.835938 185.242188 C 217.828125 183.84375 218.671875 188.515625 216.347656 189.550781 C 216.546875 189.785156 216.746094 190.019531 216.945312 190.253906 C 218.789062 188.6875 220.628906 187.121094 222.835938 185.242188 Z M 199.382812 185.457031 C 199.515625 185.171875 199.644531 184.886719 199.777344 184.605469 C 197.894531 184.082031 196.011719 183.5625 194.132812 183.039062 C 194.054688 183.3125 193.980469 183.589844 193.902344 183.863281 C 195.730469 184.394531 197.558594 184.925781 199.382812 185.457031 Z M 199.382812 185.457031 " fill-opacity="1" fill-rule="nonzero"/><path fill="#ffffff" d="M 114.128906 184.546875 C 119.261719 184.457031 123.761719 189.839844 128.222656 191.894531 C 134.832031 194.9375 142.421875 196.453125 149.433594 198.300781 C 163.589844 202.035156 177.558594 203.617188 192.09375 205.15625 C 185.230469 206.707031 177.886719 205.414062 170.996094 204.660156 C 163.515625 203.839844 156.054688 202.734375 148.730469 200.980469 C 141.9375 199.351562 135.894531 196.96875 129.625 193.953125 C 124.417969 191.449219 116.492188 190.574219 114.128906 184.546875 Z M 114.128906 184.546875 " fill-opacity="1" fill-rule="nonzero"/><path fill="#ffffff" d="M 267.261719 141.546875 C 266.066406 136.199219 269.039062 131.835938 270.992188 127.078125 C 273.699219 127.703125 274.019531 130.175781 274.960938 132.410156 C 276.738281 130.441406 279.359375 126.027344 282.375 127.085938 C 285.574219 128.207031 285.097656 131.671875 282.761719 133.355469 C 280.621094 134.902344 277.394531 135.097656 275.015625 136.4375 C 272.328125 137.957031 269.910156 139.945312 267.261719 141.546875 Z M 271.652344 128.625 C 269.949219 131.523438 268.644531 134.261719 268.890625 137.703125 C 273.363281 133.460938 274.109375 131.25 271.652344 128.625 Z M 276.789062 132.511719 C 276.953125 132.761719 277.117188 133.011719 277.28125 133.265625 C 280.144531 132.121094 282.121094 131.867188 283.390625 129.054688 C 280.019531 128.527344 279.144531 130.203125 276.789062 132.511719 Z M 276.789062 132.511719 " fill-opacity="1" fill-rule="nonzero"/><path fill="#ffffff" d="M 185.75 89.035156 C 197.945312 88.375 209.433594 87.160156 221.472656 85 C 221.582031 85.214844 223.667969 85.429688 223.78125 85.644531 C 218.914062 88.359375 212.476562 89.375 207.042969 89.761719 C 201.054688 90.183594 192.3125 91.757812 186.628906 89.539062 C 186.695312 89.371094 185.683594 89.203125 185.75 89.035156 Z M 185.75 89.035156 " fill-opacity="1" fill-rule="nonzero"/><path fill="#ffffff" d="M 160.964844 185.914062 C 161.628906 183.769531 170.292969 186.488281 171.945312 186.738281 C 175.8125 187.328125 179.792969 187.890625 183.707031 187.964844 C 186.957031 188.03125 188.34375 186.503906 190.542969 188.660156 C 187.15625 191.382812 179.816406 189.710938 175.59375 189.277344 C 170.828125 188.789062 165.175781 188.4375 160.964844 185.914062 Z M 160.964844 185.914062 " fill-opacity="1" fill-rule="nonzero"/><path fill="#ffffff" d="M 140.285156 203.242188 C 130.027344 200.507812 120.578125 195.792969 111.347656 190.570312 C 120.992188 194.792969 130.636719 199.019531 140.285156 203.242188 Z M 140.285156 203.242188 " fill-opacity="1" fill-rule="nonzero"/><path fill="#ffffff" d="M 141.507812 128.472656 C 150.632812 130.875 160.097656 133.363281 168.878906 135.675781 C 165.480469 136.707031 142.964844 130.859375 141.507812 128.472656 Z M 141.507812 128.472656 " fill-opacity="1" fill-rule="nonzero"/><path fill="#ffffff" d="M 141.238281 212.847656 C 130.875 210.027344 121.050781 203.625 110.949219 197.765625 C 121.386719 202.964844 131.824219 208.160156 141.238281 212.847656 Z M 141.238281 212.847656 " fill-opacity="1" fill-rule="nonzero"/><path fill="#ffffff" d="M 194.257812 148.523438 C 204.445312 148.523438 214.628906 148.523438 224.367188 148.523438 C 221.445312 149.96875 200.726562 150.234375 194.257812 148.523438 Z M 194.257812 148.523438 " fill-opacity="1" fill-rule="nonzero"/><path fill="#ffffff" d="M 242.160156 265.210938 C 250.4375 262.378906 258.933594 259.472656 267.304688 256.609375 C 265.902344 258.933594 249.617188 264.539062 242.160156 265.210938 Z M 242.160156 265.210938 " fill-opacity="1" fill-rule="nonzero"/><path fill="#ffffff" d="M 181.117188 123.316406 C 172.566406 124.183594 164.3125 122.859375 156.125 120.984375 C 164.457031 121.761719 172.789062 122.539062 181.117188 123.316406 Z M 181.117188 123.316406 " fill-opacity="1" fill-rule="nonzero"/><path fill="#ffffff" d="M 143.710938 224.835938 C 134.546875 221.835938 124.792969 218.785156 117.382812 213.476562 C 125.566406 217.007812 134.898438 221.035156 143.710938 224.835938 Z M 143.710938 224.835938 " fill-opacity="1" fill-rule="nonzero"/><path fill="#ffffff" d="M 269.832031 211.492188 C 263.726562 215.191406 257.105469 217.496094 250.058594 218.644531 C 256.554688 216.085938 263.050781 213.523438 269.546875 210.960938 C 269.644531 211.136719 269.738281 211.316406 269.832031 211.492188 Z M 269.832031 211.492188 " fill-opacity="1" fill-rule="nonzero"/><path fill="#ffffff" d="M 145.9375 100.800781 C 153.082031 102.542969 160.230469 104.285156 167.375 106.027344 C 167.3125 106.292969 167.25 106.558594 167.1875 106.824219 C 160.039062 105.128906 152.890625 103.4375 145.742188 101.742188 C 145.808594 101.429688 145.871094 101.117188 145.9375 100.800781 Z M 145.9375 100.800781 " fill-opacity="1" fill-rule="nonzero"/><path fill="#ffffff" d="M 256.386719 276.941406 C 250.128906 279.085938 243.875 281.226562 237.617188 283.367188 C 237.550781 283.179688 237.484375 282.992188 237.414062 282.804688 C 243.597656 280.507812 249.777344 278.210938 255.957031 275.914062 C 256.101562 276.257812 256.242188 276.601562 256.386719 276.941406 Z M 256.386719 276.941406 " fill-opacity="1" fill-rule="nonzero"/><path fill="#ffffff" d="M 242.144531 220.746094 C 237.773438 223.199219 232.910156 224.007812 227.867188 223.980469 C 227.824219 223.777344 227.78125 223.574219 227.734375 223.375 C 232.539062 222.496094 237.34375 221.621094 242.144531 220.746094 Z M 242.144531 220.746094 " fill-opacity="1" fill-rule="nonzero"/><path fill="#ffffff" d="M 148.820312 173.359375 C 153.808594 175.382812 158.796875 177.402344 163.789062 179.425781 C 163.714844 179.617188 163.640625 179.808594 163.566406 180 C 158.535156 178.082031 153.503906 176.164062 148.472656 174.242188 C 148.589844 173.949219 148.703125 173.65625 148.820312 173.359375 Z M 148.820312 173.359375 " fill-opacity="1" fill-rule="nonzero"/><path fill="#ffffff" d="M 158.195312 169.90625 C 153.75 167.90625 149.300781 165.902344 144.855469 163.902344 C 144.972656 163.640625 145.085938 163.378906 145.203125 163.117188 C 149.652344 165.066406 154.097656 167.019531 158.546875 168.96875 C 158.429688 169.28125 158.3125 169.59375 158.195312 169.90625 Z M 158.195312 169.90625 " fill-opacity="1" fill-rule="nonzero"/><path fill="#ffffff" d="M 272.335938 229.011719 C 269.386719 232.527344 265.078125 233.101562 261.253906 234.726562 C 261.152344 234.5 261.046875 234.273438 260.945312 234.042969 C 264.742188 232.367188 268.539062 230.691406 272.335938 229.011719 Z M 272.335938 229.011719 " fill-opacity="1" fill-rule="nonzero"/><path fill="#ffffff" d="M 147.613281 260.089844 C 143.183594 258.875 139.378906 257.828125 135.007812 256.625 C 138.59375 256.054688 145.351562 257.851562 147.613281 260.089844 Z M 147.613281 260.089844 " fill-opacity="1" fill-rule="nonzero"/><path fill="#ffffff" d="M 226.382812 129.820312 C 231.199219 129.027344 235.570312 128.304688 239.699219 127.621094 C 237.496094 129.507812 231.917969 130.546875 226.382812 129.820312 Z M 226.382812 129.820312 " fill-opacity="1" fill-rule="nonzero"/><path fill="#ffffff" d="M 143.976562 153.585938 C 148.3125 155.367188 152.648438 157.152344 156.984375 158.9375 C 156.910156 159.136719 156.835938 159.335938 156.757812 159.53125 C 152.390625 157.828125 148.019531 156.125 143.652344 154.421875 C 143.757812 154.144531 143.867188 153.863281 143.976562 153.585938 Z M 143.976562 153.585938 " fill-opacity="1" fill-rule="nonzero"/><path fill="#ffffff" d="M 204.671875 287.933594 C 209.363281 287.574219 214.054688 287.214844 219.078125 286.828125 C 216.6875 288.277344 212.222656 288.65625 204.671875 287.933594 Z M 204.671875 287.933594 " fill-opacity="1" fill-rule="nonzero"/><path fill="#ffffff" d="M 244.25 118.800781 C 243.21875 120.316406 232.179688 124.359375 229.277344 124.210938 C 234.125 122.460938 239.34375 120.574219 244.25 118.800781 Z M 244.25 118.800781 " fill-opacity="1" fill-rule="nonzero"/><path fill="#ffffff" d="M 215.832031 131.394531 C 210.8125 131.636719 205.796875 131.878906 200.777344 132.117188 C 200.769531 131.863281 200.757812 131.605469 200.746094 131.351562 C 205.769531 131.351562 210.792969 131.351562 215.8125 131.351562 C 215.820312 131.367188 215.824219 131.378906 215.832031 131.394531 Z M 215.832031 131.394531 " fill-opacity="1" fill-rule="nonzero"/><path fill="#ffffff" d="M 268.769531 202.289062 C 265.785156 203.953125 262.800781 205.617188 259.816406 207.277344 C 259.632812 206.941406 259.453125 206.605469 259.273438 206.269531 C 262.324219 204.734375 265.378906 203.195312 268.433594 201.65625 C 268.542969 201.867188 268.65625 202.078125 268.769531 202.289062 Z M 268.769531 202.289062 " fill-opacity="1" fill-rule="nonzero"/><path fill="#ffffff" d="M 140.523438 136.125 C 144.640625 137.78125 148.761719 139.433594 152.882812 141.089844 C 152.816406 141.253906 152.753906 141.417969 152.6875 141.585938 C 148.53125 139.984375 144.371094 138.382812 140.214844 136.785156 C 140.316406 136.5625 140.417969 136.34375 140.523438 136.125 Z M 140.523438 136.125 " fill-opacity="1" fill-rule="nonzero"/><path fill="#ffffff" d="M 177.117188 278.210938 C 180.867188 278.210938 184.621094 278.210938 188.371094 278.210938 C 184.628906 279.292969 180.882812 279.929688 177.117188 278.210938 Z M 177.117188 278.210938 " fill-opacity="1" fill-rule="nonzero"/><path fill="#ffffff" d="M 139.246094 249.335938 C 143.597656 249.9375 147.949219 250.539062 152.300781 251.140625 C 152.265625 251.359375 152.234375 251.578125 152.199219 251.792969 C 147.824219 251.152344 143.453125 250.511719 139.078125 249.867188 C 139.132812 249.691406 139.191406 249.515625 139.246094 249.335938 Z M 139.246094 249.335938 " fill-opacity="1" fill-rule="nonzero"/><path fill="#ffffff" d="M 208.796875 110.707031 C 211.609375 110.441406 214.421875 110.175781 217.234375 109.910156 C 217.257812 110.214844 217.285156 110.519531 217.3125 110.824219 C 214.488281 111.054688 211.664062 111.289062 208.839844 111.519531 C 208.824219 111.246094 208.808594 110.976562 208.796875 110.707031 Z M 208.796875 110.707031 " fill-opacity="1" fill-rule="nonzero"/><path fill="#ffffff" d="M 218.332031 247.578125 C 221.101562 247.28125 223.871094 246.980469 226.640625 246.683594 C 226.671875 247.007812 226.703125 247.335938 226.730469 247.664062 C 223.953125 247.882812 221.175781 248.101562 218.394531 248.320312 C 218.375 248.074219 218.351562 247.828125 218.332031 247.578125 Z M 218.332031 247.578125 " fill-opacity="1" fill-rule="nonzero"/><path fill="#ffffff" d="M 171.355469 220.734375 C 167.820312 219.785156 164.28125 218.832031 160.746094 217.878906 C 160.789062 217.71875 160.828125 217.558594 160.871094 217.394531 C 164.40625 218.300781 167.941406 219.207031 171.476562 220.113281 C 171.4375 220.320312 171.398438 220.527344 171.355469 220.734375 Z M 171.355469 220.734375 " fill-opacity="1" fill-rule="nonzero"/><path fill="#ffffff" d="M 123.21875 42.007812 C 124.523438 43.9375 125.523438 44.800781 125.109375 47.078125 C 123.070312 45.777344 123.199219 44.664062 122.777344 42.253906 C 122.925781 42.171875 123.070312 42.089844 123.21875 42.007812 Z M 123.21875 42.007812 " fill-opacity="1" fill-rule="nonzero"/><path fill="#ffffff" d="M 177.894531 165.207031 C 175.226562 164.167969 172.558594 163.128906 169.890625 162.089844 C 169.972656 161.863281 170.050781 161.640625 170.128906 161.414062 C 172.800781 162.382812 175.472656 163.351562 178.144531 164.316406 C 178.058594 164.613281 177.976562 164.910156 177.894531 165.207031 Z M 177.894531 165.207031 " fill-opacity="1" fill-rule="nonzero"/><path fill="#ffffff" d="M 204.125 218.820312 C 201.644531 218.820312 199.164062 218.820312 196.683594 218.820312 C 196.695312 218.527344 196.703125 218.234375 196.710938 217.945312 C 199.1875 218.0625 201.664062 218.183594 204.144531 218.300781 C 204.136719 218.472656 204.132812 218.648438 204.125 218.820312 Z M 204.125 218.820312 " fill-opacity="1" fill-rule="nonzero"/><path fill="#ffffff" d="M 243.824219 246.097656 C 241.109375 246.425781 238.394531 246.757812 235.679688 247.085938 C 235.652344 246.886719 235.628906 246.691406 235.601562 246.492188 C 238.316406 246.128906 241.03125 245.765625 243.75 245.398438 C 243.773438 245.632812 243.796875 245.867188 243.824219 246.097656 Z M 243.824219 246.097656 " fill-opacity="1" fill-rule="nonzero"/><path fill="#ffffff" d="M 237.785156 114.933594 C 234.621094 115.570312 231.460938 116.207031 228.296875 116.84375 C 228.265625 116.683594 228.234375 116.523438 228.203125 116.367188 C 231.367188 115.746094 234.53125 115.125 237.699219 114.507812 C 237.726562 114.648438 237.757812 114.792969 237.785156 114.933594 Z M 237.785156 114.933594 " fill-opacity="1" fill-rule="nonzero"/><path fill="#ffffff" d="M 121.039062 252.472656 C 119.058594 251.375 117.078125 250.273438 115.09375 249.171875 C 115.164062 249.039062 115.234375 248.90625 115.304688 248.773438 C 117.308594 249.859375 119.3125 250.945312 121.320312 252.03125 C 121.226562 252.179688 121.132812 252.328125 121.039062 252.472656 Z M 121.039062 252.472656 " fill-opacity="1" fill-rule="nonzero"/><path fill="#ffffff" d="M 253.085938 242.90625 C 255.160156 242.414062 257.234375 241.921875 259.304688 241.429688 C 259.34375 241.589844 259.382812 241.75 259.421875 241.910156 C 257.355469 242.421875 255.285156 242.933594 253.21875 243.445312 C 253.175781 243.265625 253.132812 243.085938 253.085938 242.90625 Z M 253.085938 242.90625 " fill-opacity="1" fill-rule="nonzero"/><path fill="#ffffff" d="M 158.0625 59.34375 C 158.367188 60.160156 158.59375 60.765625 158.636719 60.878906 C 163.078125 60.433594 161.734375 63.1875 159.449219 65.714844 C 158.066406 64.222656 153.953125 60.660156 158.0625 59.34375 Z M 158.0625 59.34375 " fill-opacity="1" fill-rule="nonzero"/></svg>