<svg xmlns="http://www.w3.org/2000/svg" xmlns:xlink="http://www.w3.org/1999/xlink" width="500" zoomAndPan="magnify" viewBox="0 0 375 374.999991" height="500" preserveAspectRatio="xMidYMid meet" version="1.0"><defs><clipPath id="6871654181"><path d="M 67 158 L 308.625 158 L 308.625 337.5 L 67 337.5 Z M 67 158 " clip-rule="nonzero"/></clipPath><clipPath id="244897f419"><path d="M 74 37.5 L 276 37.5 L 276 202 L 74 202 Z M 74 37.5 " clip-rule="nonzero"/></clipPath></defs><g clip-path="url(#6871654181)"><path fill="#ffffff" d="M 86.199219 207.332031 C 88.042969 203.515625 90.085938 201.914062 92.625 202.226562 C 91.835938 203.179688 91.128906 204.085938 90.371094 204.945312 C 89.152344 206.320312 88.789062 208.0625 88.480469 209.757812 C 88.222656 211.183594 89.449219 212.085938 90.167969 213.15625 C 90.742188 214.007812 91.515625 213.894531 92.316406 213.84375 C 95.515625 213.683594 98.679688 214.160156 101.800781 214.671875 C 104.914062 215.148438 108.011719 215.082031 111.097656 214.472656 C 116.503906 213.484375 121.902344 212.503906 127.429688 212.683594 C 127.933594 212.6875 128.421875 212.601562 128.894531 212.429688 C 133.824219 210.800781 138.917969 209.898438 144.015625 209.039062 C 149.914062 208.046875 155.835938 207.144531 161.75 206.230469 C 166.496094 205.5 171.269531 204.949219 176.050781 204.484375 C 186.984375 203.429688 197.96875 202.914062 208.859375 201.457031 C 215.972656 200.511719 222.984375 199.007812 229.980469 197.429688 C 237.542969 195.710938 244.972656 193.628906 252.136719 190.664062 C 258.648438 188.007812 264.675781 184.507812 270.210938 180.167969 C 272.832031 178.105469 275.144531 175.746094 276.433594 172.574219 C 277.007812 171.171875 277.308594 169.738281 276.828125 168.132812 C 270.464844 173.816406 262.800781 177.035156 255.226562 180.445312 C 255.484375 179.789062 256.09375 179.675781 256.601562 179.429688 C 260.863281 177.371094 265.027344 175.085938 269.136719 172.726562 C 271.035156 171.636719 272.867188 170.449219 274.382812 168.835938 C 274.773438 168.429688 275.128906 167.996094 275.453125 167.539062 C 276.464844 166.078125 276.457031 165.800781 275.429688 164.386719 C 275.289062 164.191406 275.125 164.007812 274.84375 163.667969 C 276.03125 163.625 276.601562 164.324219 276.972656 165.042969 C 278.527344 168.050781 279.570312 171.148438 278.183594 174.542969 C 278.066406 174.828125 278 175.132812 277.886719 175.523438 C 280.0625 175.707031 281.773438 176.855469 283.480469 178.015625 C 285.886719 179.644531 287.144531 181.929688 287.105469 184.820312 C 287.105469 186.085938 287.289062 186.933594 288.664062 187.316406 C 289.714844 187.613281 290.460938 188.4375 290.980469 189.398438 C 294.210938 195.40625 293.949219 200.171875 289.335938 205.402344 C 286.875 208.242188 283.898438 210.34375 280.398438 211.710938 C 279.832031 211.929688 279.214844 212.09375 278.75 212.550781 C 279.0625 212.78125 279.335938 212.605469 279.628906 212.507812 C 281.808594 211.800781 283.917969 210.929688 285.960938 209.890625 C 286.238281 209.730469 286.535156 209.667969 286.855469 209.714844 C 288.886719 210.058594 290.957031 210.425781 292.457031 212 C 293.082031 212.746094 293.886719 213.128906 294.859375 213.152344 C 295.898438 213.214844 296.894531 213.449219 297.851562 213.855469 C 298.808594 214.265625 299.667969 214.824219 300.429688 215.53125 C 301.164062 216.25 302.042969 216.664062 303.0625 216.777344 C 304.4375 216.875 305.5625 217.5625 306.695312 218.191406 C 308.210938 219.035156 308.566406 220.277344 307.78125 221.835938 C 307.261719 222.832031 306.679688 223.796875 306.046875 224.722656 C 301.796875 231.140625 298.398438 237.890625 296.296875 245.308594 C 294.601562 251.195312 292.472656 256.921875 289.910156 262.488281 C 283.5625 276.539062 278.457031 291.082031 273.617188 305.71875 C 271.484375 312.175781 269.078125 318.542969 266.796875 324.964844 C 266.109375 326.917969 264.984375 328.65625 263.921875 330.417969 C 263.289062 331.46875 262.203125 331.851562 261.171875 332.222656 C 258.28125 333.253906 255.25 333.691406 252.238281 334.183594 C 240.433594 336.113281 228.527344 336.40625 216.601562 336.894531 C 201.550781 337.511719 186.496094 337.289062 171.453125 337.058594 C 158.65625 336.863281 145.863281 336.441406 133.070312 335.796875 C 127.832031 335.554688 122.621094 335.03125 117.4375 334.226562 C 111.574219 333.28125 107.40625 329.738281 103.796875 325.378906 C 102.765625 324.125 102.359375 322.480469 101.941406 320.914062 C 100 313.554688 98.164062 306.164062 96.132812 298.828125 C 90.863281 279.925781 84.828125 261.296875 77.484375 243.101562 C 75.222656 237.488281 72.875 231.910156 70.652344 226.285156 C 69.578125 223.570312 68.683594 220.785156 67.578125 218.078125 C 66.429688 215.246094 67.328125 212.753906 70.015625 211.664062 C 73.261719 210.347656 76.566406 208.972656 80.214844 209.117188 C 81.589844 209.171875 82.964844 209.167969 84.339844 209.183594 C 85.714844 209.199219 85.714844 209.183594 86.164062 207.671875 C 84.96875 207.402344 84.132812 206.597656 83.394531 205.6875 C 81.570312 203.457031 82.066406 200.78125 84.605469 199.394531 C 86.34375 198.484375 88.191406 197.957031 90.144531 197.804688 C 93.4375 197.492188 96.742188 197.3125 100.03125 197.039062 C 107.179688 196.449219 114.335938 195.984375 121.441406 194.9375 C 125.449219 194.34375 129.503906 194.050781 133.542969 193.707031 C 139.640625 193.191406 145.714844 192.492188 151.757812 191.675781 C 157.628906 190.886719 163.492188 190.019531 169.359375 189.1875 C 175.347656 188.335938 181.335938 187.46875 187.332031 186.644531 C 193.574219 185.800781 199.828125 185.050781 206.078125 184.238281 C 215.421875 183.003906 224.679688 181.320312 233.878906 179.277344 C 239.171875 178.101562 244.449219 176.84375 249.65625 175.316406 C 255.316406 173.703125 260.71875 171.464844 265.863281 168.601562 C 267.226562 167.828125 268.519531 166.960938 269.75 165.996094 C 272.414062 163.902344 273.59375 161.949219 274.179688 158.65625 C 275.421875 159.230469 275.210938 160.3125 275.003906 161.238281 C 274.605469 163.261719 273.65625 164.976562 272.160156 166.394531 C 268.847656 169.515625 265 171.796875 260.941406 173.773438 C 254.332031 176.996094 247.277344 178.84375 240.164062 180.484375 C 232.199219 182.320312 224.210938 184.019531 216.132812 185.246094 C 211.136719 186.003906 206.117188 186.621094 201.105469 187.253906 C 194.734375 188.070312 188.355469 188.851562 181.980469 189.65625 C 174.621094 190.601562 167.257812 191.582031 159.898438 192.527344 C 150.484375 193.742188 141.027344 194.445312 131.570312 195.191406 C 125.417969 195.675781 119.277344 196.359375 113.121094 196.875 C 108.769531 197.238281 104.402344 197.398438 100.0625 197.773438 C 96.214844 198.117188 92.335938 198.097656 88.519531 198.828125 C 87.472656 199.011719 86.460938 199.316406 85.484375 199.742188 C 82.617188 201.042969 82.273438 203.605469 84.683594 205.585938 C 85.210938 206.03125 85.800781 206.378906 86.199219 207.332031 Z M 80.871094 212.113281 C 80.074219 212.222656 79.757812 211.371094 79.097656 211.214844 C 78.855469 211.15625 78.570312 211.113281 78.410156 211.375 C 78.25 211.636719 78.480469 211.863281 78.632812 212.007812 C 79.339844 212.679688 80.105469 212.414062 80.859375 212.089844 C 80.816406 212.914062 81.445312 212.800781 81.890625 212.738281 C 82.886719 212.582031 83.875 212.621094 84.855469 212.851562 C 85.628906 213.035156 86.398438 213.265625 87.203125 213.484375 C 87.039062 211.550781 85.046875 212.003906 84.203125 210.96875 C 83.796875 210.460938 82.925781 210.65625 82.269531 210.867188 C 82 211.417969 82.933594 211.742188 82.578125 212.320312 C 81.738281 212.09375 81.453125 211.152344 80.648438 210.96875 C 80.457031 211.46875 80.964844 211.714844 80.871094 212.113281 Z M 279.171875 215.683594 C 281.136719 215.398438 283.105469 215.273438 285.085938 215.304688 C 285.519531 215.238281 285.941406 215.132812 286.351562 214.980469 C 287.886719 214.636719 289.101562 213.570312 290.820312 213.019531 C 289.429688 212.261719 287.988281 211.609375 286.503906 211.058594 C 286.199219 210.941406 285.816406 210.808594 285.671875 211.140625 C 285.242188 212.023438 284.105469 211.972656 283.542969 212.6875 C 284.117188 213.351562 285.21875 213.132812 285.449219 214.085938 C 283.78125 214.335938 282.320312 212.847656 280.574219 213.578125 C 281.015625 214.179688 281.949219 214.082031 282.050781 214.953125 C 281.324219 215.144531 280.671875 215 280.09375 214.523438 C 279.257812 213.675781 278.628906 214.15625 277.78125 214.394531 C 278.199219 215.058594 279.027344 215.058594 279.203125 215.742188 C 278.144531 215.707031 277.132812 215.476562 276.160156 215.058594 C 275.699219 214.851562 275.257812 214.890625 274.835938 215.171875 C 275.355469 215.972656 276.441406 215.953125 276.582031 216.890625 C 275.585938 216.714844 274.679688 216.335938 273.855469 215.746094 C 273.726562 215.613281 273.566406 215.527344 273.382812 215.488281 C 273.203125 215.449219 273.023438 215.464844 272.847656 215.53125 C 272.503906 215.664062 271.941406 215.652344 271.816406 215.875 C 271.5625 216.460938 271.488281 217.070312 271.601562 217.699219 C 270.941406 217.621094 270.378906 217.4375 270.351562 216.878906 C 270.316406 216.191406 270.144531 216.101562 269.484375 216.191406 C 268.1875 216.378906 266.882812 217.074219 265.542969 216.21875 C 265.316406 216.074219 264.832031 216.328125 264.46875 216.398438 C 262.269531 216.832031 260.085938 217.335938 257.863281 217.664062 C 255.066406 218.078125 252.277344 218.554688 249.449219 219.011719 C 250.753906 219.589844 252.121094 219.890625 253.546875 219.910156 C 254.386719 219.980469 255.160156 219.785156 255.867188 219.324219 C 258.058594 217.683594 260.515625 217.75 263.03125 218.121094 C 264.882812 218.398438 266.726562 218.738281 268.585938 218.886719 C 269.988281 219.019531 271.367188 218.910156 272.730469 218.558594 C 274.09375 218.203125 275.351562 217.625 276.511719 216.824219 C 277.527344 216.722656 278.476562 216.484375 279.171875 215.683594 Z M 151.890625 217.144531 C 151.3125 216.960938 150.738281 216.769531 150.015625 217.144531 C 150.757812 217.253906 151.351562 217.347656 151.9375 217.101562 C 151.945312 217.230469 151.996094 217.335938 152.089844 217.425781 C 152.183594 217.515625 152.292969 217.5625 152.421875 217.566406 C 154.960938 217.910156 157.515625 218.210938 160.074219 217.910156 C 168.152344 216.988281 176.269531 216.714844 184.378906 216.625 C 196.8125 216.476562 209.21875 215.984375 221.589844 214.679688 C 227.976562 213.992188 234.386719 213.492188 240.71875 212.367188 C 248.484375 210.992188 256.054688 208.960938 263.230469 205.644531 C 268 203.4375 272.628906 200.980469 276.824219 197.789062 C 280.058594 195.324219 282.664062 192.347656 283.863281 188.339844 C 283.976562 187.960938 284.144531 187.59375 283.863281 187.058594 C 280.75 190.683594 277.011719 193.242188 273.046875 195.539062 C 264.398438 200.535156 255.011719 203.664062 245.523438 206.550781 C 244.90625 206.742188 244.28125 206.769531 243.648438 206.632812 C 244.175781 206.414062 244.714844 206.289062 245.238281 206.132812 C 252.339844 203.980469 259.328125 201.507812 266.019531 198.289062 C 270.292969 196.226562 274.429688 193.890625 278.167969 190.933594 C 279.929688 189.535156 281.652344 188.074219 282.976562 186.226562 C 284.304688 184.375 284.226562 183.195312 282.742188 181.546875 C 281.332031 180.039062 279.769531 178.699219 278.0625 177.53125 C 277.34375 177.015625 276.917969 177.085938 276.386719 177.808594 C 274.832031 179.867188 273.007812 181.652344 270.914062 183.164062 C 262.980469 189.070312 254.273438 193.441406 244.800781 196.285156 C 235.226562 199.140625 225.457031 201.144531 215.632812 202.914062 C 207.773438 204.359375 199.851562 205.355469 191.878906 205.894531 C 181.722656 206.546875 171.5625 207.042969 161.441406 208.164062 C 154.191406 208.96875 146.925781 209.664062 139.726562 210.878906 C 137.210938 211.28125 134.742188 211.867188 132.3125 212.640625 C 136.195312 212.910156 139.621094 213.101562 143.035156 213.390625 C 147.699219 213.789062 152.359375 214.222656 157.011719 214.714844 C 159.433594 214.972656 161.882812 214.925781 164.285156 215.378906 C 164.921875 215.503906 165.578125 215.554688 166.027344 216.066406 C 165.839844 216.398438 165.558594 216.585938 165.175781 216.625 C 164.753906 216.730469 164.324219 216.8125 163.890625 216.859375 C 159.894531 217.429688 155.894531 217.121094 151.890625 217.144531 Z M 184.4375 335.171875 C 184.382812 334.042969 184.296875 333.050781 184.292969 332.054688 C 184.242188 321.4375 184.273438 310.824219 184.636719 300.210938 C 184.820312 294.90625 184.878906 289.597656 185.21875 284.300781 C 185.8125 275.148438 186.617188 266.011719 187.28125 256.859375 C 188 246.714844 188.65625 236.558594 189.3125 226.40625 C 189.375 225.375 190 224.148438 189.34375 223.3125 C 188.683594 222.480469 187.34375 222.800781 186.3125 222.628906 C 182.949219 222.097656 179.597656 222.429688 176.261719 223.054688 C 175.511719 223.195312 175.257812 223.511719 175.292969 224.300781 C 175.390625 226.234375 175.40625 228.171875 175.390625 230.109375 C 175.289062 241.222656 175.160156 252.339844 175.066406 263.441406 C 175.046875 266.125 175.140625 268.808594 175.15625 271.496094 C 175.15625 271.789062 175.527344 272.183594 174.742188 272.527344 C 173.148438 256.171875 174.113281 239.882812 173.769531 223.59375 C 173.144531 227.550781 173.082031 231.566406 172.226562 235.484375 C 172.175781 234.054688 172.277344 232.632812 172.367188 231.214844 C 172.515625 228.851562 172.636719 226.484375 172.808594 224.117188 C 172.867188 223.300781 172.601562 222.914062 171.777344 222.675781 C 170.105469 222.191406 168.492188 221.484375 166.777344 221.140625 C 164.683594 220.714844 162.59375 220.453125 160.511719 221.285156 C 159.957031 221.5 159.71875 221.75 159.75 222.363281 C 159.882812 224.917969 159.914062 227.480469 160.09375 230.03125 C 160.507812 236.078125 160.710938 242.125 160.804688 248.183594 C 160.914062 254.738281 161.238281 261.285156 161.433594 267.839844 C 161.492188 269.902344 161.433594 271.964844 161.433594 274.003906 L 161.246094 274.003906 C 161.207031 273.707031 161.171875 273.40625 161.140625 273.109375 C 160.546875 268.085938 160.328125 263.027344 160.109375 257.988281 C 159.824219 251.25 159.199219 244.535156 158.800781 237.804688 C 158.511719 232.996094 158 228.222656 158.144531 223.402344 C 158.144531 223.089844 158.144531 222.777344 158.144531 222.464844 C 158.128906 222.058594 157.996094 221.726562 157.496094 221.777344 C 157 221.828125 157.082031 222.167969 157.097656 222.464844 C 157.144531 223.152344 157.257812 223.839844 157.265625 224.527344 C 157.289062 226.800781 157.265625 229.078125 157.265625 231.460938 C 157.027344 231.121094 156.914062 230.742188 156.921875 230.328125 C 156.6875 227.84375 156.460938 225.359375 156.1875 222.878906 C 156.113281 222.214844 156.277344 221.367188 155.246094 221.027344 C 155.117188 222.453125 155.402344 223.808594 155 225.128906 C 154.726562 223.921875 154.539062 222.703125 154.429688 221.46875 C 154.382812 220.878906 154.199219 220.523438 153.636719 220.390625 C 150.785156 219.703125 147.933594 219.015625 145 218.839844 C 143.554688 218.757812 143.382812 219.085938 143.722656 220.46875 C 144.976562 225.628906 145.910156 230.84375 146.527344 236.117188 C 147.367188 242.992188 148.085938 249.863281 148.820312 256.765625 C 148.898438 257.511719 149.371094 258.253906 148.910156 259.144531 C 148.15625 256.96875 147.984375 254.78125 147.722656 252.632812 C 146.523438 242.71875 144.992188 232.855469 143.132812 223.050781 C 142.96875 222.195312 142.824219 221.332031 142.605469 220.484375 C 142.515625 220.144531 142.5625 219.457031 141.917969 219.617188 C 141.351562 219.769531 141.628906 220.34375 141.660156 220.742188 C 141.691406 221.144531 141.835938 221.472656 141.886719 221.84375 C 142.15625 223.777344 142.628906 225.6875 142.574219 227.660156 C 142.417969 227.457031 142.316406 227.226562 142.273438 226.972656 C 141.847656 224.964844 141.402344 222.957031 141.023438 220.9375 C 140.886719 220.222656 140.65625 219.792969 139.832031 219.871094 C 138.625 219.992188 137.484375 219.601562 136.355469 219.257812 C 134.03125 218.53125 131.660156 218.015625 129.242188 217.714844 C 127.125 217.472656 125 217.410156 122.972656 218.238281 C 121.515625 218.832031 121.222656 219.507812 121.738281 220.988281 C 122.730469 223.820312 123.5 226.710938 124.039062 229.660156 C 125.789062 239.296875 127.523438 248.933594 129.246094 258.574219 C 129.414062 259.0625 129.371094 259.527344 129.113281 259.972656 C 128.746094 258.636719 128.429688 257.570312 128.164062 256.5 C 126.289062 248.800781 124.945312 240.992188 123.308594 233.242188 C 122.351562 228.722656 121.421875 224.203125 119.976562 219.808594 C 119.78125 219.214844 119.65625 218.636719 118.988281 218.324219 C 113.996094 216 108.941406 215.265625 103.636719 217.65625 C 105.035156 221.09375 105.875 224.664062 106.761719 228.230469 C 109.222656 238.097656 111.144531 248.085938 113.289062 258.019531 C 117.71875 278.371094 122.828125 298.570312 127.800781 318.800781 C 127.921875 319.300781 128.285156 319.785156 127.875 320.550781 C 127.417969 319.144531 126.976562 317.917969 126.625 316.671875 C 121.125 297.15625 116.382812 277.449219 111.65625 257.742188 C 109.199219 247.488281 107.382812 237.089844 104.910156 226.84375 C 104.222656 223.992188 103.597656 221.125 102.5625 218.371094 C 102.324219 217.742188 102.113281 217.113281 101.339844 216.828125 C 99.878906 216.292969 98.460938 215.628906 97.007812 215.0625 C 95.554688 214.496094 94.078125 214.515625 92.574219 214.648438 C 91.617188 214.734375 91.101562 215.171875 91.378906 216.222656 C 91.414062 216.351562 91.304688 216.523438 91.257812 216.683594 C 90.695312 216.453125 90.863281 215.570312 89.941406 215.539062 C 89.628906 217.125 90.75 218.695312 90.074219 220.59375 C 89.691406 219.125 89.386719 217.992188 89.105469 216.855469 C 88.972656 216.339844 88.792969 215.875 88.109375 216.027344 C 87.261719 216.210938 87.667969 216.765625 87.8125 217.1875 C 88.472656 219.140625 89.003906 221.125 89.410156 223.144531 C 89.492188 223.546875 89.753906 224.015625 89.230469 224.457031 C 88.972656 223.660156 88.71875 222.898438 88.464844 222.140625 C 87.875 220.367188 87.289062 218.589844 86.683594 216.820312 C 86.519531 216.359375 86.398438 215.855469 85.839844 215.65625 C 84.878906 215.3125 83.921875 214.945312 82.621094 214.464844 C 84.527344 218.390625 86.09375 222.449219 87.3125 226.636719 C 89.101562 232.480469 90.886719 238.320312 93.449219 243.890625 C 93.511719 243.976562 93.539062 244.070312 93.53125 244.175781 C 93.523438 244.28125 93.480469 244.367188 93.402344 244.441406 C 92.757812 243.828125 92.484375 243 92.117188 242.238281 C 90.570312 238.976562 89.226562 235.632812 88.082031 232.207031 C 86.21875 226.644531 84.015625 221.222656 81.46875 215.9375 C 80.238281 213.414062 80.296875 213.066406 77.042969 213.53125 C 76.945312 213.53125 76.863281 213.660156 76.777344 213.734375 C 76.78125 213.851562 76.800781 213.964844 76.835938 214.078125 C 82.335938 224.363281 86.03125 235.382812 89.589844 246.410156 C 93.546875 258.707031 96.558594 271.277344 99.601562 283.820312 C 99.78125 284.550781 100.207031 285.308594 99.855469 286.320312 C 99.675781 286 99.523438 285.667969 99.390625 285.328125 C 96.828125 277.042969 94.550781 268.679688 92.558594 260.242188 C 91.101562 254.113281 89.808594 247.933594 87.402344 242.085938 C 84.957031 236.085938 82.628906 230.027344 80.253906 223.996094 C 78.855469 220.449219 77.257812 216.992188 75.058594 213.855469 C 73.4375 211.539062 73.429688 211.546875 70.753906 212.40625 C 68.257812 213.210938 67.339844 214.90625 68.023438 217.480469 C 68.414062 218.871094 69 220.171875 69.789062 221.386719 C 72.664062 226.007812 75.132812 230.835938 77.195312 235.871094 C 85.644531 256.382812 92.113281 277.570312 98.1875 298.875 C 100.152344 305.773438 101.894531 312.738281 103.714844 319.679688 C 104.527344 322.851562 106.132812 325.554688 108.527344 327.789062 C 110.007812 329.1875 111.703125 330.242188 113.613281 330.949219 C 113.355469 329.980469 113.203125 329.332031 113.011719 328.695312 C 111.503906 323.675781 110.015625 318.65625 108.472656 313.648438 C 107.019531 308.941406 105.496094 304.253906 104.027344 299.558594 C 103.75 298.664062 103.199219 297.769531 103.6875 296.652344 C 104.371094 296.96875 104.480469 297.535156 104.679688 298.027344 C 108.578125 307.648438 111.550781 317.554688 114.597656 327.453125 C 114.992188 328.742188 114.621094 330.449219 115.683594 331.292969 C 116.742188 332.140625 118.429688 331.960938 119.804688 332.261719 C 119.917969 332.300781 120.027344 332.296875 120.132812 332.246094 C 120.238281 332.199219 120.3125 332.117188 120.355469 332.007812 C 120.402344 330.390625 119.511719 328.785156 119.617188 326.8125 C 120.117188 327.84375 120.175781 328.710938 120.421875 329.535156 C 120.683594 330.429688 120.527344 331.503906 121.164062 332.207031 C 121.886719 333.007812 123.058594 332.597656 124.003906 332.855469 C 124.183594 332.917969 124.367188 332.957031 124.554688 332.972656 C 126.460938 333.035156 128.335938 333.605469 130.351562 333.40625 C 130.007812 331.113281 129.695312 328.980469 129.371094 326.800781 C 129.953125 326.949219 129.984375 327.339844 130.074219 327.703125 C 130.445312 329.21875 130.828125 330.730469 131.203125 332.242188 C 131.566406 333.679688 131.566406 333.703125 133.082031 333.78125 C 136.007812 333.9375 138.941406 334.070312 141.875 334.175781 C 142.535156 334.199219 143.230469 334.398438 143.9375 333.96875 C 141.84375 323.746094 140.34375 313.429688 139.179688 303.058594 C 140.125 305.464844 140.421875 307.988281 140.898438 310.484375 C 142.300781 317.898438 143.484375 325.355469 145.246094 332.699219 C 145.628906 334.277344 145.625 334.320312 147.308594 334.398438 C 149.613281 334.503906 151.925781 334.566406 154.234375 334.589844 C 156.296875 334.609375 156.484375 335.171875 156.210938 332.34375 C 156.210938 332.28125 156.210938 332.21875 156.191406 332.15625 C 155.203125 324.796875 153.972656 317.46875 153.097656 310.089844 C 152.292969 303.335938 151.578125 296.570312 151.101562 289.78125 C 150.996094 288.277344 151.101562 286.757812 151.101562 285.246094 C 151.472656 286.175781 151.691406 287.140625 151.753906 288.144531 C 152.257812 294.113281 153.089844 300.050781 153.859375 305.992188 C 154.640625 311.992188 155.53125 317.980469 156.335938 323.980469 C 156.765625 327.199219 157.121094 330.421875 157.492188 333.648438 C 157.554688 334.179688 157.625 334.679688 158.300781 334.679688 C 159.261719 334.652344 160.273438 335.160156 161.167969 334.515625 C 161.320312 334.398438 161.21875 333.921875 161.222656 333.613281 C 161.222656 332.800781 161.222656 331.988281 161.222656 331.15625 C 161.339844 331.171875 161.4375 331.222656 161.515625 331.308594 C 161.597656 331.398438 161.640625 331.5 161.644531 331.617188 C 161.75 332.035156 161.832031 332.464844 161.945312 332.886719 C 162.523438 335.035156 161.832031 334.925781 164.617188 334.917969 C 164.808594 334.878906 164.988281 334.808594 165.15625 334.707031 C 164.46875 325.945312 163.398438 317.222656 163.589844 308.429688 C 164.03125 309.167969 164.085938 309.957031 164.144531 310.765625 C 164.324219 313.253906 164.515625 315.742188 164.765625 318.226562 C 165.292969 323.441406 165.898438 328.648438 166.390625 333.863281 C 166.480469 334.785156 166.78125 335.019531 167.625 335.027344 C 169.558594 335.027344 171.492188 335.171875 173.429688 335.1875 C 177.015625 335.191406 180.628906 335.171875 184.4375 335.171875 Z M 209.867188 220.691406 C 209.117188 221.296875 208.621094 221.957031 207.972656 222.164062 C 206.722656 222.5625 206.671875 223.464844 206.550781 224.488281 C 206.140625 228.085938 205.71875 231.683594 205.210938 235.265625 C 203.777344 245.34375 202.460938 255.429688 201.554688 265.5625 C 201.371094 267.558594 201.3125 269.566406 201.007812 271.5625 C 200.496094 270.445312 200.554688 269.265625 200.628906 268.125 C 200.832031 264.757812 200.914062 261.390625 201.21875 258.027344 C 201.992188 249.570312 202.960938 241.136719 204.125 232.730469 C 204.53125 229.828125 204.972656 226.925781 205.40625 224.027344 C 205.515625 223.308594 205.40625 222.839844 204.515625 222.824219 C 203.511719 222.824219 202.558594 222.453125 201.605469 222.136719 C 200.382812 221.71875 199.121094 221.542969 197.828125 221.601562 C 196.539062 221.660156 195.300781 221.953125 194.117188 222.480469 C 193.449219 222.824219 192.75 223.078125 192.015625 223.238281 C 190.613281 223.464844 190.59375 223.480469 190.484375 224.921875 C 190.171875 229.089844 189.902344 233.265625 189.574219 237.433594 C 188.886719 246.398438 188.128906 255.351562 187.453125 264.3125 C 186.988281 270.472656 186.65625 276.644531 186.1875 282.804688 C 185.644531 289.96875 185.46875 297.144531 185.234375 304.316406 C 184.976562 312.121094 185.234375 319.933594 184.9375 327.738281 C 184.851562 329.917969 184.972656 332.109375 185.03125 334.289062 C 185.058594 335.152344 185.5625 335.46875 186.371094 335.261719 C 186.957031 335.113281 186.941406 334.660156 186.953125 334.230469 C 187 332.296875 187.027344 330.363281 187.058594 328.425781 C 187.082031 327.203125 187.117188 325.984375 187.585938 324.816406 C 187.742188 327.425781 187.742188 330.019531 187.742188 332.617188 C 187.742188 333.242188 187.742188 333.867188 187.742188 334.492188 C 187.742188 334.867188 187.777344 335.253906 188.316406 335.269531 C 188.855469 335.285156 189.15625 335.101562 189.199219 334.550781 C 189.238281 334 189.28125 333.554688 189.292969 333.058594 C 189.273438 332.03125 189.46875 331.046875 189.878906 330.109375 C 189.964844 331.613281 189.96875 333.109375 189.964844 334.605469 C 189.964844 335.0625 190.171875 335.292969 190.632812 335.292969 C 191.097656 335.292969 191.535156 335.363281 191.542969 334.6875 C 191.542969 334.308594 191.609375 333.925781 191.675781 333.246094 C 192.226562 335.308594 192.226562 335.308594 194.097656 335.328125 L 196.722656 335.328125 C 199 335.328125 199.035156 335.328125 199.246094 333.085938 C 199.589844 329.484375 199.808594 325.871094 200.1875 322.277344 C 200.394531 320.304688 200.382812 318.285156 201.144531 315.972656 C 201.1875 316.351562 201.207031 316.738281 201.203125 317.121094 C 200.550781 322.621094 200.34375 328.183594 199.828125 333.710938 C 199.683594 335.289062 199.722656 335.34375 201.179688 335.3125 C 207.113281 335.191406 213.046875 335.019531 218.976562 334.917969 C 219.960938 334.917969 220.257812 334.476562 220.351562 333.597656 C 220.570312 331.675781 220.8125 329.753906 221.15625 327.855469 C 221.394531 326.542969 221.355469 325.152344 222.0625 323.804688 C 222.1875 324.226562 222.195312 324.648438 222.085938 325.074219 C 221.742188 327.914062 221.429688 330.769531 221.015625 333.601562 C 220.871094 334.601562 221.171875 334.773438 222.085938 334.722656 C 224.203125 334.601562 226.332031 334.589844 228.453125 334.507812 C 230.636719 334.425781 230.609375 334.402344 231.230469 332.34375 C 231.882812 330.183594 232.394531 327.972656 233.558594 325.957031 C 232.902344 328.648438 232.25 331.339844 231.574219 334.089844 C 233.742188 334.410156 235.699219 333.894531 237.6875 333.804688 C 239.734375 333.710938 239.707031 334.148438 240.230469 331.503906 C 241.039062 327.46875 241.839844 323.433594 242.695312 319.410156 C 245.273438 307.335938 248.359375 295.382812 251.234375 283.378906 C 251.796875 281.042969 252.265625 278.671875 253.226562 276.433594 C 249.160156 295.40625 243.828125 314.097656 240.734375 333.238281 C 241.039062 333.460938 241.375 333.527344 241.742188 333.441406 C 247.011719 332.832031 252.226562 331.894531 257.378906 330.628906 C 258.226562 330.425781 258.609375 329.941406 258.882812 329.191406 C 260.007812 326.015625 261.039062 322.808594 261.972656 319.570312 C 266.933594 302.371094 272.316406 285.3125 278.125 268.386719 C 278.359375 267.699219 278.429688 266.90625 279.121094 266.40625 C 272.183594 287.324219 266.125 308.503906 259.757812 329.738281 C 260.304688 329.675781 260.8125 329.507812 261.289062 329.230469 C 261.765625 328.957031 262.164062 328.597656 262.488281 328.152344 C 263.652344 326.523438 264.519531 324.75 265.09375 322.832031 C 268.421875 312.828125 271.734375 302.816406 275.367188 292.9375 C 278.925781 283.265625 283.019531 273.824219 287.648438 264.613281 C 290.78125 258.363281 293.757812 252.042969 295.523438 245.230469 C 296.054688 243.179688 296.6875 241.15625 297.421875 239.167969 C 299.398438 233.816406 302.230469 228.882812 304.863281 223.855469 C 305.269531 223.085938 305.679688 222.3125 306.0625 221.527344 C 306.40625 220.839844 306.199219 220.277344 305.515625 219.984375 C 304.832031 219.691406 304.6875 220.371094 304.453125 220.753906 C 302.359375 224.160156 300.28125 227.570312 298.21875 230.992188 C 297.621094 231.988281 297.097656 233.027344 296.539062 234.050781 C 296.644531 232.332031 297.335938 230.820312 298.128906 229.382812 C 299.792969 226.378906 301.523438 223.417969 303.226562 220.449219 C 303.414062 220.105469 303.769531 219.800781 303.320312 219.144531 C 301.257812 222.324219 299.320312 225.355469 297.371094 228.390625 C 298.429688 225.265625 300.269531 222.570312 301.929688 219.558594 C 300.25 219.96875 299.410156 220.589844 298.1875 222.222656 C 296.640625 224.347656 295.304688 226.597656 294.183594 228.972656 C 291.710938 234.023438 289.628906 239.238281 287.363281 244.375 C 287.140625 244.875 287.109375 245.582031 286.332031 245.855469 C 286.171875 244.828125 286.628906 244.0625 286.945312 243.273438 C 289.5625 236.800781 291.980469 230.242188 294.851562 223.863281 C 295.941406 221.433594 297.148438 219.171875 299.261719 217.488281 C 298.816406 216.800781 298.160156 216.429688 297.542969 216.035156 C 296.097656 215.140625 296.238281 214.695312 295.273438 216.542969 C 293.046875 220.800781 290.828125 225.0625 288.582031 229.3125 C 288.355469 229.742188 288.296875 230.34375 287.476562 230.6875 C 289.453125 225.074219 292.042969 220.03125 294.738281 214.730469 C 293.042969 214.84375 291.800781 215.074219 290.613281 215.761719 C 289.867188 216.226562 289.074219 216.578125 288.230469 216.816406 C 287.3125 217.03125 286.855469 217.585938 286.511719 218.359375 C 285.699219 220.113281 284.792969 221.832031 284.058594 223.617188 C 279.742188 233.847656 275.464844 244.085938 271.34375 254.394531 C 271.074219 255.058594 271 255.820312 270.269531 256.285156 C 274.90625 243.140625 280.117188 230.226562 285.621094 217.34375 C 285.238281 217.230469 284.886719 217.121094 284.53125 217.027344 C 282.789062 216.5625 281.4375 216.921875 280.375 218.5625 C 279 220.65625 277.589844 222.683594 276.429688 224.917969 C 276.230469 225.304688 276.023438 225.6875 275.785156 226.058594 C 275.726562 226.132812 275.648438 226.175781 275.554688 226.1875 C 275.457031 226.199219 275.371094 226.175781 275.296875 226.113281 C 275.203125 226.027344 275.160156 225.917969 275.160156 225.792969 C 275.160156 225.203125 275.503906 224.730469 275.796875 224.257812 C 277.019531 222.210938 278.355469 220.242188 279.800781 218.347656 C 280.03125 218.046875 280.429688 217.800781 280.355469 217.195312 C 278.234375 217.925781 276.550781 218.855469 275.695312 221.003906 C 274.871094 223.085938 273.785156 225.066406 272.796875 227.085938 C 272.632812 227.40625 272.566406 227.871094 271.835938 227.972656 C 272.695312 225.03125 274.371094 222.636719 275.523438 219.867188 C 273.921875 220.097656 273.117188 220.898438 272.585938 222.140625 C 271.484375 224.652344 270.425781 227.179688 269.492188 229.765625 C 266.855469 237.035156 264.476562 244.394531 262.09375 251.757812 C 261.972656 252.128906 262.0625 252.691406 261.40625 252.726562 C 261.015625 251.695312 261.511719 250.757812 261.804688 249.835938 C 263.015625 246.035156 264.261719 242.242188 265.542969 238.460938 C 267.46875 232.804688 269.4375 227.164062 271.460938 221.28125 C 267.339844 221.859375 263.449219 220.957031 259.527344 220.3125 C 258.902344 220.230469 258.28125 220.242188 257.660156 220.347656 C 257.28125 220.375 256.949219 220.515625 256.667969 220.773438 C 256.382812 221.03125 256.210938 221.347656 256.148438 221.722656 C 255.019531 225.875 253.742188 229.972656 252.585938 234.132812 C 250.0625 243.140625 248.1875 252.3125 245.984375 261.417969 C 242.988281 273.847656 240.058594 286.292969 237.460938 298.816406 C 236.988281 301.105469 236.71875 303.449219 235.839844 305.652344 C 237.941406 291.402344 241.042969 277.359375 244.28125 263.339844 C 247.515625 249.316406 250.464844 235.230469 255.027344 221.363281 C 252.816406 221.304688 250.632812 221.042969 248.472656 220.585938 C 247.476562 220.40625 246.992188 220.769531 246.691406 221.691406 C 246.199219 223.234375 245.625 224.753906 245.085938 226.285156 C 244.398438 228.195312 243.742188 230.105469 243.023438 232.164062 C 242.710938 231.398438 242.949219 230.882812 243.117188 230.351562 C 243.96875 227.679688 244.820312 225.003906 245.671875 222.332031 C 245.824219 221.855469 246.015625 221.390625 246.125 220.90625 C 246.15625 220.71875 246.105469 220.558594 245.96875 220.425781 C 245.863281 220.347656 245.742188 220.316406 245.613281 220.335938 C 245.484375 220.355469 245.378906 220.417969 245.300781 220.523438 C 245.078125 220.894531 244.894531 221.289062 244.757812 221.699219 C 244.105469 223.582031 243.472656 225.480469 242.828125 227.363281 C 241.929688 230.007812 241.027344 232.65625 240.125 235.300781 C 240.988281 230.347656 242.804688 225.679688 244.304688 220.542969 C 243.105469 221.257812 242.484375 221.96875 242.1875 222.949219 C 241.890625 223.929688 241.570312 224.992188 241.3125 226.023438 C 239.625 232.992188 238.003906 239.980469 236.253906 246.9375 C 232.054688 263.570312 227.957031 280.222656 224.269531 296.976562 C 223.984375 298.285156 223.902344 299.660156 223.117188 300.835938 C 227.527344 274.636719 234.699219 249.058594 240.644531 223.125 C 239.988281 223.054688 239.3125 223.011719 238.652344 222.910156 C 237.171875 222.675781 235.710938 222.390625 234.398438 221.597656 C 232.742188 220.597656 231.03125 220.378906 229.242188 221.316406 C 228.140625 221.902344 227.070312 222.636719 225.890625 222.960938 C 224.363281 223.382812 223.484375 224.085938 223.601562 225.746094 C 223.589844 225.808594 223.578125 225.867188 223.554688 225.925781 C 221.527344 236.921875 219.917969 247.960938 218.140625 258.980469 C 216.574219 268.652344 215.351562 278.371094 213.878906 288.058594 C 212.113281 299.660156 210.972656 311.335938 209.816406 323.007812 C 209.558594 325.601562 209.257812 328.1875 208.972656 330.777344 C 208.796875 329.417969 208.753906 328.054688 208.835938 326.6875 C 209.273438 321.152344 209.777344 315.625 210.25 310.085938 C 210.675781 305.113281 211.179688 300.144531 211.894531 295.203125 C 213.167969 286.375 214.542969 277.558594 215.792969 268.742188 C 217.226562 258.546875 219.03125 248.414062 220.585938 238.242188 C 221.273438 233.800781 222 229.371094 222.910156 224.972656 C 223.167969 223.714844 223.097656 223.628906 221.828125 223.316406 C 219.996094 222.894531 218.238281 222.273438 216.542969 221.460938 C 215.285156 220.902344 213.972656 220.519531 212.609375 220.308594 C 211.066406 220.003906 210.890625 220.175781 210.664062 221.683594 C 210.503906 222.796875 210.398438 223.914062 210.1875 225.015625 C 209.769531 227.179688 209.644531 229.40625 208.8125 231.488281 C 208.855469 227.929688 209.582031 224.457031 209.855469 220.691406 Z M 286.90625 188.167969 C 286.394531 189.238281 285.945312 190.269531 285.421875 191.257812 C 283.578125 194.734375 280.660156 197.179688 277.476562 199.3125 C 269.441406 204.683594 260.875 208.953125 251.550781 211.625 C 243.4375 213.941406 235.167969 215.4375 226.808594 216.515625 C 224.925781 216.761719 223.003906 216.859375 220.761719 217.546875 C 223.34375 217.636719 225.921875 217.589844 228.496094 217.402344 C 231.914062 217.101562 235.332031 216.78125 238.757812 216.558594 C 247.347656 216 255.941406 215.214844 264.382812 213.511719 C 269.578125 212.460938 274.785156 211.488281 279.816406 209.765625 C 283.226562 208.59375 286.382812 206.992188 288.886719 204.351562 C 291.671875 201.421875 292.855469 198.046875 291.378906 194.058594 C 291.035156 193.125 290.691406 192.195312 290.308594 191.265625 C 289.691406 189.734375 288.6875 188.617188 286.894531 188.167969 Z M 183.363281 219.691406 C 185.105469 220.109375 186.769531 220.738281 188.351562 221.574219 C 190.378906 222.570312 192.246094 222.605469 194.320312 221.355469 C 195.632812 220.53125 197.046875 219.980469 198.574219 219.710938 C 200.097656 219.441406 201.617188 219.472656 203.132812 219.800781 C 205.152344 220.230469 207.214844 220.398438 209.179688 219.425781 C 209.941406 219.046875 210.769531 219.109375 211.585938 219.195312 C 213.507812 219.398438 215.445312 219.601562 217.25 220.335938 C 220.464844 221.636719 223.539062 221.429688 226.5625 219.648438 C 226.019531 219.371094 225.460938 219.507812 224.9375 219.453125 C 221.210938 219.0625 217.433594 219.378906 213.734375 218.738281 C 211.945312 218.382812 210.140625 218.277344 208.324219 218.429688 C 204.039062 218.871094 199.734375 219.066406 195.429688 219.140625 C 192.058594 219.195312 188.6875 219.28125 185.316406 219.371094 C 184.738281 219.390625 184.113281 219.261719 183.363281 219.691406 Z M 144.875 217.011719 C 144.714844 216.066406 144.070312 216.191406 143.539062 216.140625 C 141.675781 215.964844 139.800781 215.871094 137.949219 215.621094 C 131.382812 214.675781 124.789062 214.34375 118.160156 214.628906 C 116.667969 214.703125 115.179688 214.894531 113.691406 215.058594 C 113.429688 215.085938 113.066406 215.148438 113.167969 215.632812 C 114.074219 215.800781 115 215.933594 115.914062 216.148438 C 117.886719 216.667969 119.859375 216.679688 121.832031 216.1875 C 122.882812 215.90625 123.9375 215.894531 124.996094 216.152344 C 128.75 217.082031 132.628906 217.3125 136.382812 218.242188 C 137.363281 218.484375 138.390625 218.585938 139.324219 218.136719 C 141.054688 217.304688 142.84375 216.691406 144.855469 217.011719 Z M 180.269531 219.601562 C 176.554688 219.453125 172.847656 219.601562 169.15625 220.050781 C 170.222656 220.601562 171.3125 220.992188 172.390625 221.425781 C 173.003906 221.6875 173.640625 221.804688 174.308594 221.773438 C 174.972656 221.746094 175.601562 221.574219 176.1875 221.257812 C 177.503906 220.617188 178.859375 220.066406 180.25 219.601562 Z M 234.15625 219.644531 L 234.175781 220.066406 C 235.691406 220.226562 237.203125 220.441406 238.71875 220.515625 C 239.371094 220.542969 240.179688 220.515625 240.4375 219.644531 Z M 77.832031 212.277344 C 77.425781 211.933594 77.09375 211.632812 76.570312 211.882812 C 76.878906 212.371094 77.21875 212.515625 77.832031 212.277344 Z M 77.832031 212.277344 " fill-opacity="1" fill-rule="nonzero"/></g><g clip-path="url(#244897f419)"><path fill="#ffffff" d="M 275.441406 156.425781 C 274.660156 153.398438 273.824219 150.445312 271.757812 148.019531 C 271.03125 147.167969 270.359375 146.28125 269.488281 145.613281 C 269.195312 145.765625 269.277344 145.929688 269.351562 146.082031 C 270.835938 149.027344 270.144531 151.671875 268.164062 154.074219 C 266.007812 156.605469 263.621094 158.894531 261.003906 160.945312 C 254.824219 165.898438 248.054688 169.832031 240.6875 172.746094 C 240.058594 173 239.394531 173.1875 238.738281 173.378906 C 238.550781 173.398438 238.363281 173.390625 238.179688 173.347656 C 238.140625 172.734375 238.683594 172.6875 239.007812 172.515625 C 240.601562 171.65625 242.199219 170.816406 243.820312 170.019531 C 252.214844 165.933594 259.632812 160.507812 266.070312 153.746094 C 267.554688 152.183594 268.554688 150.523438 268.363281 148.25 C 268.339844 147.90625 268.289062 147.570312 268.207031 147.238281 C 268.125 146.90625 268.011719 146.585938 267.871094 146.273438 C 267.726562 145.960938 267.558594 145.664062 267.363281 145.382812 C 267.167969 145.105469 266.945312 144.84375 266.703125 144.605469 C 266.457031 144.363281 266.195312 144.148438 265.910156 143.957031 C 265.625 143.765625 265.328125 143.601562 265.011719 143.464844 C 264.699219 143.328125 264.375 143.222656 264.042969 143.144531 C 263.707031 143.066406 263.371094 143.019531 263.027344 143.003906 C 260.320312 142.835938 257.84375 143.542969 255.496094 144.820312 C 253.953125 145.65625 252.503906 146.632812 251.152344 147.75 C 240.660156 156.457031 228.628906 162.105469 215.589844 165.886719 C 203.6875 169.351562 191.777344 172.785156 179.582031 175.089844 C 174.257812 176.09375 168.949219 177.246094 163.515625 177.550781 C 163.339844 177.582031 163.171875 177.632812 163.003906 177.703125 C 162.976562 178.316406 163.453125 178.207031 163.78125 178.28125 C 168.542969 179.339844 173.335938 179.96875 178.234375 179.804688 C 182.359375 179.671875 186.484375 179.773438 190.605469 179.773438 C 198.351562 179.773438 206.070312 179.363281 213.785156 178.601562 C 217.539062 178.210938 221.261719 177.625 224.953125 176.847656 C 224.800781 177.382812 224.464844 177.410156 224.140625 177.484375 C 219.398438 178.578125 214.601562 179.328125 209.753906 179.738281 C 192.3125 181.359375 174.828125 181.082031 157.351562 180.769531 C 144.871094 180.539062 132.394531 179.90625 119.914062 179.5 C 112.671875 179.261719 105.425781 179.15625 98.183594 179.441406 C 94.703125 179.582031 91.199219 179.828125 87.820312 180.816406 C 85.25 181.519531 82.921875 182.703125 80.832031 184.359375 C 77.007812 187.503906 76.101562 192.082031 78.429688 196.46875 C 78.886719 197.34375 79.414062 198.1875 80.019531 199.25 C 80.679688 197.75 81.128906 196.371094 81.847656 195.105469 C 82.941406 193.21875 84.457031 191.78125 86.398438 190.789062 C 90.894531 188.351562 95.730469 186.988281 100.742188 186.171875 C 105.355469 185.414062 109.9375 185.78125 114.535156 186.398438 C 120.214844 187.164062 125.875 188.074219 131.605469 188.492188 C 133.828125 188.65625 136.035156 188.941406 138.238281 189.316406 C 136.054688 189.578125 133.863281 189.597656 131.675781 189.371094 C 125.714844 188.835938 119.78125 188.042969 113.839844 187.351562 C 107.898438 186.660156 102 186.511719 96.214844 188.34375 C 90.855469 190.0625 86.160156 192.742188 83.023438 197.625 C 82.289062 198.765625 81.140625 199.625 80.742188 200.992188 C 80.324219 201.171875 79.996094 200.902344 79.730469 200.6875 C 74.742188 196.648438 72.878906 189.882812 77.117188 184.441406 C 79.058594 181.960938 81.613281 180.316406 84.464844 179.113281 C 84.921875 178.914062 85.398438 178.769531 85.859375 178.574219 C 85.957031 178.554688 86.039062 178.515625 86.113281 178.453125 C 86.1875 178.390625 86.242188 178.3125 86.277344 178.222656 C 86.308594 178.132812 86.320312 178.042969 86.308594 177.945312 C 86.296875 177.851562 86.261719 177.761719 86.203125 177.6875 C 84.929688 175.28125 85.324219 172.824219 86.203125 170.433594 C 87.414062 167.214844 89.242188 164.429688 92.214844 162.53125 C 94.789062 160.90625 97.582031 159.914062 100.601562 159.546875 C 103.757812 159.136719 111.886719 156.933594 114.621094 155.714844 C 114.703125 155.496094 114.546875 155.398438 114.402344 155.300781 C 110.234375 152.398438 108.457031 146.175781 111.5 140.507812 C 114.402344 135.097656 119.171875 132.714844 125.066406 132.179688 C 126.878906 132.042969 128.6875 132.058594 130.492188 132.234375 C 131.152344 132.289062 131.496094 132.101562 131.738281 131.449219 C 134.648438 123.597656 140.375 118.167969 147.15625 113.652344 C 147.722656 113.273438 148.308594 112.914062 148.875 112.542969 C 148.921875 112.515625 148.941406 112.441406 149.058594 112.265625 C 147.289062 109.300781 147.070312 106.007812 147.488281 102.578125 C 148.210938 96.664062 150.792969 91.644531 154.605469 87.175781 C 159.074219 81.929688 164.636719 78.011719 170.5 74.511719 C 175.691406 71.417969 181.101562 68.667969 186.285156 65.542969 C 187.730469 64.664062 189.054688 63.632812 190.257812 62.449219 C 194.355469 58.429688 197.570312 53.785156 200.355469 48.800781 C 202.957031 44.136719 206.769531 40.714844 211.523438 38.339844 C 212.234375 37.996094 212.9375 37.515625 213.808594 37.785156 C 214 38.445312 213.429688 38.5 213.101562 38.6875 C 209.011719 41.050781 206.367188 44.628906 205.023438 49.046875 C 204.40625 51.074219 205.066406 53.246094 205.59375 55.296875 C 206.0625 56.921875 206.699219 58.476562 207.503906 59.964844 C 209.726562 64.25 211.394531 68.746094 212.511719 73.445312 C 213.136719 76.195312 214.324219 78.753906 215.601562 81.257812 C 217.222656 84.453125 218.492188 87.742188 219.023438 91.3125 C 219.355469 93.605469 219.40625 95.90625 219.175781 98.214844 C 219.035156 99.671875 219.023438 99.652344 220.363281 100 C 221.761719 100.378906 223.054688 100.980469 224.25 101.800781 C 224.9375 102.257812 225.585938 102.828125 225.800781 103.625 C 226.101562 104.742188 226.832031 105.410156 227.679688 106.089844 C 229.757812 107.792969 231.800781 109.527344 233.863281 111.246094 C 236.738281 113.597656 239.144531 116.359375 241.082031 119.53125 C 242.429688 121.773438 243.320312 124.136719 243.171875 126.789062 C 243.167969 127.484375 243.324219 128.140625 243.640625 128.761719 C 244.710938 131.300781 245.78125 133.832031 245.46875 136.6875 C 245.398438 137.304688 245.761719 137.355469 246.25 137.4375 C 249 137.914062 251.746094 138.410156 254.496094 138.957031 C 255.984375 139.257812 257.390625 139.800781 258.339844 141.085938 C 258.683594 141.5625 259.101562 141.613281 259.628906 141.601562 C 260.753906 141.527344 261.875 141.535156 263 141.621094 C 268.972656 142.308594 274.601562 147.628906 275.648438 153.542969 C 275.839844 154.507812 275.917969 155.460938 275.441406 156.425781 Z M 151.8125 124.242188 L 152.390625 124.148438 C 156.121094 122.566406 159.9375 121.21875 163.835938 120.109375 C 169.773438 118.425781 175.832031 117.234375 181.808594 115.699219 C 192.484375 112.949219 202.890625 109.570312 211.847656 102.808594 C 212.101562 102.621094 212.398438 102.25 212.851562 102.726562 C 212.394531 103.3125 211.855469 103.808594 211.234375 104.214844 C 208.558594 106.28125 205.71875 108.082031 202.710938 109.625 C 195.179688 113.523438 187.109375 115.871094 178.929688 117.902344 C 172.335938 119.539062 165.6875 120.957031 159.25 123.164062 C 154.871094 124.648438 150.59375 126.421875 146.847656 129.199219 C 144.992188 130.570312 143.269531 132.070312 142.097656 134.328125 C 147.085938 135.226562 152.09375 135.367188 157.121094 134.746094 C 155.71875 135.917969 155.570312 136.015625 154.355469 136.285156 C 149.074219 137.4375 143.800781 136.972656 138.546875 136.121094 C 135.039062 135.554688 131.613281 134.554688 128.0625 134.203125 C 126.285156 133.996094 124.511719 134.0625 122.753906 134.402344 C 120.996094 134.742188 119.328125 135.34375 117.753906 136.199219 C 111.339844 139.742188 110.140625 148.015625 115.199219 153.265625 C 116.472656 154.597656 117.742188 155.4375 119.566406 154.398438 C 119.683594 154.351562 119.804688 154.320312 119.929688 154.308594 C 125.660156 152.832031 131.378906 151.320312 136.742188 148.714844 C 138.257812 147.984375 139.914062 147.605469 141.554688 147.179688 C 142.589844 146.953125 143.609375 146.667969 144.609375 146.324219 C 154.300781 142.570312 164.320312 140.0625 174.558594 138.363281 C 180.058594 137.453125 185.578125 136.933594 191.152344 137.1875 C 197.453125 137.476562 203.742188 137.945312 210.054688 137.847656 C 210.632812 137.847656 211.242188 137.769531 211.824219 138.027344 C 211.628906 138.542969 211.265625 138.457031 210.996094 138.464844 C 208.625 138.554688 206.269531 138.84375 203.890625 138.851562 C 196.582031 138.878906 189.273438 139.117188 182 139.769531 C 173.601562 140.519531 165.363281 142.289062 157.1875 144.335938 C 149.425781 146.273438 141.988281 149.175781 134.457031 151.8125 C 126.929688 154.449219 119.414062 157.109375 111.628906 158.921875 C 111.3125 158.996094 110.886719 159 110.707031 159.414062 C 116.234375 160.351562 121.421875 162.261719 126.398438 164.78125 C 127.117188 165.144531 127.800781 165.554688 128.667969 165.570312 C 132.234375 165.664062 135.785156 165.492188 139.320312 165.050781 C 145.164062 164.277344 150.78125 162.625 156.257812 160.5 C 165.960938 156.738281 175.707031 153.09375 185.640625 149.960938 C 196.039062 146.683594 206.335938 143.054688 216.984375 140.613281 C 222.40625 139.371094 227.875 138.402344 233.480469 138.917969 C 236.894531 139.234375 240.085938 140.226562 242.847656 142.335938 C 244.453125 143.566406 245.476562 145.167969 245.53125 147.257812 C 245.53125 147.601562 245.574219 148.085938 245.125 148.199219 C 244.675781 148.316406 244.519531 147.855469 244.410156 147.515625 C 243.1875 143.921875 240.371094 142.292969 236.941406 141.402344 C 232.730469 140.3125 228.503906 140.765625 224.292969 141.339844 C 218.71875 142.097656 213.296875 143.546875 207.914062 145.15625 C 191.3125 150.117188 174.800781 155.347656 158.492188 161.234375 C 150.269531 164.203125 141.886719 166.628906 133.023438 166.765625 C 132.488281 166.765625 131.894531 166.679688 131.351562 167.195312 C 133.574219 168.53125 135.925781 169.519531 138.226562 170.628906 C 143.289062 173.082031 148.457031 175.230469 154.03125 176.265625 C 156.601562 176.742188 159.117188 177.257812 161.804688 176.996094 C 166.90625 176.496094 171.914062 175.554688 176.925781 174.550781 C 188.171875 172.300781 199.339844 169.769531 210.285156 166.304688 C 219.648438 163.347656 228.820312 159.988281 237.257812 154.878906 C 237.824219 154.535156 238.457031 154.273438 238.925781 153.730469 C 238.476562 153.304688 238.027344 153.496094 237.648438 153.570312 C 235.441406 153.972656 233.230469 154.363281 231.046875 154.855469 C 221.558594 157.007812 212.3125 160.03125 202.96875 162.691406 C 194.03125 165.234375 185.296875 168.433594 176.164062 170.199219 C 172.371094 170.96875 168.546875 171.507812 164.6875 171.824219 C 164.085938 171.867188 163.402344 172.046875 162.644531 171.433594 C 164.085938 171.113281 165.285156 170.835938 166.496094 170.582031 C 179.859375 167.769531 192.886719 163.65625 206.058594 160.113281 C 217.1875 157.113281 228.167969 153.515625 239.683594 152.253906 C 241.546875 152.050781 242.910156 151.199219 244.328125 150.191406 C 248.40625 147.277344 252.085938 143.734375 257.171875 142.089844 C 256.1875 141.148438 255.128906 140.804688 254.078125 140.457031 C 251.457031 139.582031 248.683594 139.511719 246.015625 138.890625 C 245.164062 138.695312 244.757812 139.023438 244.464844 139.773438 C 244.257812 140.304688 244.074219 140.929688 243.34375 141.085938 C 243.089844 140.226562 243.609375 139.558594 243.65625 138.824219 C 243.679688 138.535156 243.878906 138 243.628906 138 C 242.746094 138 242.855469 137.769531 243.316406 137.273438 C 243.722656 136.835938 244.253906 136.449219 244.085938 135.621094 C 243.398438 135.75 243.140625 136.519531 242.398438 136.535156 C 242.226562 136.246094 242.808594 135.847656 242.34375 135.570312 C 242.199219 135.675781 242.058594 135.792969 241.902344 135.886719 C 241.746094 135.984375 241.558594 136.308594 241.214844 136 C 241.917969 134.695312 243.136719 133.660156 243.535156 132.152344 C 242.742188 132.839844 242.058594 133.625 241.320312 134.339844 C 240.582031 135.054688 239.894531 135.941406 238.472656 136.375 C 240.113281 134.636719 241.691406 133.382812 242.726562 131.628906 C 243.132812 130.941406 243.414062 130.289062 242.679688 129.640625 C 242.585938 129.722656 242.503906 129.816406 242.429688 129.917969 C 239.570312 134.902344 234.855469 137.410156 229.578125 138.449219 C 225.84375 139.1875 221.859375 138.710938 218.101562 137.558594 C 217.605469 137.40625 217.011719 137.316406 216.726562 136.527344 C 219.222656 137.078125 221.65625 137.003906 224.082031 137.175781 C 228.765625 137.519531 232.953125 136.085938 236.824219 133.601562 C 241.421875 130.644531 242.6875 126.746094 240.800781 121.648438 C 239.734375 118.777344 237.933594 116.40625 235.746094 114.304688 C 233.917969 112.601562 231.996094 111.015625 229.972656 109.546875 C 228.667969 108.527344 227.445312 107.410156 226.308594 106.199219 C 225.726562 108.261719 224.609375 109.582031 223.429688 110.875 C 218.632812 116.085938 213.019531 120.175781 206.59375 123.152344 C 198.6875 126.894531 190.257812 128.851562 181.769531 130.65625 C 175.320312 132.027344 168.738281 132.894531 162.609375 135.539062 C 162.285156 135.679688 161.875 135.824219 161.695312 135.285156 C 161.992188 134.542969 162.726562 134.402344 163.335938 134.152344 C 165.925781 133.070312 168.578125 132.164062 171.289062 131.4375 C 178.824219 129.457031 186.449219 127.832031 193.878906 125.453125 C 199.890625 123.523438 205.761719 121.257812 211.171875 117.941406 C 215.617188 115.21875 219.65625 111.976562 222.875 107.832031 C 224.730469 105.429688 224.328125 103.683594 221.761719 102.089844 C 220.738281 101.476562 219.644531 101.035156 218.480469 100.769531 C 217.792969 100.601562 217.105469 101.167969 216.171875 100.769531 C 217.011719 100.199219 217.914062 99.957031 218.027344 98.910156 C 218.242188 97.046875 218.496094 95.207031 218.324219 93.316406 C 217.980469 89.691406 216.714844 86.40625 214.996094 83.261719 C 213.246094 80.140625 211.976562 76.832031 211.195312 73.339844 C 210.484375 70.160156 209.453125 67.089844 208.101562 64.128906 C 207 61.683594 205.855469 59.257812 204.726562 56.828125 C 204.5625 56.464844 204.613281 55.933594 203.921875 55.851562 C 203.792969 60.921875 203.542969 65.972656 204.078125 71.003906 C 204.964844 79.328125 203.0625 86.992188 198.875 94.152344 C 198.238281 95.308594 197.445312 96.347656 196.5 97.269531 C 196.222656 97.53125 196.03125 98.03125 195.46875 97.867188 C 200.699219 90.429688 203.304688 82.34375 202.109375 73.199219 C 201.480469 68.035156 201.332031 62.859375 201.660156 57.671875 C 201.886719 53.546875 202.285156 49.425781 204.5 45.777344 C 204.546875 45.699219 204.5 45.550781 204.476562 45.433594 C 204.433594 45.433594 204.371094 45.394531 204.355469 45.410156 C 204.203125 45.519531 204.066406 45.648438 203.941406 45.789062 C 202.011719 48.3125 200.496094 51.0625 199.398438 54.042969 C 198.300781 57.023438 197.667969 60.097656 197.5 63.269531 C 197.367188 66.332031 197.429688 69.390625 197.683594 72.445312 C 197.925781 76.179688 197.449219 79.777344 195.710938 83.171875 C 193.15625 88.160156 189.453125 92.164062 185.199219 95.714844 C 184.953125 95.90625 184.695312 96.082031 184.421875 96.234375 C 184.15625 96.390625 183.847656 96.601562 183.578125 96.308594 C 183.171875 95.855469 183.671875 95.648438 183.921875 95.441406 C 185.570312 94.003906 187.132812 92.476562 188.613281 90.863281 C 194.027344 85.023438 197.128906 78.292969 196.242188 70.117188 C 196.21875 69.871094 196.199219 69.621094 196.199219 69.371094 C 196.164062 65.6875 196.105469 62 196.941406 58.371094 C 197.027344 57.996094 197.21875 57.621094 196.941406 57.039062 C 193.609375 61.507812 189.757812 65.230469 185.886719 68.945312 C 183.765625 70.976562 181.660156 73.019531 179.566406 75.078125 C 175.34375 79.230469 171.84375 83.890625 169.355469 89.300781 C 167.183594 93.886719 164.621094 98.238281 161.65625 102.359375 C 161.257812 102.929688 160.890625 103.546875 160.257812 103.941406 C 160.054688 103.542969 160.292969 103.371094 160.414062 103.175781 C 163.164062 98.785156 165.703125 94.261719 167.628906 89.429688 C 170.085938 83.28125 173.878906 78.089844 178.65625 73.566406 C 179 73.222656 179.34375 72.828125 179.6875 72.460938 C 174.128906 75.929688 168.742188 79.515625 164.015625 84.007812 C 159.734375 88.023438 156.296875 92.660156 153.707031 97.925781 C 153.207031 98.957031 152.800781 100.003906 152.332031 101.121094 C 152.125 100.792969 152.09375 100.449219 152.246094 100.089844 C 152.441406 99.371094 152.683594 98.664062 152.96875 97.972656 C 155.003906 93.214844 157.820312 88.976562 161.414062 85.257812 C 164.652344 81.964844 168.128906 78.945312 171.839844 76.195312 C 172.492188 75.707031 173.144531 75.210938 173.867188 74.664062 C 173.304688 74.394531 173.078125 74.664062 172.835938 74.824219 C 170.125 76.375 167.5 78.058594 164.960938 79.875 C 160.410156 83.160156 156.464844 87.039062 153.410156 91.769531 C 150.457031 96.339844 148.789062 101.292969 149.140625 106.8125 C 149.203125 108.546875 149.644531 110.179688 150.464844 111.707031 C 158.828125 107.5625 167.554688 104.488281 176.582031 101.15625 C 175.894531 102.082031 175.226562 102.28125 174.628906 102.566406 C 171.992188 103.832031 169.339844 105.078125 166.675781 106.300781 C 160.832031 108.980469 154.886719 111.398438 149.261719 114.546875 C 144.242188 117.34375 139.90625 120.964844 136.265625 125.414062 C 134.503906 127.5 133.199219 129.839844 132.351562 132.4375 C 134.828125 133.195312 137.320312 133.4375 139.742188 134.019531 C 140.347656 134.164062 140.652344 133.820312 140.90625 133.332031 C 142.34375 130.488281 144.75 128.601562 147.34375 126.9375 C 148.808594 126 150.320312 125.136719 151.8125 124.242188 Z M 161.378906 179.34375 C 161.351562 179.269531 161.324219 179.195312 161.292969 179.121094 C 158.363281 178.574219 155.433594 177.988281 152.492188 177.492188 C 146.851562 176.59375 141.460938 174.898438 136.316406 172.414062 C 132.734375 170.65625 129.101562 168.976562 125.5625 167.164062 C 122.453125 165.5625 119.253906 164.175781 115.960938 163 C 110.035156 160.90625 103.980469 160.097656 97.746094 161.375 C 91.515625 162.65625 87.996094 167.085938 86.75 172.328125 C 86.386719 173.878906 86.40625 175.421875 87.285156 176.855469 C 87.710938 177.542969 88.117188 177.859375 89.089844 177.683594 C 94.578125 176.699219 100.109375 176.316406 105.683594 176.539062 C 114.289062 176.828125 122.890625 177.152344 131.484375 177.828125 C 140.007812 178.488281 148.554688 178.855469 157.089844 179.332031 C 158.515625 179.410156 159.949219 179.34375 161.378906 179.34375 Z M 161.378906 179.34375 " fill-opacity="1" fill-rule="nonzero"/></g><path fill="#ffffff" d="M 140.914062 207.285156 C 142.734375 206.449219 144.691406 206.132812 146.636719 205.742188 C 154.824219 204.09375 163.050781 202.703125 171.3125 201.492188 C 178.769531 200.402344 186.246094 199.382812 193.679688 198.140625 C 198.21875 197.382812 202.804688 196.796875 207.199219 195.308594 C 207.761719 195.128906 208.332031 195.089844 208.914062 195.199219 C 208.894531 196.027344 208.164062 196.007812 207.75 196.167969 C 204.886719 197.253906 201.910156 197.90625 198.90625 198.46875 C 191.917969 199.777344 184.867188 200.636719 177.824219 201.5625 C 170.777344 202.484375 163.773438 203.652344 156.753906 204.707031 C 151.46875 205.492188 146.203125 206.433594 140.914062 207.285156 Z M 140.914062 207.285156 " fill-opacity="1" fill-rule="nonzero"/><path fill="#ffffff" d="M 184.984375 196.835938 C 183.609375 197.890625 175.035156 199.828125 171.441406 199.894531 C 172.429688 199.21875 183.617188 196.699219 184.984375 196.835938 Z M 184.984375 196.835938 " fill-opacity="1" fill-rule="nonzero"/><path fill="#ffffff" d="M 258.003906 165.097656 C 259.769531 163.273438 261.867188 161.910156 263.582031 160.101562 C 263.828125 159.84375 264.214844 159.550781 264.519531 159.980469 C 264.765625 160.324219 264.558594 160.714844 264.28125 160.984375 C 263.050781 162.136719 261.726562 163.167969 260.3125 164.078125 C 259.609375 164.550781 258.941406 165.132812 258.003906 165.097656 Z M 258.003906 165.097656 " fill-opacity="1" fill-rule="nonzero"/><path fill="#ffffff" d="M 262.566406 178.941406 C 264.402344 177.675781 266.480469 176.882812 268.496094 175.949219 C 268.785156 175.820312 269.128906 175.734375 269.257812 176.148438 C 269.339844 176.429688 269.070312 176.601562 268.863281 176.703125 C 266.867188 177.742188 264.769531 178.488281 262.566406 178.941406 Z M 262.566406 178.941406 " fill-opacity="1" fill-rule="nonzero"/><path fill="#ffffff" d="M 84.320312 189.453125 C 85.1875 188.515625 86.183594 187.746094 87.308594 187.144531 C 88.433594 186.542969 89.625 186.140625 90.886719 185.941406 C 90.109375 187.011719 88.800781 187.167969 87.734375 187.742188 C 86.667969 188.3125 85.460938 188.882812 84.320312 189.453125 Z M 84.320312 189.453125 " fill-opacity="1" fill-rule="nonzero"/><path fill="#ffffff" d="M 178.824219 196.355469 C 176.757812 197.203125 174.609375 197.636719 172.375 197.65625 C 174.460938 196.925781 176.554688 196.242188 178.824219 196.355469 Z M 178.824219 196.355469 " fill-opacity="1" fill-rule="nonzero"/><path fill="#ffffff" d="M 86.484375 185.449219 C 87.113281 185.476562 87.96875 184.558594 88.285156 185.34375 C 88.628906 186.214844 87.433594 186.117188 86.929688 186.429688 C 86.054688 186.972656 85.101562 187.394531 84.007812 187.949219 C 84.425781 186.515625 85.816406 186.285156 86.535156 185.398438 Z M 86.484375 185.449219 " fill-opacity="1" fill-rule="nonzero"/><path fill="#ffffff" d="M 263.769531 162.882812 C 263 164.210938 261.707031 164.722656 259.929688 165.15625 C 261.273438 164 262.414062 163.28125 263.769531 162.882812 Z M 263.769531 162.882812 " fill-opacity="1" fill-rule="nonzero"/><path fill="#ffffff" d="M 86.535156 185.398438 C 86.160156 185.382812 85.808594 185.460938 85.476562 185.632812 C 85.21875 185.785156 84.925781 185.871094 84.230469 186.164062 C 84.8125 185.027344 85.367188 184.523438 86.289062 184.621094 C 86.917969 184.6875 86.585938 185.128906 86.484375 185.449219 Z M 86.535156 185.398438 " fill-opacity="1" fill-rule="nonzero"/><path fill="#ffffff" d="M 267.65625 178.410156 C 266.5625 179.285156 265.519531 179.363281 264.429688 179.710938 C 265.496094 178.640625 265.894531 178.476562 267.65625 178.410156 Z M 267.65625 178.410156 " fill-opacity="1" fill-rule="nonzero"/><path fill="#ffffff" d="M 267.324219 179.972656 C 266.582031 180.636719 265.714844 180.945312 264.71875 180.894531 C 265.632812 180.148438 266.398438 179.820312 267.324219 179.972656 Z M 267.324219 179.972656 " fill-opacity="1" fill-rule="nonzero"/><path fill="#ffffff" d="M 176.539062 195.40625 C 177.085938 194.804688 177.597656 194.742188 178.34375 195.0625 C 177.78125 195.65625 177.230469 195.515625 176.539062 195.40625 Z M 176.539062 195.40625 " fill-opacity="1" fill-rule="nonzero"/><path fill="#ffffff" d="M 262.40625 165.40625 C 262.699219 164.828125 263.191406 164.71875 263.621094 164.535156 C 263.800781 164.644531 263.890625 164.859375 263.78125 164.972656 C 263.449219 165.3125 263.078125 165.648438 262.40625 165.40625 Z M 262.40625 165.40625 " fill-opacity="1" fill-rule="nonzero"/><path fill="#ffffff" d="M 151.8125 124.242188 C 151.109375 123.609375 151.8125 123.210938 152.113281 122.867188 C 153.621094 121.167969 155.371094 119.785156 157.371094 118.714844 C 161.082031 116.792969 164.839844 114.972656 168.714844 113.394531 C 172.75 111.730469 176.675781 109.835938 180.488281 107.710938 C 182.351562 106.6875 184.132812 105.542969 185.835938 104.273438 C 186.3125 103.929688 186.710938 103.359375 187.601562 103.414062 C 187.34375 104.445312 186.523438 104.898438 185.832031 105.40625 C 182.214844 107.980469 178.386719 110.1875 174.34375 112.023438 C 169.09375 114.488281 163.867188 116.992188 158.714844 119.648438 C 156.671875 120.734375 154.742188 121.988281 152.917969 123.410156 C 152.664062 123.601562 152.488281 123.851562 152.390625 124.152344 Z M 151.8125 124.242188 " fill-opacity="1" fill-rule="nonzero"/><path fill="#ffffff" d="M 115.230469 311.855469 C 111.367188 302.488281 109.570312 292.578125 107.230469 282.816406 C 110.070312 292.457031 112.421875 302.226562 115.230469 311.855469 Z M 115.230469 311.855469 " fill-opacity="1" fill-rule="nonzero"/><path fill="#ffffff" d="M 175.472656 279.257812 C 176.359375 286.628906 176.105469 294.03125 176.160156 301.417969 C 175.460938 299.65625 174.8125 281.195312 175.472656 279.257812 Z M 175.472656 279.257812 " fill-opacity="1" fill-rule="nonzero"/><path fill="#ffffff" d="M 135.101562 285.621094 C 134.199219 281.738281 133.625 278.058594 133.039062 274.414062 C 132.890625 273.496094 132.5625 272.601562 132.695312 271.664062 C 132.707031 271.535156 132.765625 271.429688 132.875 271.355469 C 132.984375 271.28125 133.101562 271.261719 133.230469 271.300781 C 133.398438 271.332031 133.542969 271.371094 133.570312 271.644531 C 133.914062 276.164062 134.996094 280.578125 135.324219 285.109375 C 135.265625 285.285156 135.191406 285.457031 135.101562 285.621094 Z M 135.101562 285.621094 " fill-opacity="1" fill-rule="nonzero"/><path fill="#ffffff" d="M 117.707031 261.65625 C 118.769531 262.855469 121.683594 274.085938 121.640625 276.609375 C 119.960938 271.441406 118.878906 266.542969 117.707031 261.65625 Z M 117.707031 261.65625 " fill-opacity="1" fill-rule="nonzero"/><path fill="#ffffff" d="M 111.761719 268.8125 C 110.449219 263.335938 109.136719 257.859375 107.828125 252.386719 L 108.261719 252.257812 C 109.089844 253.914062 109.226562 255.800781 109.707031 257.570312 C 110.214844 259.425781 110.5625 261.320312 110.96875 263.203125 C 111.371094 265.085938 111.894531 266.914062 111.761719 268.8125 Z M 111.761719 268.8125 " fill-opacity="1" fill-rule="nonzero"/><path fill="#ffffff" d="M 122.628906 274.222656 C 121.875 270.925781 121.113281 267.632812 120.308594 264.121094 C 121.496094 265.085938 122.9375 271.199219 122.628906 274.222656 Z M 122.628906 274.222656 " fill-opacity="1" fill-rule="nonzero"/><path fill="#ffffff" d="M 125.164062 220.523438 C 125.320312 222.777344 125.480469 225.035156 125.65625 227.515625 C 124.445312 225.425781 124.113281 221.917969 125.164062 220.523438 Z M 125.164062 220.523438 " fill-opacity="1" fill-rule="nonzero"/><path fill="#ffffff" d="M 174.871094 294.40625 C 174.296875 291.867188 174.082031 289.296875 174.234375 286.695312 C 174.789062 289.253906 175.222656 291.800781 174.871094 294.40625 Z M 174.871094 294.40625 " fill-opacity="1" fill-rule="nonzero"/><path fill="#ffffff" d="M 126.964844 226.671875 C 126.550781 225.769531 126.503906 224.785156 126.425781 223.816406 C 126.417969 223.683594 126.460938 223.570312 126.554688 223.476562 C 126.648438 223.382812 126.757812 223.335938 126.890625 223.339844 C 127.023438 223.320312 127.136719 223.355469 127.230469 223.449219 C 127.328125 223.539062 127.371094 223.648438 127.359375 223.78125 C 127.375 224.742188 127.359375 225.707031 127.359375 226.667969 Z M 126.964844 226.671875 " fill-opacity="1" fill-rule="nonzero"/><path fill="#ffffff" d="M 124.207031 265.394531 C 124.855469 267.140625 124.824219 268.941406 125.167969 270.914062 C 124.332031 269.601562 123.902344 267.175781 124.207031 265.394531 Z M 124.207031 265.394531 " fill-opacity="1" fill-rule="nonzero"/><path fill="#ffffff" d="M 135.628906 275.386719 C 136.175781 276.851562 136.402344 278.363281 136.3125 279.925781 C 135.652344 278.480469 135.242188 276.996094 135.628906 275.386719 Z M 135.628906 275.386719 " fill-opacity="1" fill-rule="nonzero"/><path fill="#ffffff" d="M 107.9375 259.082031 C 109.085938 260.015625 109.230469 261.273438 109.15625 262.601562 C 108.75 261.429688 108.34375 260.253906 107.9375 259.082031 Z M 107.9375 259.082031 " fill-opacity="1" fill-rule="nonzero"/><path fill="#ffffff" d="M 224.261719 324.050781 C 223.488281 314.835938 234.765625 256.039062 238.964844 246.894531 C 239.257812 247.480469 238.964844 247.972656 238.832031 248.484375 C 234.972656 263.335938 231.535156 278.285156 229.082031 293.4375 C 227.585938 302.671875 226.234375 311.929688 224.8125 321.171875 C 224.683594 322.023438 224.476562 322.859375 224.261719 324.050781 Z M 224.261719 324.050781 " fill-opacity="1" fill-rule="nonzero"/><path fill="#ffffff" d="M 256.570312 306.433594 C 259.523438 294.933594 262.5 283.433594 266.261719 272.144531 C 266.765625 272.878906 266.421875 273.558594 266.234375 274.203125 C 263.867188 282.519531 261.488281 290.835938 259.101562 299.144531 C 258.414062 301.589844 257.726562 304.035156 257.039062 306.484375 Z M 256.570312 306.433594 " fill-opacity="1" fill-rule="nonzero"/><path fill="#ffffff" d="M 262.855469 290.742188 C 263.40625 287.550781 263.835938 284.355469 265.484375 281.515625 C 265.117188 284.742188 263.929688 287.742188 262.855469 290.742188 Z M 262.855469 290.742188 " fill-opacity="1" fill-rule="nonzero"/><path fill="#ffffff" d="M 265.027344 290.097656 C 265.160156 287.457031 265.554688 284.882812 266.640625 282.507812 L 267.125 282.644531 C 266.425781 285.128906 265.726562 287.613281 265.027344 290.097656 Z M 265.027344 290.097656 " fill-opacity="1" fill-rule="nonzero"/><path fill="#ffffff" d="M 211.472656 223.226562 C 211.867188 224.90625 211.398438 226.484375 211.128906 228.085938 C 210.777344 226.425781 211.023438 224.808594 211.472656 223.226562 Z M 211.472656 223.226562 " fill-opacity="1" fill-rule="nonzero"/><path fill="#ffffff" d="M 266.136719 289.480469 C 266.742188 287.433594 267.03125 285.292969 268.296875 283.441406 C 267.691406 285.503906 267.089844 287.558594 266.484375 289.609375 Z M 266.136719 289.480469 " fill-opacity="1" fill-rule="nonzero"/><path fill="#ffffff" d="M 289.652344 221.457031 C 289.796875 220.484375 289.996094 219.515625 290.972656 218.574219 C 291.027344 220 290.238281 220.679688 289.652344 221.457031 Z M 289.652344 221.457031 " fill-opacity="1" fill-rule="nonzero"/><path fill="#ffffff" d="M 211.882812 227.628906 C 211.609375 226.417969 211.980469 225.570312 212.796875 224.539062 C 212.800781 225.660156 212.496094 226.691406 211.882812 227.628906 Z M 211.882812 227.628906 " fill-opacity="1" fill-rule="nonzero"/><path fill="#ffffff" d="M 213.886719 224.515625 C 214.113281 225.199219 213.789062 225.71875 213.492188 226.292969 C 213.3125 225.292969 213.3125 225.292969 213.886719 224.515625 Z M 213.886719 224.515625 " fill-opacity="1" fill-rule="nonzero"/><path fill="#ffffff" d="M 198.527344 215.300781 C 196.863281 215.429688 195.53125 215.613281 194.199219 215.644531 C 186.980469 215.726562 179.746094 215.605469 172.527344 215.960938 C 171.902344 215.988281 171.28125 215.964844 170.660156 215.890625 C 170.199219 215.839844 169.492188 215.917969 169.464844 215.28125 C 169.4375 214.640625 170.132812 214.683594 170.59375 214.65625 C 172.398438 214.554688 174.199219 214.421875 176.003906 214.402344 C 183.289062 214.335938 190.566406 214.691406 197.839844 215.042969 C 198.078125 215.105469 198.304688 215.191406 198.527344 215.300781 Z M 198.527344 215.300781 " fill-opacity="1" fill-rule="nonzero"/><path fill="#ffffff" d="M 189.769531 213.308594 C 188.097656 213.789062 186.40625 213.867188 184.695312 213.542969 C 184.296875 213.457031 183.941406 213.3125 183.960938 212.855469 C 183.984375 212.347656 184.421875 212.335938 184.796875 212.371094 C 186.453125 212.542969 188.109375 212.714844 189.761719 212.910156 C 189.769531 213.035156 189.769531 213.167969 189.769531 213.308594 Z M 189.769531 213.308594 " fill-opacity="1" fill-rule="nonzero"/><path fill="#ffffff" d="M 259.871094 203.4375 C 257.855469 204.910156 255.445312 205.371094 253 205.742188 L 259.699219 202.992188 Z M 259.871094 203.4375 " fill-opacity="1" fill-rule="nonzero"/><path fill="#ffffff" d="M 185.335938 211.058594 C 186.769531 210.832031 188.199219 210.835938 189.628906 211.078125 C 187.917969 211.675781 186.773438 211.667969 185.335938 211.058594 Z M 185.335938 211.058594 " fill-opacity="1" fill-rule="nonzero"/><path fill="#ffffff" d="M 255.429688 206.652344 C 256.148438 206.277344 256.625 205.964844 257.386719 206.085938 C 257.132812 206.339844 256.828125 206.519531 256.480469 206.617188 C 256.132812 206.71875 255.785156 206.730469 255.429688 206.652344 Z M 255.429688 206.652344 " fill-opacity="1" fill-rule="nonzero"/><path fill="#ffffff" d="M 185.988281 209.652344 C 186.539062 209.367188 187.113281 209.320312 187.707031 209.503906 C 187.261719 209.945312 186.792969 209.722656 185.988281 209.652344 Z M 185.988281 209.652344 " fill-opacity="1" fill-rule="nonzero"/><path fill="#ffffff" d="M 285.324219 212.066406 C 286.503906 211.769531 287.28125 212.386719 288.222656 213.078125 C 286.644531 213.203125 286.3125 213.085938 285.324219 212.066406 Z M 285.324219 212.066406 " fill-opacity="1" fill-rule="nonzero"/><path fill="#ffffff" d="M 177.109375 166.742188 L 185.503906 163.90625 C 185.621094 163.851562 185.742188 163.84375 185.863281 163.878906 C 185.988281 163.914062 186.085938 163.988281 186.152344 164.097656 C 186.21875 164.214844 186.226562 164.335938 186.171875 164.460938 C 186.113281 164.585938 186.019531 164.660156 185.886719 164.6875 C 183.066406 165.757812 180.234375 166.792969 177.109375 166.742188 Z M 177.109375 166.742188 " fill-opacity="1" fill-rule="nonzero"/><path fill="#ffffff" d="M 210.6875 89.125 C 210.945312 87.425781 211.199219 85.71875 211.476562 84.019531 C 211.546875 83.652344 211.652344 83.296875 211.792969 82.953125 C 211.832031 82.832031 211.910156 82.742188 212.019531 82.675781 C 212.125 82.609375 212.242188 82.589844 212.371094 82.609375 C 212.5 82.625 212.605469 82.679688 212.691406 82.78125 C 212.777344 82.878906 212.820312 82.992188 212.820312 83.121094 C 212.820312 83.554688 212.773438 83.980469 212.683594 84.402344 C 212.25 86.050781 211.980469 87.769531 210.6875 89.125 Z M 210.6875 89.125 " fill-opacity="1" fill-rule="nonzero"/><path fill="#ffffff" d="M 164.855469 92.035156 C 165.589844 88.503906 167.871094 84.308594 170.199219 82.578125 C 168.132812 85.425781 166.480469 88.492188 165.238281 91.785156 C 165.207031 91.871094 165.152344 91.9375 165.070312 91.980469 C 164.988281 92.023438 164.902344 92.027344 164.8125 92 Z M 164.855469 92.035156 " fill-opacity="1" fill-rule="nonzero"/><path fill="#ffffff" d="M 210.257812 86.109375 C 210.164062 84.492188 209.976562 83.289062 210.363281 82.035156 C 211.238281 83.066406 211.257812 84.132812 210.257812 86.109375 Z M 210.257812 86.109375 " fill-opacity="1" fill-rule="nonzero"/><path fill="#ffffff" d="M 164.484375 87.398438 C 165.148438 86.886719 165.300781 85.890625 166.421875 85.382812 C 165.691406 86.792969 165.085938 87.960938 164.457031 89.164062 C 163.886719 88.703125 164.308594 88.273438 164.242188 87.890625 C 164.339844 87.734375 164.402344 87.566406 164.484375 87.398438 Z M 164.484375 87.398438 " fill-opacity="1" fill-rule="nonzero"/><path fill="#ffffff" d="M 210.210938 80.539062 C 210.089844 80.925781 210.054688 81.484375 209.523438 81.40625 C 209.050781 81.34375 208.941406 80.824219 208.960938 80.398438 C 208.953125 80.304688 208.96875 80.214844 209.003906 80.128906 C 209.039062 80.042969 209.089844 79.96875 209.160156 79.90625 C 209.230469 79.84375 209.308594 79.796875 209.398438 79.773438 C 209.484375 79.746094 209.578125 79.738281 209.667969 79.753906 C 210.121094 79.800781 210.222656 80.140625 210.210938 80.539062 Z M 210.210938 80.539062 " fill-opacity="1" fill-rule="nonzero"/><path fill="#ffffff" d="M 150.054688 122.726562 C 150.558594 121.867188 151.285156 121.273438 152.230469 120.949219 C 151.714844 121.800781 150.988281 122.394531 150.054688 122.726562 Z M 150.054688 122.726562 " fill-opacity="1" fill-rule="nonzero"/><path fill="#ffffff" d="M 182.050781 163.972656 C 182.6875 163.476562 183.273438 162.832031 184.355469 163.058594 C 183.722656 163.949219 182.914062 164.027344 182.050781 163.972656 Z M 182.050781 163.972656 " fill-opacity="1" fill-rule="nonzero"/><path fill="#ffffff" d="M 149.113281 121.289062 C 149.464844 120.574219 150.019531 120.078125 150.769531 119.808594 C 150.152344 120.96875 150.152344 120.96875 149.113281 121.289062 Z M 149.113281 121.289062 " fill-opacity="1" fill-rule="nonzero"/><path fill="#ffffff" d="M 164.484375 87.398438 C 164.402344 87.566406 164.324219 87.742188 164.242188 87.898438 C 163.96875 87.898438 163.601562 88.242188 163.441406 87.84375 C 163.386719 87.652344 163.40625 87.472656 163.5 87.296875 C 163.589844 87.121094 163.730469 87.003906 163.914062 86.941406 C 164.339844 86.726562 164.421875 87.085938 164.484375 87.398438 Z M 164.484375 87.398438 " fill-opacity="1" fill-rule="nonzero"/><path fill="#ffffff" d="M 164.8125 92 C 164.929688 92.195312 164.964844 92.40625 164.914062 92.628906 C 164.863281 92.851562 164.746094 93.023438 164.558594 93.152344 C 164.265625 92.65625 164.496094 92.328125 164.855469 92.035156 Z M 164.8125 92 " fill-opacity="1" fill-rule="nonzero"/><path fill="#ffffff" d="M 112.792969 164.046875 C 111.074219 163.289062 109.207031 163.167969 107.378906 162.890625 C 107.109375 162.851562 106.773438 163 106.429688 162.421875 C 109.515625 162.324219 112.492188 162.84375 115.363281 163.980469 C 114.453125 164.515625 113.601562 163.753906 112.722656 164 Z M 112.792969 164.046875 " fill-opacity="1" fill-rule="nonzero"/><path fill="#ffffff" d="M 112.734375 164 C 112.886719 164.394531 113.355469 164.359375 113.601562 164.636719 C 113.773438 164.839844 113.882812 165.078125 113.710938 165.289062 C 113.574219 165.425781 113.410156 165.484375 113.21875 165.460938 C 111.863281 165.1875 110.539062 164.8125 109.238281 164.34375 C 110.417969 163.914062 111.617188 164.101562 112.792969 164.046875 Z M 112.734375 164 " fill-opacity="1" fill-rule="nonzero"/><path fill="#ffffff" d="M 110.128906 165.742188 C 110.332031 165.601562 110.558594 165.523438 110.804688 165.511719 C 111.050781 165.496094 111.285156 165.546875 111.503906 165.660156 C 111.976562 165.84375 112.878906 165.949219 112.671875 166.554688 C 112.386719 167.382812 111.761719 166.554688 111.347656 166.429688 C 110.9375 166.300781 110.292969 166.40625 110.128906 165.742188 Z M 110.128906 165.742188 " fill-opacity="1" fill-rule="nonzero"/></svg>