<svg xmlns="http://www.w3.org/2000/svg" xmlns:xlink="http://www.w3.org/1999/xlink" width="500" zoomAndPan="magnify" viewBox="0 0 375 374.999991" height="500" preserveAspectRatio="xMidYMid meet" version="1.0"><defs><filter x="0%" y="0%" width="100%" height="100%" id="cb7f81bdd2"><feColorMatrix values="0 0 0 0 1 0 0 0 0 1 0 0 0 0 1 0 0 0 1 0" color-interpolation-filters="sRGB"/></filter><mask id="789c7a3376"><g filter="url(#cb7f81bdd2)"><rect x="-37.5" width="450" fill="#000000" y="-37.499999" height="449.999989" fill-opacity="0.2"/></g></mask><clipPath id="c052f4a783"><path d="M 0.761719 0.160156 L 307 0.160156 L 307 313.121094 L 0.761719 313.121094 Z M 0.761719 0.160156 " clip-rule="nonzero"/></clipPath><clipPath id="cdbd32d556"><rect x="0" width="307" y="0" height="314"/></clipPath><clipPath id="9f03a3b32b"><path d="M 91 85 L 286.386719 85 L 286.386719 309 L 91 309 Z M 91 85 " clip-rule="nonzero"/></clipPath></defs><g mask="url(#789c7a3376)"><g transform="matrix(1, 0, 0, 1, 23, 32)"><g clip-path="url(#cdbd32d556)"><g clip-path="url(#c052f4a783)"><path fill="#000000" d="M 98.726562 273.507812 C 92.839844 263.644531 89.339844 252.578125 85.769531 241.660156 C 82.199219 230.746094 78.445312 219.730469 72.132812 210.132812 C 64.121094 197.949219 52.445312 188.722656 41.058594 179.613281 C 29.671875 170.503906 18.136719 161.035156 10.570312 148.570312 C 1.140625 133.046875 -1.261719 113.667969 2.964844 96.003906 C 7.1875 78.339844 17.777344 62.457031 31.722656 50.816406 C 47.292969 37.824219 66.648438 30.101562 86.308594 25.128906 C 105.972656 20.160156 126.175781 17.753906 146.136719 14.152344 C 184.074219 7.308594 222.425781 -3.921875 260.511719 2.042969 C 265.804688 2.871094 271.078125 4.039062 276.03125 6.082031 C 280.984375 8.125 285.625 11.074219 289.167969 15.09375 C 294.925781 21.628906 297.378906 30.601562 297.300781 39.308594 C 297.222656 48.019531 294.808594 56.546875 291.789062 64.714844 C 288.773438 72.882812 285.136719 80.828125 282.464844 89.117188 C 279.789062 97.40625 278.089844 106.171875 279.101562 114.820312 C 280.414062 126.058594 286.164062 136.234375 291.964844 145.949219 C 297.765625 155.664062 303.855469 165.550781 305.980469 176.664062 C 307.703125 185.667969 306.699219 195.046875 304.136719 203.847656 C 301.570312 212.648438 297.484375 220.933594 293.003906 228.929688 C 283.15625 246.503906 271.214844 263.023438 256.574219 276.859375 C 241.933594 290.695312 224.515625 301.808594 205.316406 307.902344 C 186.117188 314 165.097656 314.921875 145.789062 309.179688 C 126.480469 303.433594 109.054688 290.804688 98.726562 273.507812 Z M 98.726562 273.507812 " fill-opacity="1" fill-rule="nonzero"/></g></g></g></g><path fill="#000000" d="M 220.542969 146.511719 C 215 147.027344 209.132812 147.574219 203.261719 148.121094 C 203.265625 148.242188 203.269531 148.367188 203.277344 148.488281 C 208.25 148.222656 213.21875 147.960938 218.089844 147.703125 C 218.15625 147.679688 218.230469 147.667969 218.3125 147.664062 C 219.191406 147.644531 220.003906 147.378906 220.800781 147.046875 C 220.710938 146.875 220.625 146.695312 220.542969 146.511719 Z M 220.542969 146.511719 " fill-opacity="1" fill-rule="nonzero"/><g clip-path="url(#9f03a3b32b)"><path fill="#000000" d="M 276.941406 248.1875 C 273.585938 246.277344 269.566406 245.378906 265.886719 244.289062 C 261.234375 242.910156 259.234375 243.28125 259.464844 238.140625 C 259.902344 228.273438 260.746094 218.425781 260.5 208.539062 C 260.4375 206.101562 260.332031 203.667969 260.179688 201.238281 C 260.074219 199.511719 259.1875 196.28125 259.65625 194.671875 C 260.765625 190.863281 264.175781 192.679688 266.660156 193.839844 C 266.800781 191.953125 264.507812 191.757812 263.207031 190.667969 C 262.136719 189.777344 261.292969 188.652344 260.195312 187.789062 C 259.300781 187.082031 257.152344 186.398438 256.578125 185.472656 C 255.433594 183.628906 257.992188 180.421875 259.996094 180.582031 C 261.894531 180.734375 265.019531 185.101562 266.175781 186.742188 C 267.535156 188.664062 269.214844 191.761719 272.21875 191.28125 C 274.585938 190.902344 274.355469 189.175781 273.640625 187.078125 C 271.527344 180.894531 266.28125 180.21875 260.769531 178.847656 C 260.785156 178.667969 260.796875 178.488281 260.808594 178.304688 C 265.546875 175.488281 269.957031 177.691406 274.726562 175.976562 C 276.835938 175.214844 278.363281 173.511719 275.882812 172.039062 C 274.449219 171.1875 271.464844 171.773438 269.902344 172.003906 C 269.902344 169.109375 270.863281 164.152344 268.25 161.996094 C 265.992188 160.136719 261.195312 161.078125 258.507812 161.078125 C 257.992188 158.042969 253.625 158.007812 253.164062 156.019531 C 252.664062 153.851562 260.101562 152.683594 261.140625 151.238281 C 263.820312 147.511719 258.355469 148 256.445312 149.058594 C 253.6875 150.582031 253.21875 152.5625 250.144531 153.804688 C 249.308594 151.003906 249.035156 148.695312 246.726562 146.851562 C 244.042969 151.832031 248.921875 156.804688 243.921875 160.445312 C 243 157.632812 242.585938 155.675781 241.132812 152.960938 C 239.75 154.679688 238.671875 156.019531 237.589844 157.363281 C 237.40625 157.296875 237.222656 157.230469 237.035156 157.167969 C 236.722656 153.21875 236.902344 149.28125 236.714844 145.332031 C 236.53125 141.355469 235.636719 137.980469 235.886719 133.96875 C 236.378906 126.128906 235.859375 118.160156 235.636719 110.316406 C 235.53125 106.554688 235.5 102.769531 235.226562 99.019531 C 234.925781 94.910156 234.121094 93.722656 230.195312 92.609375 C 223.101562 90.605469 215.507812 90.082031 208.207031 89.273438 C 208.027344 89.027344 207.847656 88.777344 207.671875 88.527344 C 208.878906 87.976562 209.269531 87.707031 209.9375 86.570312 C 208.183594 85.722656 207.566406 86.398438 205.625 86.441406 C 204.210938 86.46875 202.90625 85.851562 201.519531 85.746094 C 198.890625 85.546875 196.207031 86.546875 196.328125 89.707031 C 195.957031 89.546875 195.640625 89.414062 194.90625 89.097656 C 195.96875 92.835938 194.050781 95.824219 191.09375 97.972656 C 187.207031 100.796875 184.085938 98.851562 179.8125 98.464844 C 183.003906 101.136719 187.835938 102.875 191.664062 100.101562 C 193.558594 98.734375 194.246094 96.304688 196.050781 94.898438 C 197.5 93.761719 199.769531 93.277344 201.5 92.664062 C 207.023438 90.707031 211.453125 91.078125 217.179688 91.78125 C 222.988281 92.496094 228.582031 92.71875 233.132812 96.574219 C 230.839844 98.105469 228.558594 99.761719 226.113281 101.058594 C 224.78125 101.769531 222.527344 102.253906 222.269531 104.011719 C 225.453125 104.175781 229.539062 102.179688 233.757812 98.441406 C 233.757812 101.101562 234.554688 104.472656 232.488281 106.4375 C 232.453125 106.46875 232.417969 106.496094 232.386719 106.527344 C 233.023438 106.472656 233.582031 106.609375 234.023438 107.035156 C 235.628906 108.582031 234.382812 117.296875 234.484375 119.4375 C 234.980469 129.800781 235.1875 140.511719 234.347656 150.90625 C 229.335938 150.90625 225.253906 153.324219 222.324219 149.40625 C 220.726562 148.675781 219.910156 148.9375 219.011719 149.0625 C 220.382812 153.363281 222.46875 160.089844 222.429688 160.097656 C 222.625 160.316406 222.800781 160.554688 222.992188 160.785156 C 223.960938 160.832031 225.953125 161.882812 227.710938 162.523438 C 233.484375 164.632812 226.28125 154.242188 224.996094 152.289062 C 227.574219 152 229.554688 151.78125 231.539062 151.558594 C 231.589844 151.691406 232.300781 152.707031 233.265625 152.09375 C 233.949219 155.664062 230.765625 157.375 231.875 156.675781 C 231.875 158.613281 230.683594 161.523438 229.410156 163.109375 C 227.523438 165.449219 224.902344 166.253906 227.945312 169.539062 C 228.03125 168.789062 228.097656 168.191406 228.230469 167.039062 C 230.429688 170.558594 230.445312 170.375 227.933594 173.996094 C 227.707031 173.9375 227.480469 173.878906 227.25 173.820312 C 226.394531 169.808594 226.417969 167.316406 222.144531 165.914062 C 219.015625 164.886719 214.417969 164.800781 211.496094 163.09375 C 211.292969 163.097656 210.199219 162.726562 210.1875 162.371094 C 208.429688 162.613281 203.96875 162.511719 203.589844 164.617188 C 202.859375 168.664062 218.265625 168.847656 220.667969 168.847656 C 220.707031 169 220.746094 169.148438 220.785156 169.296875 C 217.902344 170.820312 214.234375 174.484375 214.875 178.109375 C 215.488281 181.5625 220.691406 182.777344 223.425781 184.058594 C 222.105469 185.472656 218.261719 188.234375 219.136719 190.5 C 219.628906 189.875 220.046875 189.347656 220.417969 188.878906 C 221.972656 193.347656 222.0625 195.015625 227.019531 195.570312 C 226.1875 198.5625 216.554688 199.992188 213.835938 200.460938 C 211.289062 200.902344 208.621094 200.660156 206.113281 201.121094 C 203.519531 201.597656 201.828125 202.289062 199.085938 202.289062 C 203.9375 204.109375 209.507812 202.34375 214.519531 202.117188 C 219.972656 201.871094 224.664062 200.484375 229.84375 198.871094 C 228.886719 201.882812 228.863281 204.667969 230.273438 207.382812 C 233.039062 204.949219 236.113281 203.726562 239.199219 201.773438 C 240.320312 201.0625 241.410156 200.375 242.234375 199.292969 C 242.992188 198.292969 243.191406 196.515625 244.15625 195.851562 C 245.796875 198.207031 248.988281 200.980469 251.671875 197.707031 C 253.699219 195.234375 250.285156 191.914062 249.679688 189.433594 C 252.160156 191.746094 254.269531 194.390625 257.933594 194.46875 C 258.523438 204.367188 259.054688 214.132812 258.585938 224.050781 C 258.34375 229.171875 259.402344 232.949219 254.359375 235.320312 C 250.167969 237.289062 245.90625 238.960938 241.546875 240.519531 C 247.363281 239.859375 252.5 237.28125 258.019531 234.832031 C 258.019531 240.222656 259.542969 247.101562 257.035156 252.109375 C 254.390625 257.390625 247.699219 262.011719 242.460938 264.3125 C 236.148438 267.082031 229.566406 269.421875 222.972656 271.414062 C 220.847656 272.058594 204.542969 277.347656 203.425781 275.203125 C 192.328125 276.921875 180.757812 277.035156 169.660156 275.390625 C 169.5625 274.363281 168.378906 273.265625 168.140625 273.679688 C 166.714844 273.042969 165.429688 272.46875 163.675781 271.683594 C 163.050781 268.117188 162.820312 266.191406 160.125 263.769531 C 158.570312 262.371094 155.453125 258.125 153.074219 259.59375 C 154.085938 260.398438 154.945312 261.078125 155.988281 261.90625 C 154.625 262.679688 153.390625 264.023438 151.847656 264.234375 C 150.523438 264.414062 149.769531 263.5 148.550781 264.390625 C 145.757812 266.441406 146.128906 273.71875 144.414062 276.695312 C 143.835938 276.292969 143.484375 275.75 143.367188 275.070312 C 143.214844 275.054688 143.058594 275.039062 142.90625 275.023438 C 142.339844 277.382812 142.53125 279.023438 141.5625 281.335938 C 141.214844 280.511719 140.984375 279.960938 140.726562 279.351562 C 140.167969 279.710938 139.695312 280.015625 139.222656 280.320312 C 137.53125 277.738281 138.097656 277.480469 140.03125 275.957031 C 142.855469 273.734375 143.339844 272.140625 142.417969 268.492188 C 142.152344 269.496094 141.882812 270.5 141.617188 271.507812 C 141.421875 271.492188 141.226562 271.480469 141.035156 271.46875 C 140.730469 268.1875 142.859375 263.789062 145.695312 261.949219 C 146.394531 261.492188 149.34375 259.929688 150.308594 260.324219 C 151.167969 260.675781 151.035156 261.808594 151.5625 262.566406 C 153.304688 260.5 150.273438 258.351562 149.84375 256.335938 C 149.398438 254.226562 152.601562 250.714844 150.273438 249.441406 C 148.941406 248.710938 143.890625 249.984375 142.636719 250.578125 C 139.96875 251.835938 139.03125 255 137.703125 257.476562 C 136.398438 256.941406 135.097656 256.410156 133.792969 255.875 C 134.472656 254.964844 136.355469 254.832031 136.683594 253.796875 C 137.011719 252.769531 135.84375 252.089844 135.679688 251.191406 C 135.375 249.558594 135.886719 248.394531 135.242188 246.671875 C 134.59375 244.933594 133.863281 244.335938 134.011719 242.476562 C 132.695312 241.75 131.132812 240.890625 129.90625 240.214844 C 127.628906 242.277344 117.523438 243.28125 119.503906 247.976562 C 120.089844 247.25 120.699219 246.5 121.308594 245.746094 C 121.441406 245.835938 121.574219 245.925781 121.707031 246.015625 C 119.976562 250.824219 119.15625 254.714844 115.253906 258.082031 C 113.136719 259.910156 112.328125 261.53125 110.902344 263.820312 C 109.777344 265.621094 107.949219 266.875 106.933594 268.75 C 104.382812 266.839844 99.265625 267.703125 98.117188 269.546875 C 96.542969 270 95.46875 270.3125 94.394531 270.621094 C 92.636719 267.570312 96.664062 259.363281 101.199219 257.371094 C 100.664062 261.398438 100.160156 263.664062 103.847656 265.972656 C 107.898438 268.511719 108.152344 265.457031 109.851562 261.878906 C 107.25 258.707031 114.289062 258.898438 113.46875 255.207031 C 112.761719 255.410156 112.054688 255.617188 111.347656 255.820312 C 111.230469 255.640625 111.117188 255.460938 111 255.277344 C 113.292969 253.207031 113.273438 252.832031 115.382812 254.9375 C 117.292969 252.019531 115.875 249.867188 115.640625 246.839844 C 115.449219 244.320312 116.789062 241.535156 117.539062 239.136719 C 117.617188 239.164062 117.691406 239.191406 117.769531 239.21875 C 117.910156 240.449219 118.046875 241.675781 118.1875 242.90625 C 118.378906 242.894531 118.566406 242.882812 118.757812 242.871094 C 120.097656 237.949219 119.699219 231.910156 119.847656 226.8125 C 120.003906 221.398438 119.75 216 119.640625 210.589844 C 119.40625 199.324219 119.519531 188.039062 120.074219 176.792969 C 120.246094 176.769531 120.421875 176.746094 120.59375 176.722656 C 122.570312 179.898438 124.339844 181.898438 127.234375 184.261719 C 127.421875 184.082031 127.609375 183.902344 127.796875 183.722656 C 124 178.605469 120.71875 175.015625 125.707031 169.417969 C 129.550781 165.097656 137.5 163.261719 142.753906 160.886719 C 142.675781 160.683594 142.59375 160.476562 142.515625 160.273438 C 136.398438 161.300781 129.023438 163.976562 123.964844 167.648438 C 121.949219 169.113281 119.125 171.246094 118.3125 173.675781 C 117.304688 176.699219 118.277344 182.261719 118.308594 185.484375 C 118.386719 193.097656 118.433594 200.703125 118.390625 208.316406 C 118.347656 215.894531 119.023438 223.917969 118.09375 231.4375 C 116.023438 230.320312 115.484375 229.675781 114.285156 231.992188 C 113.066406 234.351562 112.882812 237.699219 112.304688 240.28125 C 110.679688 237.203125 110.585938 235.660156 111.910156 232.421875 C 112.601562 230.726562 114.992188 227.929688 114.578125 226.019531 C 114.128906 223.953125 111.203125 222.601562 110.417969 220.523438 C 109.761719 218.792969 110.988281 215.953125 108.9375 214.992188 C 108.476562 216.0625 108.046875 217.066406 107.691406 217.890625 C 107.390625 216.871094 107.082031 215.816406 106.769531 214.757812 C 106.453125 214.789062 106.132812 214.820312 105.8125 214.851562 C 105.359375 218.792969 104.90625 222.730469 104.429688 226.859375 C 99.730469 223.605469 97.640625 228.464844 101.304688 231.925781 C 103.007812 233.53125 105.433594 234.320312 106.957031 236.175781 C 108.703125 238.304688 108.355469 240.785156 108.597656 243.390625 C 106.503906 241.160156 105.457031 238.523438 101.96875 238.378906 C 99.894531 238.296875 96.832031 239.242188 96.800781 241.683594 C 96.71875 248.128906 108.820312 245.136719 112.433594 245.800781 C 111.15625 248.554688 104.394531 251.507812 101.628906 252.730469 C 97.71875 254.457031 94.222656 256.222656 92.246094 260.3125 C 90.097656 264.761719 92.335938 268.667969 92.15625 272.964844 C 92.015625 276.273438 92.914062 273.910156 94.320312 276.179688 C 95.332031 277.816406 93.796875 278.601562 92.726562 279.816406 C 88.394531 284.734375 94.90625 283.375 98.503906 283.578125 C 102.234375 283.785156 105.941406 285.421875 108.929688 287.460938 C 113.578125 290.632812 118.210938 294.214844 123.488281 296.273438 C 128.457031 298.210938 133.648438 298.824219 138.875 299.648438 C 138.902344 299.507812 138.925781 299.363281 138.953125 299.222656 C 138.21875 298.855469 137.480469 298.488281 136.375 297.9375 C 139.53125 297.167969 140.457031 297.097656 140.40625 293.828125 C 140.34375 289.78125 140.414062 286.605469 138.671875 282.824219 C 138.835938 282.671875 139 282.519531 139.167969 282.367188 C 142.15625 284.972656 142.84375 287.714844 142.945312 291.636719 C 143.035156 294.941406 143.8125 298.847656 142.601562 301.945312 C 143.847656 303.210938 145.390625 305.519531 147.265625 305.722656 C 149.199219 305.933594 151.445312 304.660156 153.601562 304.855469 C 158.597656 305.304688 163.5625 306.652344 168.53125 307.390625 C 178.320312 308.851562 189.40625 309.460938 199.269531 308.550781 C 208.863281 307.664062 218.535156 305.820312 227.925781 303.6875 C 237.015625 301.628906 246.0625 299.746094 254.664062 296.070312 C 262.320312 292.796875 268.636719 288.339844 274.230469 282.171875 C 279.058594 276.839844 285.839844 270.074219 286.144531 262.371094 C 286.390625 256.269531 282.058594 251.097656 276.941406 248.1875 Z M 270.074219 183.714844 C 271.007812 184.644531 273.535156 187.988281 272.816406 189.304688 C 271.707031 191.335938 268.394531 189.394531 267.558594 187.925781 C 267.011719 186.964844 267.417969 185.847656 266.808594 184.882812 C 265.925781 183.492188 263.960938 182.367188 262.714844 181.335938 C 265.445312 181.199219 268.09375 181.746094 270.074219 183.714844 Z M 275.90625 173.121094 C 274.574219 174.851562 269.902344 175.648438 267.460938 174.65625 C 269.375 172.351562 273.5625 171.65625 275.90625 173.121094 Z M 260.238281 166.941406 C 260.378906 167.027344 260.519531 167.117188 260.660156 167.203125 C 261.550781 169.964844 261.800781 172.371094 264.726562 170.828125 C 266.203125 170.046875 267.738281 168.578125 267.226562 166.753906 C 265.460938 167.027344 265.34375 164.632812 264.042969 163.398438 C 263.878906 163.546875 263.71875 163.691406 263.558594 163.839844 C 263.734375 164.429688 263.910156 165.015625 264.230469 166.089844 C 263.324219 165.503906 262.804688 165.164062 262.3125 164.847656 C 262.757812 162.71875 264.234375 161.390625 266.667969 162.484375 C 268.9375 163.503906 269.039062 166.53125 268.398438 168.699219 C 267.761719 170.839844 265.605469 173.070312 263.136719 172.703125 C 259.585938 172.171875 259.257812 169.601562 260.238281 166.941406 Z M 225.023438 155.65625 C 222.019531 155.480469 221.265625 154.464844 221.210938 150.640625 C 222.871094 152.140625 224.339844 153.476562 225.023438 155.65625 Z M 216.296875 166.949219 C 213.109375 166.472656 209.921875 165.996094 206.738281 165.515625 C 206.753906 165.253906 206.769531 164.992188 206.785156 164.726562 C 210.183594 164.007812 213.324219 164.9375 216.40625 166.230469 C 216.367188 166.46875 216.332031 166.710938 216.296875 166.949219 Z M 256.867188 163.957031 C 254.859375 162.183594 253.171875 160.695312 251.347656 159.089844 C 255.179688 156.496094 257.207031 160.714844 256.867188 163.957031 Z M 251.9375 164.5 C 252.214844 164.160156 252.484375 163.835938 252.8125 163.4375 C 253.253906 164.09375 253.652344 164.6875 254.152344 165.429688 C 254.582031 164.976562 254.910156 164.628906 255.242188 164.28125 C 255.347656 164.328125 255.453125 164.378906 255.558594 164.425781 C 255.082031 165.476562 254.605469 166.53125 254.097656 167.65625 C 252.019531 166.636719 249.789062 165.542969 247.554688 164.449219 C 249.160156 163.191406 250.667969 163.175781 251.9375 164.5 Z M 247.4375 148.167969 C 249.039062 151.003906 247.941406 154.164062 249.015625 156.921875 C 246.753906 155.894531 245.75 150.089844 247.4375 148.167969 Z M 249.433594 170.863281 C 249.054688 171.542969 248.664062 172.230469 248.203125 173.046875 C 246.328125 169.609375 243.546875 171.589844 241.074219 171.703125 C 242.253906 169.480469 246.550781 168.710938 249.433594 170.863281 Z M 244.859375 175.070312 C 245.027344 177.074219 247.070312 177.621094 244.164062 178.972656 C 242.34375 179.816406 240.734375 179.136719 239.945312 177.414062 C 238.945312 175.230469 239.90625 173.742188 241.8125 172.820312 C 243.988281 171.769531 245.480469 171.855469 246.695312 173.785156 C 243.515625 173.441406 241.957031 174.402344 241.890625 177.070312 C 242.789062 175.773438 243.339844 175.570312 244.859375 175.070312 Z M 248.824219 181.945312 C 247.410156 184.195312 241.539062 187.796875 239.269531 184.65625 C 236.769531 181.203125 246.765625 181.839844 248.824219 181.945312 Z M 250.214844 171.511719 C 250.660156 172.628906 252.613281 180.601562 249.449219 180.332031 C 246.972656 180.125 249.832031 172.554688 250.214844 171.511719 Z M 244.308594 167.546875 C 241.429688 169.265625 239.363281 170.007812 237.988281 173.246094 C 236.726562 176.21875 237.183594 178.683594 237.410156 181.761719 C 234.382812 178.6875 234.351562 175.410156 236.613281 171.871094 C 237.851562 169.9375 241.597656 166.277344 244.308594 167.546875 Z M 241.144531 165.621094 C 238.941406 166.9375 237.480469 168.109375 235.78125 170.011719 C 235.640625 169.921875 235.503906 169.828125 235.367188 169.734375 C 236.242188 167.871094 238.824219 164.785156 241.144531 165.621094 Z M 232.398438 161.390625 C 235.085938 159.984375 235.648438 163.210938 237.761719 164.378906 C 236.351562 165.050781 235.453125 164.410156 234.144531 164.988281 C 233.167969 165.417969 232.960938 166.808594 231.953125 167.226562 C 230.292969 165.625 230.113281 162.585938 232.398438 161.390625 Z M 221.214844 181.519531 C 216.019531 180.765625 215.957031 177.957031 217.53125 173.96875 L 217.945312 174.089844 C 218.050781 176.480469 217.902344 179.222656 220.394531 180.449219 C 222.035156 181.253906 224.285156 180.867188 225.328125 179.3125 C 226.148438 178.089844 226.230469 175.328125 224.691406 174.523438 C 223.394531 173.851562 221.816406 175.027344 220.679688 175.550781 C 221.75 176.390625 222.738281 177.171875 223.734375 177.957031 C 221.804688 181.5625 217.472656 177.472656 220.457031 174.328125 C 223.25 171.386719 226.28125 173.449219 227.535156 176.609375 C 229.007812 180.304688 224.515625 182 221.214844 181.519531 Z M 229.886719 193.242188 C 225.78125 196.386719 220.03125 187.929688 225.890625 187.351562 C 225.347656 189.261719 224.253906 189.871094 225.640625 191.714844 C 226.535156 192.898438 227.277344 193.335938 228.65625 192.640625 C 231.492188 191.210938 230.699219 185.8125 227.574219 185.332031 C 228.839844 183.804688 231.804688 183.984375 232.96875 185.78125 C 234.15625 187.625 231.480469 192.023438 229.886719 193.242188 Z M 235.148438 197.75 C 236.078125 200.65625 235.609375 201.535156 230.886719 203.082031 C 230.230469 199.417969 234.585938 193.304688 239.128906 191.519531 C 239.824219 193.300781 238.636719 195.160156 235.148438 197.75 Z M 250.007812 193.972656 C 250.140625 195.382812 250.222656 196.230469 250.351562 197.628906 C 248.792969 196.972656 247.71875 196.519531 246.71875 196.09375 C 247.003906 193.558594 248.894531 195.285156 250.007812 193.972656 Z M 242.25 188.203125 C 237.054688 187.789062 233.777344 183.703125 230.042969 180.429688 C 231.1875 178.285156 229.191406 178.058594 229.089844 176.378906 C 228.992188 174.757812 230.515625 173.59375 231.5 172.445312 C 232.320312 174.359375 228.589844 176.410156 233.359375 175.339844 C 233.988281 182.96875 239.636719 190.457031 247.878906 186.136719 C 251.695312 184.136719 253.421875 179.933594 253.222656 175.769531 C 252.960938 170.316406 250.671875 169.351562 245.847656 167.449219 C 247.886719 164.519531 255.359375 169.675781 256.109375 171.976562 C 257.144531 175.148438 254.535156 181.722656 252.355469 184.027344 C 253.125 183.722656 253.890625 183.417969 254.660156 183.117188 L 254.996094 183.429688 C 251.714844 187.175781 247.257812 188.601562 242.25 188.203125 Z M 256.285156 191.933594 C 255.667969 191.527344 251.347656 189.460938 252.5625 188.179688 C 253.550781 187.144531 257.828125 188.96875 258.585938 189.957031 C 257.910156 190.535156 257.296875 191.0625 256.285156 191.933594 Z M 101.027344 229.734375 C 104.679688 229.65625 106.839844 230.871094 107.902344 234.453125 C 105.4375 232.761719 103.394531 231.359375 101.027344 229.734375 Z M 98.503906 242.097656 C 100.851562 239.925781 104.644531 240.246094 106.214844 243.398438 C 103.394531 243.398438 100.632812 244.058594 98.503906 242.097656 Z M 116.804688 231.988281 C 116.128906 235.941406 115.789062 239.519531 113.851562 243.15625 C 113.035156 240.34375 114.859375 233 116.804688 231.988281 Z M 106.167969 251.988281 C 106.527344 252.609375 106.777344 253.042969 107.15625 253.695312 C 109.378906 250.695312 114.441406 245.09375 115.222656 251.816406 C 112.730469 248.617188 110.027344 254.628906 108.960938 256.199219 C 107.953125 255.429688 106.65625 254.433594 105.195312 253.3125 C 105.382812 253.054688 105.722656 252.59375 106.167969 251.988281 Z M 107.035156 256.839844 C 109.136719 258.652344 106.777344 259.652344 106.378906 261.214844 C 106.074219 262.425781 106.609375 263.574219 106.664062 264.808594 C 104.527344 264.859375 101.917969 263.9375 102.105469 261.28125 C 101.6875 259.230469 104.832031 254.941406 107.035156 256.839844 Z M 142.066406 259.546875 C 143.117188 259.738281 144.167969 259.929688 145.222656 260.121094 C 144.425781 260.867188 143.539062 261.695312 142.652344 262.523438 C 142.457031 262.523438 142.261719 262.523438 142.066406 262.523438 Z M 137.199219 259.300781 C 139.300781 260.28125 141.632812 261.390625 141.519531 264.027344 C 141.414062 266.46875 138.824219 267.957031 138.652344 270.394531 C 138.429688 273.578125 139.921875 273.574219 137.273438 276.175781 C 135.601562 277.816406 133.933594 279.503906 131.929688 280.746094 C 127.738281 283.34375 122.007812 284.484375 117.964844 281.667969 C 116.375 283.828125 114.929688 280.3125 113.902344 279.128906 C 112.082031 277.042969 111.4375 276.566406 112.703125 273.832031 C 113.550781 272.003906 114.734375 270.957031 116.050781 269.515625 C 117.128906 268.335938 117.34375 266.988281 118.3125 265.765625 C 120.375 263.167969 125.488281 261.960938 128.535156 262.96875 C 130.109375 263.484375 136.484375 269.566406 132.789062 271.210938 C 131.53125 271.769531 129.335938 266.457031 127.128906 265.945312 C 122.816406 264.949219 119.308594 268.300781 118.371094 272.1875 C 117.21875 276.980469 118.84375 280.671875 124.355469 280.71875 C 128.441406 280.757812 131.566406 277.375 133.929688 274.402344 C 134.523438 275.214844 134.972656 275.832031 135.421875 276.453125 C 135.5625 276.414062 135.703125 276.378906 135.84375 276.34375 C 135.671875 274.480469 134.871094 272.863281 134.660156 270.960938 C 134.445312 269.023438 134.453125 267.363281 133.421875 265.644531 C 131.132812 261.835938 127.570312 261.644531 123.601562 261.644531 C 123.363281 254.296875 133.816406 257.722656 137.199219 259.300781 Z M 115.082031 282.679688 C 111.746094 283.527344 112.273438 281.183594 109.742188 279.777344 C 111.367188 278.273438 114.398438 279.890625 115.082031 282.679688 Z M 126.011719 269.414062 C 124.027344 270.371094 123.367188 271.910156 122.191406 273.78125 C 117.996094 273.59375 124.847656 267.269531 126.921875 267.351562 C 131.410156 267.527344 131.726562 275.230469 126.394531 273.816406 C 126.484375 272.164062 126.503906 270.980469 126.011719 269.414062 Z M 132.105469 272.621094 C 133.042969 279.960938 117.832031 280.800781 118.90625 275.605469 C 124.070312 275.605469 128.980469 277.386719 132.105469 272.621094 Z M 133.574219 247.042969 C 135.160156 248.601562 134.984375 249.628906 132.671875 250.992188 C 133.023438 249.445312 133.289062 248.289062 133.574219 247.042969 Z M 124.199219 244.597656 C 126.15625 243.988281 129.835938 242.042969 131.699219 243.738281 C 134.046875 245.871094 129.789062 247.816406 128.160156 249.089844 C 126.363281 247.066406 129.226562 245.863281 128.609375 243.957031 C 125.75 245.246094 126.375 247.753906 125.738281 249.992188 C 125.34375 249.15625 124.945312 248.316406 124.546875 247.480469 C 124.390625 247.484375 124.234375 247.488281 124.078125 247.492188 C 123.972656 248.78125 123.863281 250.070312 123.75 251.445312 C 119.667969 251.621094 123.460938 246.269531 124.199219 244.597656 Z M 109.894531 267.566406 C 110.753906 268.226562 110.832031 270.425781 112.4375 269.457031 C 111.453125 265.914062 111.222656 263.390625 114.265625 260.714844 C 116.859375 258.4375 120.714844 256.910156 124.09375 256.910156 C 121.980469 260.867188 119.261719 263.753906 116.265625 267.128906 C 114.546875 269.066406 112.8125 270.40625 111.71875 272.839844 C 110.617188 275.285156 110.613281 276.898438 108.648438 278.753906 C 106.382812 274.746094 106.84375 270.863281 109.894531 267.566406 Z M 106.621094 269.386719 C 105.296875 271.78125 105.296875 271.78125 106.175781 274.570312 C 103.765625 274.089844 102.738281 273.296875 100.203125 273.296875 C 97.246094 268.8125 104.050781 269.386719 106.621094 269.386719 Z M 119.347656 291.121094 C 118.648438 290.753906 118.007812 290.300781 117.429688 289.765625 C 117.363281 289.945312 117.296875 290.128906 117.234375 290.308594 C 113.511719 289.453125 111.003906 287.460938 108.066406 285.128906 C 106.972656 284.257812 106.40625 283.761719 104.996094 283.410156 C 103.054688 282.925781 103.910156 284.414062 102.328125 282.945312 C 98.023438 278.945312 103.773438 273.929688 107.542969 279.167969 C 106.488281 281.691406 106.121094 282.050781 108.890625 283.109375 C 110.675781 283.789062 110.347656 283.515625 111.984375 284.550781 C 112.871094 285.109375 112.90625 285.335938 114.015625 285.464844 C 116.644531 285.761719 116.546875 284.40625 118.773438 286.476562 C 120.617188 288.1875 120.789062 288.9375 119.347656 291.121094 Z M 135.128906 280.269531 C 133.683594 288.066406 125.894531 287.113281 120.46875 284.914062 C 125.445312 284.054688 130.761719 284.3125 135.128906 280.269531 Z M 123.390625 293.554688 C 123.394531 293.261719 123.398438 292.96875 123.402344 292.675781 C 126.402344 291.695312 130.5625 291.066406 132.152344 288.527344 C 131.652344 287.984375 131.636719 287.460938 132.105469 286.960938 C 132.34375 286.753906 132.585938 286.550781 132.824219 286.347656 C 133.703125 285 135.378906 283.644531 136.476562 282.449219 C 136.476562 288.292969 132.128906 291.660156 134.601562 297.851562 C 130.53125 296.292969 126.960938 294.921875 123.390625 293.554688 Z M 137.121094 295.671875 C 132.835938 295.585938 137.003906 287.71875 137.78125 285.933594 C 137.996094 285.90625 138.210938 285.875 138.425781 285.84375 C 139.019531 287.875 141.023438 295.746094 137.121094 295.671875 Z M 157.328125 264.441406 C 160.796875 265.050781 162.578125 267.882812 162.597656 271.265625 C 162.613281 273.890625 160.136719 279.78125 156.539062 278.496094 C 152.296875 276.980469 159.386719 273 161.152344 272.535156 C 161.367188 270.789062 159.421875 269.484375 157.839844 268.597656 C 155.453125 267.257812 153.3125 268.730469 152.253906 271.398438 C 151.035156 267.773438 153.476562 263.761719 157.328125 264.441406 Z M 154.046875 270.683594 C 155.8125 269.65625 155.28125 273.140625 155.28125 273.898438 C 151.929688 275.9375 153.023438 271.273438 154.046875 270.683594 Z M 150.863281 265.871094 C 151.464844 271.382812 152.050781 275.765625 154.539062 280.625 C 151.421875 279.917969 146.304688 279.082031 146.210938 275.253906 C 146.152344 272.789062 147.441406 264.890625 150.863281 265.871094 Z M 144.910156 278.648438 C 145.019531 278.867188 145.128906 279.085938 145.238281 279.304688 C 144.9375 279.800781 144.636719 280.300781 144.132812 281.128906 C 146.144531 280.984375 147.191406 280.210938 149.28125 280.734375 C 151.113281 281.191406 152.703125 282.296875 154.550781 282.152344 C 159 281.8125 160.859375 278.601562 163.097656 275.289062 C 165.410156 277.03125 164.214844 280.46875 162.71875 282.554688 C 161.230469 284.632812 158.832031 284.933594 156.464844 285.21875 C 152.800781 285.660156 150.011719 285.109375 146.679688 283.5625 C 144.246094 282.429688 141.355469 280.648438 144.910156 278.648438 Z M 151.492188 291.449219 C 149.785156 293.667969 144.863281 289.507812 144.25 287.917969 C 145.523438 288.085938 153.710938 288.574219 151.492188 291.449219 Z M 144.46875 297.421875 C 146.125 299.355469 147.605469 301.082031 149.226562 302.976562 C 145.875 303.558594 144.113281 300.457031 144.46875 297.421875 Z M 280.230469 267.96875 C 275.675781 276.839844 267.449219 283.242188 259.285156 288.597656 C 247.070312 296.601562 232.933594 299.875 218.867188 302.960938 C 207.664062 305.421875 196.660156 305.484375 185.234375 305.464844 C 181.640625 305.457031 178.046875 305.804688 174.457031 305.5625 C 170.984375 305.328125 167.707031 304.382812 164.203125 304.1875 C 161.675781 304.042969 159.601562 303.058594 157.15625 302.679688 C 154.238281 302.226562 152.136719 300.460938 150.160156 298.359375 C 149.820312 298.953125 149.601562 299.328125 149.214844 300.003906 C 147.164062 297.296875 145.390625 294.714844 143.726562 291.75 C 146.757812 293.007812 149.023438 294.15625 151.628906 296.035156 C 153.074219 297.074219 156.464844 298.585938 158.167969 297.1875 C 160.378906 295.367188 156.757812 293.859375 155.402344 292.707031 C 153.636719 291.210938 152.613281 289.195312 151.390625 287.097656 C 152.90625 286.746094 153.914062 287.289062 155.449219 287.160156 C 156.945312 287.039062 158.140625 285.929688 159.648438 286.066406 C 160.042969 288.226562 160.972656 293.464844 164.40625 290.136719 C 165.953125 288.640625 164.292969 286.964844 165.429688 285.351562 C 168.160156 288.191406 170.292969 290.394531 165.488281 291.949219 C 161.394531 293.273438 159.359375 292.066406 157.050781 288.648438 C 155.6875 291.746094 158.933594 293.917969 160.753906 296.050781 C 163.558594 294.945312 169.179688 293.898438 169.746094 290.285156 C 170.328125 286.582031 166.707031 283.34375 163.226562 283.613281 C 163.855469 282.074219 165.105469 280.082031 165.324219 278.4375 C 165.542969 276.785156 164.898438 274.910156 164.753906 273.234375 L 165.730469 272.960938 C 166.441406 274.617188 166.953125 277.019531 168.605469 277.976562 C 170.304688 278.964844 174.753906 278.367188 176.835938 278.484375 C 182.585938 278.804688 188.332031 279.035156 194.082031 278.636719 C 198.929688 278.300781 203.351562 277.425781 208.007812 276.070312 C 212.292969 274.824219 216.121094 275.511719 220.34375 274.617188 C 225.402344 273.542969 230.296875 271.785156 235 269.660156 C 239.460938 267.640625 243.65625 264.699219 248.253906 263.054688 C 250.953125 262.089844 252.121094 261.6875 254.175781 259.703125 C 255.519531 258.40625 257.054688 257.195312 258.203125 255.710938 C 260.765625 252.414062 260.257812 249.753906 259.734375 245.875 C 266.152344 245.484375 274.558594 247.035156 278.785156 252.371094 C 282.917969 257.585938 283.246094 262.097656 280.230469 267.96875 Z M 280.230469 267.96875 " fill-opacity="1" fill-rule="nonzero"/></g><path fill="#000000" d="M 232.386719 106.527344 C 231.113281 106.640625 229.519531 107.53125 227.894531 108.484375 C 229.621094 108.074219 231.242188 107.554688 232.386719 106.527344 Z M 232.386719 106.527344 " fill-opacity="1" fill-rule="nonzero"/><path fill="#000000" d="M 227.894531 108.484375 C 225.511719 109.054688 222.9375 109.429688 221.167969 110.6875 C 222.789062 111.570312 225.382812 109.957031 227.894531 108.484375 Z M 227.894531 108.484375 " fill-opacity="1" fill-rule="nonzero"/><path fill="#000000" d="M 189.917969 80.007812 C 190.953125 79.847656 192.152344 79.484375 193.210938 79.496094 C 193.984375 79.503906 195.304688 79.914062 195.929688 79.765625 C 198.128906 79.242188 199.699219 76.648438 201.089844 75.003906 C 201.375 75.085938 201.664062 75.171875 201.949219 75.253906 C 202.15625 78.582031 200.882812 80.863281 199.042969 83.683594 C 197.335938 86.300781 195.148438 86.863281 192.21875 87.9375 C 189.949219 88.769531 187.113281 89.214844 185.679688 91.40625 C 184.707031 92.890625 183.914062 95.894531 186.253906 95.960938 C 189.242188 96.050781 188.246094 92.710938 189.574219 91.496094 C 191.578125 89.667969 192.371094 92.425781 191.644531 94.070312 C 189.664062 98.550781 184.671875 98.960938 182.996094 94.351562 C 180.335938 94.8125 177.835938 95.25 175.007812 95.742188 C 176.117188 96.75 176.972656 98.136719 178.214844 98.996094 C 179.496094 99.878906 180.859375 100.082031 181.898438 101.320312 C 184.035156 103.863281 181.785156 105.40625 179.761719 107.023438 C 181.496094 107.160156 182.808594 107.265625 184.125 107.371094 C 179.5625 108.832031 174.90625 108.597656 169.894531 108.460938 C 170.300781 110.65625 173.207031 119.542969 168.113281 115.496094 C 166.820312 114.472656 165.566406 112.25 163.664062 112.570312 C 161.984375 112.855469 160.585938 115.132812 158.90625 115.859375 C 156.929688 111.28125 159.832031 108.257812 163.15625 105.277344 C 163.097656 105.09375 163.039062 104.914062 162.976562 104.730469 C 157.5 104.414062 150.792969 102.59375 145.582031 104.753906 C 145.582031 109.269531 143.972656 117.863281 147.605469 120.984375 C 151.070312 123.964844 158.085938 124.355469 162.378906 125.449219 C 162.3125 125.691406 162.246094 125.933594 162.179688 126.175781 C 156.730469 124.738281 151.277344 123.304688 145.519531 121.785156 C 144.851562 135.222656 145.492188 148.472656 146.09375 161.890625 C 146.339844 167.300781 144.609375 173.332031 149.3125 177.335938 C 153.726562 181.09375 159.851562 182.988281 165.144531 185.085938 C 159.601562 186.582031 149.941406 181.601562 146.605469 177.089844 C 144.304688 173.972656 144.65625 170.367188 144.59375 166.664062 C 144.515625 162.296875 144.441406 157.925781 144.371094 153.558594 C 144.09375 137.027344 144.25 120.527344 144.25 103.996094 C 142.046875 104.269531 140.300781 104.519531 138.140625 104.058594 C 138.84375 101.796875 140.183594 101.058594 141.667969 99.203125 C 142.699219 97.910156 145.4375 96.40625 145.867188 94.828125 C 140.996094 94.828125 139.738281 93.554688 143.964844 90.394531 C 143.9375 90.171875 143.90625 89.949219 143.875 89.726562 C 141.449219 89.726562 135.921875 90.65625 136.851562 86.71875 C 137.53125 83.851562 141.335938 83.371094 143.683594 83.066406 C 142.261719 82.183594 141.792969 81.550781 140.972656 80.074219 C 139.339844 80.503906 138.574219 81.734375 136.808594 80.992188 C 135.125 80.285156 134.054688 77.730469 134.136719 76.039062 C 135.175781 77.195312 136.214844 78.347656 137.253906 79.503906 C 137.453125 79.34375 137.652344 79.183594 137.847656 79.023438 C 136.980469 77.808594 136.109375 76.597656 135.238281 75.382812 C 135.355469 75.246094 135.472656 75.109375 135.585938 74.972656 C 136.324219 75.398438 137.066406 75.824219 137.886719 76.296875 C 137.886719 74.308594 137.886719 72.457031 137.886719 70.535156 C 140.097656 70.292969 139.738281 73.460938 139.933594 74.886719 C 147.707031 73.027344 145.707031 80.113281 149.03125 84.441406 C 149.652344 81.320312 149.757812 76.996094 151.828125 74.515625 C 156.613281 78.917969 146.746094 87.324219 154.484375 89.726562 C 154.484375 86.636719 154.019531 85.394531 155.972656 82.933594 C 157.625 80.851562 158.625 78.300781 160.433594 81.304688 C 161.269531 75.605469 161.8125 70.425781 165.730469 66.460938 C 168.675781 71.90625 171.574219 77.269531 174.585938 82.835938 C 175.113281 82.65625 175.644531 82.472656 176.121094 82.308594 C 176.171875 81.234375 174.546875 79.921875 174.265625 78.597656 C 174.019531 77.445312 173.953125 75.527344 174.207031 74.375 C 175.070312 70.394531 177.84375 72.914062 180.207031 74.578125 C 182.511719 71.402344 184.964844 65.703125 189.050781 69.921875 C 191.980469 72.945312 190.9375 76.402344 189.917969 80.007812 Z M 171.480469 102.527344 C 169.277344 110.25 182.796875 104.554688 180.890625 101.851562 C 180.574219 101.398438 177.441406 100.488281 176.929688 100.710938 C 175.996094 101.128906 176.164062 102.121094 175.625 102.746094 C 173.898438 104.769531 172.933594 104.761719 171.429688 102.492188 C 172.832031 101.246094 174.234375 100.003906 175.636719 98.757812 C 174.082031 96.527344 171.644531 96.777344 169.539062 99.46875 C 170.167969 100.460938 170.824219 101.492188 171.480469 102.527344 Z M 184.863281 80.871094 C 188.300781 79.539062 191.5625 73.65625 188.195312 70.675781 C 183.601562 66.613281 181.996094 76.035156 182.265625 78.875 C 183.167969 78.035156 184.074219 77.195312 185.085938 76.25 C 186.542969 77.886719 184.488281 79.347656 184.863281 80.871094 Z M 159.097656 86.097656 C 160.265625 88.492188 162.324219 89.375 164.921875 89.109375 C 166.621094 88.933594 172.082031 87.101562 172.039062 84.996094 C 171.945312 80.433594 161.902344 82.046875 159.878906 84 C 160.386719 84.53125 160.894531 85.058594 161.71875 85.917969 C 160.507812 86 159.910156 86.042969 159.097656 86.097656 Z M 174.792969 93.136719 C 174.710938 92.875 174.625 92.613281 174.542969 92.351562 C 171.507812 92.351562 167.6875 93.707031 164.808594 93.066406 C 161.839844 92.410156 160.265625 91.390625 156.976562 91.519531 C 159.59375 93.679688 161.386719 95.53125 164.734375 95.265625 C 168.191406 94.988281 171.648438 94.652344 174.792969 93.136719 Z M 152.605469 96.019531 C 148.457031 94.894531 148.476562 98.792969 150.929688 100.785156 C 152.765625 102.273438 159.050781 104.289062 160.902344 101.558594 C 161.40625 100.8125 161.835938 99.132812 160.160156 98.921875 C 159.222656 98.804688 157.792969 101.210938 156.78125 101.425781 C 154.292969 101.953125 152.054688 98.503906 152.605469 96.019531 Z M 179.863281 93.488281 C 182.136719 91.640625 182.585938 89.804688 184.167969 87.46875 C 185.597656 85.351562 188.066406 83.824219 190.050781 82.273438 C 189.875 82.042969 189.695312 81.808594 189.519531 81.574219 C 187.613281 83.046875 185.703125 84.523438 183.320312 86.363281 C 183.570312 85.101562 183.707031 84.390625 183.816406 83.832031 C 182.519531 83.207031 181.3125 82.628906 180.054688 82.019531 C 183.660156 86.378906 183.550781 88.824219 179.863281 93.488281 Z M 176.6875 91.640625 C 176.890625 91.753906 177.09375 91.867188 177.300781 91.976562 C 178.128906 91.003906 179.96875 89.800781 180.476562 88.734375 C 180.945312 87.738281 180.355469 83.957031 179.285156 83.457031 C 176.757812 82.285156 177.21875 89.902344 176.6875 91.640625 Z M 178.53125 80.050781 C 179.863281 76.582031 179.765625 75.132812 176.101562 73.757812 C 174.835938 77.15625 175.269531 78.433594 178.53125 80.050781 Z M 138.328125 87.613281 C 140.863281 87.613281 143.257812 87.613281 145.839844 87.613281 C 143.433594 84.339844 140.253906 84.347656 138.328125 87.613281 Z M 145.792969 82.210938 C 145.792969 80.792969 145.652344 75.035156 142.769531 75.589844 C 139.617188 76.195312 145.050781 81.3125 145.792969 82.210938 Z M 147.859375 91.863281 C 149.007812 91.6875 149.945312 91.65625 151.089844 91.65625 C 151.316406 91.292969 151.605469 90.839844 151.804688 90.53125 C 150.96875 89.492188 150.207031 88.546875 149.707031 87.925781 C 149.117188 89.175781 148.566406 90.351562 147.859375 91.863281 Z M 154.035156 91.832031 C 153.890625 92.003906 153.75 92.175781 153.609375 92.351562 C 154.042969 94.90625 155.015625 95.527344 158.671875 95.371094 C 157.003906 94.097656 155.519531 92.964844 154.035156 91.832031 Z M 191.644531 86.769531 C 190.992188 86.035156 190.472656 85.453125 189.886719 84.792969 C 188.835938 85.78125 187.84375 86.710938 186.851562 87.644531 C 186.945312 87.8125 187.035156 87.980469 187.125 88.148438 C 188.605469 87.695312 190.085938 87.246094 191.644531 86.769531 Z M 174 86.25 C 172.597656 87.492188 171.175781 88.75 169.507812 90.230469 C 172.613281 90.523438 174.46875 88.445312 174 86.25 Z M 173.066406 83.554688 C 172.644531 80.527344 171.800781 79.980469 169.621094 81.183594 C 170.730469 81.949219 171.742188 82.644531 173.066406 83.554688 Z M 157.867188 86.574219 C 155.421875 87.363281 157.320312 90.324219 159.355469 89.019531 C 158.820312 88.140625 158.355469 87.375 157.867188 86.574219 Z M 159.652344 111.113281 C 161.492188 111.398438 162.6875 110.109375 162.859375 107.632812 C 161.871094 108.707031 160.882812 109.777344 159.652344 111.113281 Z M 163.53125 100.746094 C 164.65625 99.035156 164.449219 98.738281 161.820312 98.242188 C 162.460938 99.175781 162.96875 99.917969 163.53125 100.746094 Z M 163.53125 100.746094 " fill-opacity="1" fill-rule="nonzero"/><path fill="#000000" d="M 197.609375 191.691406 C 197.4375 190.894531 197.328125 190.375 197.167969 189.636719 C 196.210938 189.925781 193.6875 191.207031 192.6875 190.453125 C 191.585938 189.628906 192.480469 189.230469 192.003906 188.171875 C 191.230469 186.46875 188.253906 185.132812 188.867188 182.976562 C 190.015625 178.953125 203.097656 182.796875 202.984375 186.089844 C 206.363281 186.53125 209.464844 186.3125 212.191406 183.960938 C 209.925781 183.960938 205.050781 184.800781 203.421875 182.851562 C 201.980469 181.136719 202.773438 179.003906 204.558594 178.078125 C 208.738281 175.917969 214.246094 179.464844 216.425781 182.859375 C 216.285156 183.046875 216.140625 183.234375 216 183.425781 C 217.609375 183.425781 218.53125 183.261719 219.792969 184.234375 C 217.625 186.507812 215.105469 189.160156 212.578125 191.035156 C 208.703125 193.910156 209.367188 189.722656 209.664062 186.632812 C 205.804688 188.25 201.773438 189.945312 197.609375 191.691406 Z M 205.195312 180.691406 C 205.203125 180.957031 205.207031 181.226562 205.214844 181.492188 C 207.503906 181.492188 209.789062 181.492188 212.078125 181.492188 C 209.871094 179.8125 207.527344 180.363281 205.195312 180.691406 Z M 216.046875 185.742188 C 211.984375 184.605469 212.667969 188.402344 210.785156 189.242188 C 210.945312 189.433594 211.105469 189.625 211.269531 189.816406 C 212.761719 188.542969 214.257812 187.269531 216.046875 185.742188 Z M 197.023438 185.917969 C 197.132812 185.683594 197.238281 185.453125 197.34375 185.222656 C 195.816406 184.800781 194.292969 184.375 192.765625 183.953125 C 192.703125 184.175781 192.640625 184.398438 192.578125 184.621094 C 194.0625 185.050781 195.542969 185.484375 197.023438 185.917969 Z M 197.023438 185.917969 " fill-opacity="1" fill-rule="nonzero"/><path fill="#000000" d="M 127.875 185.175781 C 132.039062 185.101562 135.691406 189.476562 139.308594 191.144531 C 144.667969 193.621094 150.824219 194.851562 156.511719 196.351562 C 167.996094 199.386719 179.320312 200.671875 191.109375 201.921875 C 185.546875 203.183594 179.585938 202.132812 174 201.519531 C 167.929688 200.851562 161.878906 199.953125 155.941406 198.527344 C 150.429688 197.207031 145.53125 195.269531 140.445312 192.820312 C 136.222656 190.785156 129.792969 190.074219 127.875 185.175781 Z M 127.875 185.175781 " fill-opacity="1" fill-rule="nonzero"/><path fill="#000000" d="M 252.078125 150.238281 C 251.109375 145.894531 253.519531 142.347656 255.105469 138.484375 C 257.300781 138.988281 257.558594 141 258.324219 142.816406 C 259.765625 141.214844 261.890625 137.628906 264.335938 138.488281 C 266.933594 139.402344 266.542969 142.21875 264.652344 143.582031 C 262.914062 144.839844 260.296875 145 258.367188 146.089844 C 256.1875 147.324219 254.230469 148.9375 252.078125 150.238281 Z M 255.640625 139.742188 C 254.257812 142.09375 253.203125 144.320312 253.402344 147.117188 C 257.027344 143.667969 257.632812 141.875 255.640625 139.742188 Z M 259.804688 142.898438 C 259.9375 143.101562 260.070312 143.304688 260.203125 143.507812 C 262.53125 142.578125 264.132812 142.375 265.160156 140.089844 C 262.425781 139.660156 261.71875 141.019531 259.804688 142.898438 Z M 259.804688 142.898438 " fill-opacity="1" fill-rule="nonzero"/><path fill="#000000" d="M 185.964844 107.574219 C 195.859375 107.039062 205.175781 106.050781 214.941406 104.292969 C 215.03125 104.46875 216.722656 104.644531 216.8125 104.816406 C 212.867188 107.023438 207.644531 107.851562 203.234375 108.164062 C 198.378906 108.503906 191.289062 109.785156 186.679688 107.984375 C 186.734375 107.847656 185.914062 107.710938 185.964844 107.574219 Z M 185.964844 107.574219 " fill-opacity="1" fill-rule="nonzero"/><path fill="#000000" d="M 165.863281 186.285156 C 166.402344 184.546875 173.429688 186.753906 174.769531 186.957031 C 177.90625 187.4375 181.136719 187.890625 184.3125 187.953125 C 186.945312 188.007812 188.070312 186.765625 189.855469 188.519531 C 187.105469 190.730469 181.152344 189.371094 177.730469 189.019531 C 173.863281 188.621094 169.28125 188.339844 165.863281 186.285156 Z M 165.863281 186.285156 " fill-opacity="1" fill-rule="nonzero"/><path fill="#000000" d="M 149.089844 200.367188 C 140.769531 198.144531 133.105469 194.3125 125.621094 190.070312 C 133.441406 193.5 141.265625 196.933594 149.089844 200.367188 Z M 149.089844 200.367188 " fill-opacity="1" fill-rule="nonzero"/><path fill="#000000" d="M 150.082031 139.613281 C 157.484375 141.566406 165.160156 143.589844 172.28125 145.46875 C 169.527344 146.308594 151.261719 141.554688 150.082031 139.613281 Z M 150.082031 139.613281 " fill-opacity="1" fill-rule="nonzero"/><path fill="#000000" d="M 149.863281 208.171875 C 141.457031 205.878906 133.488281 200.675781 125.296875 195.917969 C 133.761719 200.140625 142.230469 204.363281 149.863281 208.171875 Z M 149.863281 208.171875 " fill-opacity="1" fill-rule="nonzero"/><path fill="#000000" d="M 192.867188 155.910156 C 201.128906 155.910156 209.390625 155.910156 217.289062 155.910156 C 214.917969 157.082031 198.117188 157.296875 192.867188 155.910156 Z M 192.867188 155.910156 " fill-opacity="1" fill-rule="nonzero"/><path fill="#000000" d="M 231.722656 250.714844 C 238.433594 248.417969 245.324219 246.054688 252.113281 243.726562 C 250.976562 245.613281 237.765625 250.167969 231.722656 250.714844 Z M 231.722656 250.714844 " fill-opacity="1" fill-rule="nonzero"/><path fill="#000000" d="M 182.210938 135.425781 C 175.273438 136.132812 168.578125 135.054688 161.941406 133.53125 C 168.695312 134.164062 175.453125 134.792969 182.210938 135.425781 Z M 182.210938 135.425781 " fill-opacity="1" fill-rule="nonzero"/><path fill="#000000" d="M 151.867188 217.910156 C 144.4375 215.472656 136.523438 212.996094 130.515625 208.679688 C 137.152344 211.550781 144.722656 214.820312 151.867188 217.910156 Z M 151.867188 217.910156 " fill-opacity="1" fill-rule="nonzero"/><path fill="#000000" d="M 254.164062 207.070312 C 249.210938 210.074219 243.839844 211.945312 238.125 212.882812 C 243.394531 210.800781 248.664062 208.71875 253.933594 206.636719 C 254.011719 206.78125 254.085938 206.925781 254.164062 207.070312 Z M 254.164062 207.070312 " fill-opacity="1" fill-rule="nonzero"/><path fill="#000000" d="M 153.675781 117.132812 C 159.472656 118.550781 165.265625 119.964844 171.0625 121.378906 C 171.011719 121.59375 170.960938 121.8125 170.910156 122.027344 C 165.113281 120.652344 159.3125 119.273438 153.515625 117.898438 C 153.570312 117.644531 153.621094 117.390625 153.675781 117.132812 Z M 153.675781 117.132812 " fill-opacity="1" fill-rule="nonzero"/><path fill="#000000" d="M 243.257812 260.25 C 238.183594 261.988281 233.109375 263.726562 228.035156 265.46875 C 227.980469 265.316406 227.925781 265.164062 227.871094 265.011719 C 232.882812 263.144531 237.898438 261.28125 242.910156 259.414062 C 243.027344 259.691406 243.140625 259.96875 243.257812 260.25 Z M 243.257812 260.25 " fill-opacity="1" fill-rule="nonzero"/><path fill="#000000" d="M 231.707031 214.585938 C 228.164062 216.582031 224.214844 217.238281 220.128906 217.214844 C 220.09375 217.050781 220.054688 216.886719 220.019531 216.722656 C 223.917969 216.011719 227.8125 215.300781 231.707031 214.585938 Z M 231.707031 214.585938 " fill-opacity="1" fill-rule="nonzero"/><path fill="#000000" d="M 156.011719 176.089844 C 160.058594 177.730469 164.105469 179.371094 168.152344 181.015625 C 168.09375 181.171875 168.035156 181.328125 167.972656 181.484375 C 163.894531 179.925781 159.8125 178.363281 155.730469 176.804688 C 155.824219 176.566406 155.917969 176.328125 156.011719 176.089844 Z M 156.011719 176.089844 " fill-opacity="1" fill-rule="nonzero"/><path fill="#000000" d="M 163.617188 173.28125 C 160.011719 171.65625 156.40625 170.03125 152.800781 168.402344 C 152.894531 168.191406 152.984375 167.976562 153.078125 167.765625 C 156.6875 169.351562 160.292969 170.933594 163.902344 172.519531 C 163.808594 172.773438 163.710938 173.027344 163.617188 173.28125 Z M 163.617188 173.28125 " fill-opacity="1" fill-rule="nonzero"/><path fill="#000000" d="M 256.195312 221.304688 C 253.800781 224.160156 250.308594 224.628906 247.207031 225.949219 C 247.121094 225.761719 247.039062 225.578125 246.953125 225.394531 C 250.035156 224.03125 253.113281 222.667969 256.195312 221.304688 Z M 256.195312 221.304688 " fill-opacity="1" fill-rule="nonzero"/><path fill="#000000" d="M 155.035156 246.554688 C 151.441406 245.566406 148.355469 244.71875 144.8125 243.742188 C 147.71875 243.273438 153.203125 244.734375 155.035156 246.554688 Z M 155.035156 246.554688 " fill-opacity="1" fill-rule="nonzero"/><path fill="#000000" d="M 218.925781 140.710938 C 222.832031 140.066406 226.375 139.480469 229.722656 138.925781 C 227.933594 140.457031 223.410156 141.304688 218.925781 140.710938 Z M 218.925781 140.710938 " fill-opacity="1" fill-rule="nonzero"/><path fill="#000000" d="M 152.085938 160.019531 C 155.601562 161.46875 159.121094 162.917969 162.636719 164.367188 C 162.574219 164.53125 162.515625 164.691406 162.453125 164.851562 C 158.910156 163.46875 155.363281 162.085938 151.820312 160.699219 C 151.910156 160.472656 151.996094 160.246094 152.085938 160.019531 Z M 152.085938 160.019531 " fill-opacity="1" fill-rule="nonzero"/><path fill="#000000" d="M 201.3125 269.175781 C 205.117188 268.886719 208.921875 268.59375 213 268.28125 C 211.058594 269.457031 207.4375 269.765625 201.3125 269.175781 Z M 201.3125 269.175781 " fill-opacity="1" fill-rule="nonzero"/><path fill="#000000" d="M 233.414062 131.757812 C 232.578125 132.988281 223.625 136.273438 221.269531 136.15625 C 225.203125 134.730469 229.4375 133.199219 233.414062 131.757812 Z M 233.414062 131.757812 " fill-opacity="1" fill-rule="nonzero"/><path fill="#000000" d="M 210.363281 141.992188 C 206.296875 142.1875 202.226562 142.382812 198.15625 142.578125 C 198.148438 142.371094 198.140625 142.164062 198.128906 141.953125 C 202.203125 141.953125 206.277344 141.953125 210.351562 141.953125 C 210.355469 141.964844 210.359375 141.980469 210.363281 141.992188 Z M 210.363281 141.992188 " fill-opacity="1" fill-rule="nonzero"/><path fill="#000000" d="M 253.300781 199.59375 C 250.882812 200.945312 248.460938 202.296875 246.039062 203.648438 C 245.894531 203.375 245.746094 203.101562 245.597656 202.828125 C 248.074219 201.578125 250.550781 200.328125 253.027344 199.078125 C 253.121094 199.25 253.210938 199.421875 253.300781 199.59375 Z M 253.300781 199.59375 " fill-opacity="1" fill-rule="nonzero"/><path fill="#000000" d="M 149.285156 145.832031 C 152.625 147.179688 155.964844 148.523438 159.308594 149.867188 C 159.253906 150 159.203125 150.136719 159.152344 150.269531 C 155.777344 148.96875 152.40625 147.667969 149.035156 146.367188 C 149.117188 146.191406 149.199219 146.011719 149.285156 145.832031 Z M 149.285156 145.832031 " fill-opacity="1" fill-rule="nonzero"/><path fill="#000000" d="M 178.964844 261.277344 C 182.007812 261.277344 185.050781 261.277344 188.09375 261.277344 C 185.058594 262.15625 182.019531 262.675781 178.964844 261.277344 Z M 178.964844 261.277344 " fill-opacity="1" fill-rule="nonzero"/><path fill="#000000" d="M 148.25 237.816406 C 151.777344 238.308594 155.308594 238.796875 158.835938 239.285156 C 158.808594 239.460938 158.78125 239.640625 158.753906 239.816406 C 155.207031 239.292969 151.660156 238.773438 148.113281 238.25 C 148.15625 238.105469 148.203125 237.960938 148.25 237.816406 Z M 148.25 237.816406 " fill-opacity="1" fill-rule="nonzero"/><path fill="#000000" d="M 204.660156 125.179688 C 206.941406 124.964844 209.222656 124.75 211.5 124.53125 C 211.523438 124.78125 211.542969 125.03125 211.566406 125.277344 C 209.277344 125.464844 206.984375 125.652344 204.695312 125.839844 C 204.683594 125.621094 204.671875 125.398438 204.660156 125.179688 Z M 204.660156 125.179688 " fill-opacity="1" fill-rule="nonzero"/><path fill="#000000" d="M 212.394531 236.390625 C 214.640625 236.148438 216.886719 235.90625 219.132812 235.660156 C 219.15625 235.925781 219.183594 236.191406 219.207031 236.457031 C 216.953125 236.636719 214.699219 236.8125 212.445312 236.992188 C 212.429688 236.792969 212.410156 236.589844 212.394531 236.390625 Z M 212.394531 236.390625 " fill-opacity="1" fill-rule="nonzero"/><path fill="#000000" d="M 174.292969 214.578125 C 171.421875 213.804688 168.554688 213.035156 165.6875 212.261719 C 165.71875 212.128906 165.753906 211.996094 165.789062 211.867188 C 168.65625 212.601562 171.523438 213.335938 174.390625 214.074219 C 174.359375 214.242188 174.324219 214.410156 174.292969 214.578125 Z M 174.292969 214.578125 " fill-opacity="1" fill-rule="nonzero"/><path fill="#000000" d="M 135.246094 69.363281 C 136.308594 70.929688 137.117188 71.632812 136.78125 73.480469 C 135.128906 72.425781 135.234375 71.523438 134.890625 69.5625 C 135.011719 69.496094 135.128906 69.429688 135.246094 69.363281 Z M 135.246094 69.363281 " fill-opacity="1" fill-rule="nonzero"/><path fill="#000000" d="M 179.59375 169.460938 C 177.433594 168.617188 175.269531 167.773438 173.105469 166.929688 C 173.167969 166.746094 173.234375 166.566406 173.296875 166.382812 C 175.464844 167.167969 177.628906 167.953125 179.796875 168.742188 C 179.730469 168.980469 179.664062 169.222656 179.59375 169.460938 Z M 179.59375 169.460938 " fill-opacity="1" fill-rule="nonzero"/><path fill="#000000" d="M 200.871094 213.023438 C 198.859375 213.023438 196.847656 213.023438 194.835938 213.023438 C 194.84375 212.785156 194.851562 212.550781 194.855469 212.3125 C 196.867188 212.410156 198.875 212.503906 200.886719 212.601562 C 200.878906 212.742188 200.875 212.882812 200.871094 213.023438 Z M 200.871094 213.023438 " fill-opacity="1" fill-rule="nonzero"/><path fill="#000000" d="M 233.070312 235.1875 C 230.867188 235.453125 228.664062 235.722656 226.464844 235.988281 C 226.441406 235.828125 226.421875 235.667969 226.402344 235.507812 C 228.605469 235.210938 230.804688 234.914062 233.007812 234.617188 C 233.027344 234.808594 233.046875 235 233.070312 235.1875 Z M 233.070312 235.1875 " fill-opacity="1" fill-rule="nonzero"/><path fill="#000000" d="M 228.171875 128.617188 C 225.605469 129.132812 223.042969 129.652344 220.476562 130.167969 C 220.449219 130.039062 220.425781 129.910156 220.398438 129.777344 C 222.964844 129.277344 225.535156 128.773438 228.101562 128.269531 C 228.125 128.382812 228.148438 128.5 228.171875 128.617188 Z M 228.171875 128.617188 " fill-opacity="1" fill-rule="nonzero"/><path fill="#000000" d="M 133.480469 240.367188 C 131.875 239.472656 130.265625 238.578125 128.660156 237.683594 C 128.71875 237.578125 128.773438 237.46875 128.832031 237.363281 C 130.457031 238.242188 132.082031 239.125 133.707031 240.007812 C 133.632812 240.128906 133.554688 240.246094 133.480469 240.367188 Z M 133.480469 240.367188 " fill-opacity="1" fill-rule="nonzero"/><path fill="#000000" d="M 240.582031 232.59375 C 242.265625 232.195312 243.945312 231.792969 245.628906 231.394531 C 245.660156 231.523438 245.691406 231.652344 245.722656 231.785156 C 244.042969 232.199219 242.367188 232.613281 240.6875 233.03125 C 240.652344 232.886719 240.617188 232.738281 240.582031 232.59375 Z M 240.582031 232.59375 " fill-opacity="1" fill-rule="nonzero"/><path fill="#000000" d="M 163.511719 83.449219 C 163.757812 84.113281 163.941406 84.605469 163.972656 84.695312 C 167.578125 84.335938 166.488281 86.570312 164.632812 88.628906 C 163.511719 87.414062 160.175781 84.519531 163.511719 83.449219 Z M 163.511719 83.449219 " fill-opacity="1" fill-rule="nonzero"/></svg>