<svg xmlns="http://www.w3.org/2000/svg" xmlns:xlink="http://www.w3.org/1999/xlink" width="500" zoomAndPan="magnify" viewBox="0 0 375 374.999991" height="500" preserveAspectRatio="xMidYMid meet" version="1.0"><defs><filter x="0%" y="0%" width="100%" height="100%" id="d83a82dd60"><feColorMatrix values="0 0 0 0 1 0 0 0 0 1 0 0 0 0 1 0 0 0 1 0" color-interpolation-filters="sRGB"/></filter><mask id="1dfc1abba7"><g filter="url(#d83a82dd60)"><rect x="-37.5" width="450" fill="#000000" y="-37.499999" height="449.999989" fill-opacity="0.2"/></g></mask><clipPath id="6c175dadde"><path d="M 0.398438 4.0625 L 345 4.0625 L 345 289 L 0.398438 289 Z M 0.398438 4.0625 " clip-rule="nonzero"/></clipPath><clipPath id="8cbe86f6b3"><rect x="0" width="347" y="0" height="291"/></clipPath><clipPath id="0daa3e1bea"><path d="M 37.5 109.4375 L 337.5 109.4375 L 337.5 265.4375 L 37.5 265.4375 Z M 37.5 109.4375 " clip-rule="nonzero"/></clipPath><clipPath id="aac207073b"><path d="M 153 153 L 222.984375 153 L 222.984375 222.335938 L 153 222.335938 Z M 153 153 " clip-rule="nonzero"/></clipPath></defs><g mask="url(#1dfc1abba7)"><g transform="matrix(1, 0, 0, 1, 14, 40)"><g clip-path="url(#8cbe86f6b3)"><g clip-path="url(#6c175dadde)"><path fill="#000000" d="M 24.234375 230.726562 C 32.84375 239.261719 42.089844 247.027344 51.976562 254.035156 C 61.867188 261.042969 72.261719 267.191406 83.164062 272.484375 C 121.105469 291.03125 145.164062 286.617188 163.285156 287.925781 C 168.46875 288.449219 173.609375 288.199219 178.71875 287.175781 C 183.824219 286.152344 188.664062 284.398438 193.246094 281.917969 C 218.152344 268.246094 226.769531 266.128906 239.171875 246.589844 C 259.378906 213.734375 272.589844 206.777344 302.335938 184.238281 C 314.949219 174.699219 322.792969 169.753906 332.894531 157.671875 C 347.203125 140.535156 348.511719 114.144531 337.101562 94.078125 C 316.785156 58.257812 305.90625 37.449219 274.144531 22.082031 C 252.277344 11.695312 223.132812 4.699219 206.5625 4.417969 C 204.914062 4.398438 203.269531 4.441406 201.625 4.539062 C 199.980469 4.636719 198.339844 4.792969 196.707031 5.007812 C 195.074219 5.222656 193.449219 5.492188 191.835938 5.820312 C 190.21875 6.148438 188.621094 6.535156 187.03125 6.976562 C 185.445312 7.414062 183.875 7.910156 182.320312 8.464844 C 180.769531 9.015625 179.238281 9.621094 177.726562 10.277344 C 176.21875 10.9375 174.734375 11.648438 173.273438 12.414062 C 171.8125 13.175781 170.382812 13.992188 168.980469 14.855469 C 167.578125 15.71875 166.207031 16.632812 164.867188 17.59375 C 163.527344 18.554688 162.226562 19.5625 160.957031 20.613281 C 159.691406 21.667969 158.460938 22.761719 157.269531 23.902344 C 156.082031 25.039062 154.933594 26.21875 153.824219 27.441406 C 152.71875 28.660156 151.652344 29.917969 150.636719 31.210938 C 149.617188 32.507812 148.644531 33.835938 147.71875 35.199219 C 146.792969 36.5625 145.917969 37.957031 145.089844 39.378906 C 144.261719 40.804688 143.484375 42.257812 142.761719 43.738281 C 132.164062 64.332031 128.628906 83.234375 99.519531 98.636719 C 77.863281 110.152344 64.191406 107.679688 27.0625 132.726562 C 21.996094 136.195312 17.285156 140.09375 12.929688 144.421875 C 0.566406 156.820312 -1.449219 175.898438 2.296875 192.148438 C 3.152344 195.808594 4.265625 199.386719 5.632812 202.882812 C 7.003906 206.378906 8.617188 209.761719 10.476562 213.027344 C 12.332031 216.292969 14.414062 219.40625 16.71875 222.371094 C 19.023438 225.339844 21.527344 228.125 24.234375 230.726562 Z M 24.234375 230.726562 " fill-opacity="1" fill-rule="nonzero"/></g></g></g></g><g clip-path="url(#0daa3e1bea)"><path fill="#000000" d="M 110.292969 188.648438 C 110.855469 191.773438 112.304688 193.964844 113.871094 194.945312 C 114.761719 195.503906 115.628906 195.601562 116.253906 195.21875 C 117.167969 194.648438 117.566406 193.085938 117.347656 190.933594 C 117.039062 187.910156 116.164062 186.363281 114.742188 186.34375 C 114.730469 186.34375 114.71875 186.34375 114.707031 186.34375 C 113.503906 186.34375 111.988281 187.199219 110.292969 188.648438 Z M 271.523438 199.464844 C 270.773438 199.464844 269.875 200.019531 269.445312 200.78125 C 269.136719 201.332031 268.960938 202.191406 269.859375 203.175781 C 270.472656 203.847656 271.496094 204.027344 272.808594 203.890625 C 272.808594 202.5 272.765625 201.410156 272.671875 200.691406 C 272.582031 199.992188 272.285156 199.585938 271.785156 199.492188 C 271.703125 199.472656 271.613281 199.464844 271.523438 199.464844 Z M 87.96875 206.46875 C 87.878906 208.417969 87.910156 209.855469 88.144531 210.335938 C 88.285156 210.625 88.414062 210.621094 88.464844 210.621094 C 88.808594 210.613281 89.378906 210.136719 89.683594 209.4375 C 89.855469 209.035156 90.066406 208.265625 89.519531 207.652344 C 89.042969 207.121094 88.523438 206.730469 87.96875 206.46875 Z M 114.03125 202 C 113.984375 202 113.9375 202.003906 113.894531 202.015625 C 113.359375 202.136719 112.855469 203.117188 113.011719 204.976562 C 113.21875 207.472656 119.199219 221.554688 130.886719 234.496094 C 141.578125 246.328125 159.925781 260.378906 186.742188 260.378906 C 186.933594 260.378906 187.125 260.378906 187.316406 260.375 C 210.351562 260.203125 228.210938 251.921875 240.402344 235.765625 C 240.578125 235.53125 240.753906 235.292969 240.929688 235.058594 C 235.875 239.65625 230.574219 243.5625 225.074219 246.734375 C 213.160156 253.605469 200.335938 257 186.921875 256.820312 C 176.097656 256.675781 165.792969 254.113281 156.300781 249.203125 C 148.585938 245.210938 141.367188 239.660156 134.855469 232.703125 C 122.171875 219.160156 116.792969 205.390625 116.738281 205.25 C 115.804688 202.824219 114.664062 202 114.03125 202 Z M 95.210938 208.019531 C 90.695312 215.085938 87.261719 221.378906 87.140625 222.3125 C 86.6875 226.375 84.238281 260.417969 84.929688 262.492188 C 85.039062 262.820312 86.226562 263.464844 88.949219 263.808594 C 93.6875 264.40625 98.800781 263.710938 99.675781 262.351562 C 99.921875 261.964844 100.570312 259.066406 98.535156 237.894531 C 97.421875 226.308594 95.957031 213.992188 95.535156 210.808594 C 95.4375 210.101562 95.328125 209.148438 95.210938 208.019531 Z M 274.046875 204.972656 C 273.925781 214.355469 272.363281 233.832031 271.265625 247.527344 C 270.621094 255.535156 270.113281 261.859375 270.152344 262.925781 C 270.15625 263 270.457031 263.367188 271.796875 263.675781 C 276.546875 264.773438 285.523438 263.78125 286.191406 262.699219 C 286.183594 260.285156 285.15625 255.335938 283.96875 249.609375 C 283.125 245.542969 282.171875 240.933594 281.378906 236.300781 C 278.960938 222.152344 278.773438 214.753906 278.773438 212.820312 C 278.773438 211.984375 279.730469 211.84375 281.640625 211.566406 C 283.628906 211.277344 286.632812 210.839844 287.449219 209.613281 C 287.960938 208.84375 288.414062 205.605469 288.683594 200.523438 C 285.902344 201.183594 283.167969 202.121094 280.621094 203 C 278.160156 203.847656 275.933594 204.613281 274.046875 204.972656 Z M 277.039062 265.390625 C 273.695312 265.390625 268.972656 265.027344 268.902344 262.972656 C 268.863281 261.828125 269.347656 255.789062 270.019531 247.425781 C 271.109375 233.816406 272.660156 214.472656 272.796875 205.152344 C 271.160156 205.300781 269.84375 205.015625 268.933594 204.019531 C 267.855469 202.835938 267.644531 201.433594 268.355469 200.167969 C 269.097656 198.84375 270.710938 198.007812 272.023438 198.261719 C 273.066406 198.464844 273.753906 199.292969 273.914062 200.53125 C 274.007812 201.253906 274.050781 202.328125 274.054688 203.695312 C 275.816406 203.328125 277.941406 202.597656 280.214844 201.816406 C 282.828125 200.917969 285.734375 199.917969 288.742188 199.238281 C 289.089844 191.375 289.011719 179.683594 288.125 166.109375 C 287.351562 154.292969 285.351562 141.085938 282.636719 129.875 C 279.632812 117.472656 276.894531 111.964844 275.328125 110.941406 C 275.011719 110.734375 274.855469 110.792969 274.804688 110.8125 C 274.6875 110.894531 273.964844 111.683594 273.4375 118.023438 C 273.109375 121.953125 272.902344 127.488281 272.820312 134.472656 C 272.671875 147.242188 272.953125 162.171875 273.160156 173.078125 C 273.300781 180.449219 273.394531 185.320312 273.292969 186.382812 C 273.117188 188.277344 266.53125 205.867188 251.90625 223.511719 C 249.722656 226.144531 247.476562 228.632812 245.175781 230.96875 C 244.027344 232.84375 242.773438 234.703125 241.398438 236.519531 C 235.644531 244.148438 228.515625 250.136719 220.210938 254.320312 C 210.765625 259.078125 199.703125 261.535156 187.324219 261.625 C 187.128906 261.628906 186.925781 261.628906 186.730469 261.628906 C 134.304688 261.632812 112.148438 209.6875 111.761719 205.078125 C 111.53125 202.285156 112.566406 201.035156 113.613281 200.796875 C 115.152344 200.441406 116.832031 202.019531 117.90625 204.804688 C 117.957031 204.9375 123.25 218.480469 135.769531 231.847656 C 142.183594 238.699219 149.285156 244.167969 156.875 248.09375 C 166.195312 252.910156 176.308594 255.425781 186.9375 255.570312 C 200.109375 255.746094 212.734375 252.410156 224.453125 245.652344 C 231.375 241.65625 237.988281 236.476562 244.183594 230.195312 C 253.144531 215.507812 255.476562 199.597656 256.046875 190.832031 C 256.21875 188.199219 256.550781 178.691406 253.632812 166.851562 C 250.632812 154.691406 245.328125 144.460938 237.867188 136.453125 C 225.777344 123.46875 208.375 116.824219 186.148438 116.691406 C 170.972656 116.597656 157.628906 119.714844 146.492188 125.941406 C 137.417969 131.015625 129.742188 138.175781 123.675781 147.226562 C 112.507812 163.890625 110.359375 181.804688 110.152344 183.796875 C 110.023438 185.023438 110.015625 186.175781 110.105469 187.238281 C 111.804688 185.898438 113.378906 185.09375 114.710938 185.09375 C 114.71875 185.09375 114.71875 185.09375 114.726562 185.09375 C 116.90625 185.101562 118.207031 187.023438 118.59375 190.808594 C 118.964844 194.429688 117.699219 195.789062 116.914062 196.28125 C 115.871094 196.925781 114.519531 196.828125 113.207031 196.007812 C 111.523438 194.953125 109.953125 192.734375 109.222656 189.617188 C 105.214844 193.441406 100.40625 200.050781 96.296875 206.339844 C 96.476562 208.144531 96.640625 209.640625 96.773438 210.644531 C 97.199219 213.835938 98.664062 226.171875 99.78125 237.773438 C 102.015625 261.023438 101.078125 262.480469 100.726562 263.027344 C 99.277344 265.277344 92.875 265.5625 88.792969 265.050781 C 85.792969 264.671875 84.09375 263.945312 83.742188 262.886719 C 82.890625 260.332031 85.59375 224.90625 85.898438 222.175781 C 86.042969 220.867188 90.222656 213.34375 95.003906 205.976562 C 94.113281 196.824219 92.859375 180.578125 92.800781 178.292969 C 92.714844 174.96875 94.113281 173.15625 95.59375 171.238281 C 96.433594 170.148438 97.304688 169.023438 97.960938 167.535156 C 98.515625 166.28125 98.816406 155.628906 98.644531 143.285156 C 98.460938 130.28125 97.867188 122.128906 97.3125 119.933594 C 97.078125 120.539062 96.730469 122 96.5 125.535156 C 96.28125 128.949219 96.21875 133.246094 96.160156 137.402344 C 96.03125 146.835938 95.886719 150.761719 95.003906 151.605469 C 94.828125 151.773438 94.613281 151.859375 94.378906 151.855469 C 92.800781 151.804688 92.585938 148.550781 92.566406 135.640625 C 92.558594 130.234375 92.546875 122.300781 91.886719 120.285156 C 91.203125 122.457031 91.027344 131.109375 90.90625 137.003906 C 90.683594 147.984375 90.496094 151.285156 89.6875 152.003906 C 89.515625 152.15625 89.300781 152.230469 89.078125 152.207031 C 87.183594 152.027344 86.984375 147.058594 86.964844 134.902344 C 86.957031 129.585938 86.941406 121.753906 86.210938 120 C 85.503906 122.003906 85.402344 130.925781 85.332031 136.972656 C 85.21875 147.0625 85.085938 151.25 84.25 152.046875 C 84.085938 152.203125 83.878906 152.285156 83.664062 152.277344 C 81.964844 152.214844 81.691406 148.515625 81.570312 134.878906 C 81.527344 129.609375 81.464844 122.632812 80.925781 120.410156 C 79.558594 126.132812 79.859375 162.046875 81.460938 167.613281 C 81.664062 168.320312 82.722656 169.03125 83.949219 169.851562 C 86.445312 171.53125 89.867188 173.828125 90.15625 178.757812 C 90.332031 181.800781 89.675781 188.148438 89.039062 194.289062 C 88.667969 197.882812 88.246094 201.960938 88.042969 205.125 C 88.90625 205.445312 89.710938 205.996094 90.449219 206.816406 C 91.179688 207.632812 91.324219 208.800781 90.832031 209.933594 C 90.34375 211.058594 89.382812 211.851562 88.496094 211.871094 C 87.882812 211.894531 87.332031 211.527344 87.019531 210.886719 C 86.679688 210.1875 86.609375 208.5625 86.734375 206.085938 C 83.523438 205.566406 79.390625 208.117188 75.066406 210.78125 C 71.578125 212.933594 67.96875 215.152344 64.601562 215.898438 C 54.101562 218.214844 47.351562 214.855469 43.535156 211.628906 C 39.402344 208.128906 37.78125 204.128906 37.714844 203.960938 C 37.589844 203.640625 37.746094 203.273438 38.066406 203.148438 C 38.386719 203.019531 38.75 203.175781 38.878906 203.496094 C 38.894531 203.535156 40.472656 207.414062 44.386719 210.707031 C 49.617188 215.109375 56.324219 216.441406 64.328125 214.675781 C 67.496094 213.980469 71.011719 211.8125 74.410156 209.714844 C 78.734375 207.054688 83.164062 204.324219 86.804688 204.816406 C 86.988281 202.078125 87.34375 198.503906 87.792969 194.160156 C 88.425781 188.070312 89.078125 181.773438 88.90625 178.832031 C 88.652344 174.519531 85.65625 172.507812 83.25 170.890625 C 81.824219 169.933594 80.589844 169.105469 80.261719 167.960938 C 79.382812 164.917969 78.894531 152.632812 78.8125 142.511719 C 78.757812 136.082031 78.785156 120.917969 80.160156 119.003906 C 80.386719 118.6875 80.65625 118.613281 80.84375 118.601562 C 81.023438 118.597656 81.28125 118.636719 81.53125 118.871094 C 82.582031 119.867188 82.730469 124.511719 82.824219 134.867188 C 82.871094 140.242188 82.9375 148.035156 83.574219 150.425781 C 83.953125 148.222656 84.023438 142.058594 84.082031 136.957031 C 84.257812 121.652344 84.601562 118.546875 86.132812 118.496094 C 86.335938 118.488281 86.621094 118.535156 86.898438 118.804688 C 88.128906 119.992188 88.199219 125.695312 88.214844 134.898438 C 88.222656 138.710938 88.226562 142.652344 88.394531 145.691406 C 88.546875 148.554688 88.8125 149.875 89.015625 150.484375 C 89.425781 148.40625 89.550781 142.144531 89.65625 136.980469 C 89.890625 125.519531 90.121094 120.003906 91.222656 118.957031 C 91.464844 118.726562 91.710938 118.683594 91.886719 118.691406 C 93.558594 118.738281 93.800781 122.34375 93.816406 135.640625 C 93.824219 140.859375 93.835938 147.757812 94.355469 150.011719 C 94.761719 147.9375 94.84375 142.160156 94.910156 137.382812 C 95.113281 122.867188 95.488281 118.34375 97.4375 118.300781 C 97.589844 118.296875 97.914062 118.34375 98.160156 118.714844 C 99.476562 120.691406 99.820312 138.050781 99.894531 143.324219 C 100 151.015625 99.972656 166.078125 99.105469 168.042969 C 98.386719 169.667969 97.46875 170.855469 96.585938 172 C 95.183594 173.816406 93.976562 175.382812 94.050781 178.257812 C 94.109375 180.410156 95.226562 195.015625 96.101562 204.304688 C 96.457031 203.769531 96.8125 203.238281 97.171875 202.710938 C 100.703125 197.519531 105.070312 191.683594 108.960938 188.203125 C 108.769531 186.828125 108.734375 185.308594 108.90625 183.664062 C 109.121094 181.644531 111.300781 163.445312 122.640625 146.53125 C 128.816406 137.3125 136.636719 130.019531 145.878906 124.851562 C 157.210938 118.519531 170.773438 115.359375 186.15625 115.441406 C 208.738281 115.574219 226.445312 122.355469 238.785156 135.597656 C 246.394531 143.765625 251.796875 154.183594 254.847656 166.554688 C 257.808594 178.566406 257.46875 188.234375 257.292969 190.914062 C 256.773438 198.921875 254.796875 212.824219 247.75 226.40625 C 248.828125 225.210938 249.894531 223.980469 250.941406 222.710938 C 265.136719 205.585938 271.882812 188.03125 272.046875 186.265625 C 272.140625 185.269531 272.039062 179.902344 271.910156 173.101562 C 271.699219 162.035156 271.414062 146.878906 271.578125 133.996094 C 271.835938 113.386719 273.078125 110.109375 274.378906 109.636719 C 274.742188 109.503906 275.316406 109.441406 276.011719 109.894531 C 281.023438 113.167969 287.765625 141.496094 289.371094 166.027344 C 290.171875 178.261719 290.359375 190.441406 290.007812 198.976562 C 296.59375 197.71875 303.550781 198.253906 308.972656 204.890625 C 317.347656 215.148438 324.46875 219.941406 329.554688 218.761719 C 334.53125 217.605469 336.109375 211.058594 336.125 210.992188 C 336.203125 210.652344 336.539062 210.445312 336.875 210.523438 C 337.210938 210.601562 337.421875 210.9375 337.34375 211.273438 C 337.273438 211.570312 335.582031 218.640625 329.84375 219.976562 C 329.234375 220.121094 328.601562 220.191406 327.953125 220.191406 C 322.574219 220.191406 315.878906 215.324219 308.003906 205.683594 C 302.871094 199.398438 296.332031 198.953125 289.949219 200.246094 C 289.6875 205.566406 289.191406 209.257812 288.488281 210.308594 C 287.363281 211.996094 284.160156 212.460938 281.820312 212.804688 C 281.171875 212.898438 280.394531 213.011719 280.023438 213.117188 C 280.042969 215.070312 280.289062 222.515625 282.613281 236.089844 C 283.398438 240.703125 284.351562 245.300781 285.195312 249.355469 C 286.449219 255.417969 287.445312 260.207031 287.445312 262.734375 C 287.445312 265.035156 280.121094 265.34375 277.878906 265.382812 C 277.613281 265.386719 277.328125 265.390625 277.039062 265.390625 " fill-opacity="1" fill-rule="nonzero"/></g><g clip-path="url(#aac207073b)"><path fill="#000000" d="M 191.371094 178.617188 C 191.109375 179.546875 190.867188 180.488281 190.589844 181.410156 C 190.191406 180.253906 189.773438 179.101562 189.292969 177.96875 C 186.886719 172.300781 183.507812 164.230469 179.335938 159.742188 C 177.320312 157.574219 174.546875 154.949219 171.6875 154.007812 C 167.375 152.585938 163.675781 154.328125 160.945312 157.359375 C 159.917969 158.503906 159.03125 159.828125 158.304688 161.226562 C 157.578125 161.867188 156.882812 162.628906 156.226562 163.519531 C 151.75 169.613281 153.324219 179.179688 156.628906 185.464844 C 159.964844 191.8125 168.835938 201.3125 177.761719 209.015625 C 180.699219 212.378906 183.882812 215.503906 187.65625 218.09375 C 188.839844 218.902344 190.550781 220.3125 192.292969 221.238281 C 193.578125 221.921875 194.890625 222.335938 196.039062 222.179688 C 196.308594 222.140625 196.65625 221.992188 197.046875 221.703125 C 197.703125 221.214844 198.578125 220.28125 199.542969 219.113281 C 202.625 215.375 206.683594 209.160156 207.292969 208.207031 C 214.472656 196.949219 222.972656 183.273438 222.542969 169.371094 C 222.460938 166.726562 222.328125 163.5 221.441406 160.679688 C 220.820312 158.707031 219.832031 156.929688 218.277344 155.636719 C 217.894531 155.316406 217.480469 155.046875 217.039062 154.820312 C 216.640625 154.554688 216.222656 154.335938 215.792969 154.152344 C 213.601562 153.214844 211.054688 153.300781 208.480469 154.078125 C 203.523438 155.578125 198.460938 159.648438 195.792969 163.410156 C 193.183594 167.082031 191.695312 173.929688 191.371094 178.617188 Z M 197.824219 217.628906 C 199.15625 215.078125 200.410156 212.484375 201.84375 209.984375 C 207.75 199.703125 213.878906 189.621094 217.835938 178.359375 C 218.960938 175.171875 220.273438 170.867188 220.320312 166.828125 C 220.351562 164.242188 219.863281 161.769531 218.40625 159.808594 C 217.3125 158.328125 215.660156 157.902344 213.945312 157.980469 C 212.085938 158.066406 210.152344 158.738281 208.644531 159.460938 C 201.074219 163.089844 196.382812 169.578125 195.027344 177.839844 C 194.511719 181.003906 194.328125 185.066406 192.515625 187.8125 C 192.328125 188.09375 192.105469 188.164062 191.949219 188.183594 C 191.738281 188.210938 191.535156 188.164062 191.347656 187.996094 C 191.257812 187.917969 191.148438 187.773438 191.074219 187.558594 C 190.992188 187.304688 190.941406 186.800781 190.855469 186.570312 C 190.703125 186.144531 190.550781 185.71875 190.40625 185.289062 C 190.191406 185.382812 189.976562 185.375 189.757812 185.242188 C 189.691406 185.203125 189.425781 184.789062 189.425781 184.789062 C 189.425781 184.789062 189.449219 184.847656 189.457031 184.867188 C 189.183594 184.316406 188.980469 183.722656 188.78125 183.140625 C 188.355469 181.898438 187.90625 180.679688 187.355469 179.488281 C 185.777344 176.066406 183.851562 172.769531 181.644531 169.71875 C 178.914062 165.941406 174.519531 162.210938 169.914062 160.644531 C 168.023438 160 166.09375 159.726562 164.238281 159.988281 C 162.964844 160.808594 161.929688 162.046875 161.125 163.539062 C 159.304688 166.902344 158.65625 171.542969 159.195312 175.867188 C 160.203125 183.976562 165.273438 191.15625 170.191406 197.339844 C 170.777344 198.074219 171.355469 198.808594 171.929688 199.546875 C 172.378906 199.9375 172.839844 200.34375 173.3125 200.769531 C 176.621094 203.746094 179.535156 207.109375 182.882812 210.066406 C 184.167969 211.203125 186.671875 213.847656 189.316406 216.167969 C 191.265625 217.460938 193.074219 218.519531 194.667969 219.273438 C 194.972656 219.417969 195.125 219.75 195.058594 220.066406 C 195.40625 220.175781 195.734375 220.234375 196.035156 220.222656 C 196.179688 220.042969 196.492188 219.636719 196.773438 219.222656 C 197.078125 218.773438 197.4375 218.234375 197.824219 217.628906 Z M 218.984375 182.890625 C 215.402344 192.433594 209.523438 201.820312 205.277344 208.300781 C 205.03125 208.671875 203.929688 210.488281 202.601562 212.65625 C 204.332031 210.175781 205.765625 207.976562 206.105469 207.445312 C 210.792969 200.09375 216.09375 191.703125 218.984375 182.890625 Z M 169.171875 199.027344 C 170.011719 199.894531 170.878906 200.761719 171.761719 201.621094 L 171.207031 200.914062 L 170.902344 200.523438 C 170.304688 200 169.726562 199.503906 169.171875 199.027344 Z M 157.933594 177.007812 C 157.957031 177.210938 157.976562 177.414062 158 177.613281 C 158.988281 187.128906 161.792969 190.742188 166.585938 194.972656 C 162.609375 189.617188 159.011719 183.613281 157.933594 177.007812 Z M 156.632812 165.484375 C 156.40625 166.316406 156.234375 167.140625 156.128906 167.929688 C 155.710938 171.078125 156.269531 174.613281 156.597656 177.761719 C 156.890625 180.605469 157.339844 182.945312 157.945312 184.9375 L 157.875 184.804688 C 154.992188 179.320312 153.402344 171.160156 156.632812 165.484375 Z M 191.410156 183.402344 L 191.414062 183.414062 L 191.414062 183.386719 Z M 194.214844 174.882812 C 193.929688 175.558594 193.667969 176.214844 193.429688 176.839844 C 193.179688 177.488281 192.96875 178.152344 192.773438 178.828125 C 192.761719 179.003906 192.75 179.175781 192.742188 179.347656 C 192.683594 180.609375 192.777344 181.894531 192.808594 183.175781 C 193.207031 181.300781 193.355469 179.3125 193.636719 177.609375 C 193.789062 176.675781 193.984375 175.769531 194.214844 174.882812 Z M 161.085938 161.015625 C 160.515625 161.324219 159.957031 161.699219 159.414062 162.148438 C 158.429688 164.113281 157.78125 166.21875 157.527344 168.117188 C 157.253906 170.171875 157.421875 172.394531 157.65625 174.558594 C 157.386719 170.378906 158.144531 166.078125 159.882812 162.863281 C 160.242188 162.199219 160.644531 161.578125 161.085938 161.015625 Z M 204.574219 157.371094 C 201.472656 159.207031 198.671875 161.789062 196.941406 164.230469 C 195.46875 166.304688 194.386719 169.445312 193.683594 172.589844 C 195.574219 168.476562 198.226562 163.863281 201.5 160.265625 C 202.472656 159.199219 203.5 158.222656 204.574219 157.371094 Z M 184.660156 170.945312 C 182.839844 167.113281 180.710938 163.296875 178.304688 160.707031 C 176.4375 158.695312 173.898438 156.222656 171.246094 155.351562 C 167.523438 154.125 164.351562 155.691406 161.992188 158.308594 C 161.679688 158.660156 161.378906 159.027344 161.09375 159.410156 C 161.96875 159.015625 162.875 158.75 163.792969 158.601562 C 164.375 158.261719 164.996094 157.992188 165.652344 157.804688 C 168.277344 157.050781 171.542969 157.558594 175.414062 160.054688 C 179.304688 162.5625 182.152344 166.734375 184.660156 170.945312 Z M 216.308594 156.03125 C 214.992188 155.375 213.429688 155.210938 211.992188 155.425781 C 208.4375 155.957031 205.269531 158.226562 202.542969 161.21875 C 202.011719 161.804688 201.496094 162.414062 201 163.050781 C 202.988281 161.113281 205.339844 159.476562 208.035156 158.183594 C 209.699219 157.390625 211.835938 156.660156 213.878906 156.566406 C 215.292969 156.503906 216.660156 156.734375 217.828125 157.417969 C 217.359375 156.855469 216.851562 156.394531 216.308594 156.03125 Z M 169.542969 159.046875 C 169.820312 159.125 170.09375 159.210938 170.367188 159.304688 C 172.394531 159.996094 174.386719 161.078125 176.226562 162.398438 C 175.722656 161.980469 175.199219 161.59375 174.652344 161.242188 C 172.785156 160.039062 171.082031 159.332031 169.542969 159.046875 Z M 169.542969 159.046875 " fill-opacity="1" fill-rule="evenodd"/></g></svg>