<svg xmlns="http://www.w3.org/2000/svg" xmlns:xlink="http://www.w3.org/1999/xlink" width="500" zoomAndPan="magnify" viewBox="0 0 375 374.999991" height="500" preserveAspectRatio="xMidYMid meet" version="1.0"><defs><clipPath id="3d6a86d358"><path d="M 49 37.5 L 324 37.5 L 324 337.5 L 49 337.5 Z M 49 37.5 " clip-rule="nonzero"/></clipPath></defs><g clip-path="url(#3d6a86d358)"><path fill="#ffffff" d="M 267.398438 103.351562 C 270.714844 105.59375 271.101562 108.453125 268.691406 111.417969 C 268.5625 111.554688 268.441406 111.699219 268.328125 111.847656 C 267.863281 112.558594 266.574219 112.882812 266.804688 113.789062 C 267.003906 114.570312 268.160156 114.789062 268.898438 115.246094 C 273.160156 117.890625 277.265625 120.738281 280.761719 124.378906 C 282.5625 126.21875 284.136719 128.238281 285.480469 130.4375 C 286.742188 132.472656 287.652344 134.660156 288.207031 136.992188 C 290.023438 144.925781 291.203125 152.957031 291.742188 161.078125 C 292.265625 169.820312 292.644531 178.5625 292.796875 187.316406 C 292.929688 194.945312 292.574219 202.570312 292.300781 210.195312 C 292.074219 216.503906 291.753906 222.816406 291.203125 229.105469 C 291.09375 230.324219 291.570312 230.863281 292.558594 231.40625 C 299.386719 235.167969 305.707031 239.632812 311.191406 245.210938 C 314.539062 248.621094 317.464844 252.355469 319.660156 256.617188 C 324.632812 266.277344 324.816406 276.027344 320.207031 285.867188 C 317.484375 291.675781 313.464844 296.519531 308.820312 300.878906 C 302.847656 306.484375 296.074219 310.957031 288.871094 314.800781 C 276.988281 321.136719 264.390625 325.597656 251.394531 328.988281 C 238.585938 332.285156 225.601562 334.578125 212.441406 335.867188 C 201.289062 337.019531 190.105469 337.5 178.898438 337.3125 C 155.777344 336.898438 132.980469 334.128906 110.734375 327.582031 C 99.597656 324.304688 88.835938 320.085938 78.757812 314.261719 C 72.394531 310.585938 66.457031 306.335938 61.300781 301.058594 C 57.90625 297.675781 55.101562 293.859375 52.882812 289.613281 C 47.886719 279.785156 47.851562 269.917969 52.695312 260.035156 C 55.546875 254.222656 59.660156 249.375 64.394531 245.023438 C 68.914062 240.9375 73.804688 237.371094 79.078125 234.316406 C 80.101562 233.710938 81.117188 233.09375 82.167969 232.539062 C 82.984375 232.105469 83.292969 231.550781 83.195312 230.578125 C 82.160156 220.304688 81.761719 209.996094 81.609375 199.675781 C 81.542969 194.863281 81.320312 190.042969 81.507812 185.238281 C 81.960938 173.496094 82.421875 161.746094 83.867188 150.070312 C 84.410156 145.664062 85.09375 141.273438 85.84375 136.898438 C 86.488281 133.136719 88.164062 129.789062 90.445312 126.738281 C 93.09375 123.191406 96.351562 120.285156 99.933594 117.726562 C 105.832031 113.515625 112.292969 110.378906 119.082031 107.914062 C 120.511719 107.394531 121.132812 106.695312 121.273438 105.140625 C 121.527344 102.289062 122.152344 99.519531 123.148438 96.832031 C 124.144531 94.148438 125.476562 91.640625 127.148438 89.3125 C 135.527344 77.542969 146.601562 70.042969 161.191406 68.269531 C 163.621094 68.003906 166.058594 67.925781 168.5 68.035156 C 169.125 68.097656 169.75 68.09375 170.371094 68.019531 C 177.640625 66.609375 184.832031 65.039062 191.015625 60.566406 C 193.710938 58.621094 195.726562 56.308594 196.527344 53.03125 C 196.730469 52.238281 196.824219 51.433594 196.8125 50.617188 C 196.757812 48.808594 196.171875 48.011719 194.480469 47.421875 C 194.242188 47.339844 193.996094 47.289062 193.757812 47.210938 C 191.261719 46.355469 190.609375 44.359375 192.222656 42.214844 C 194.410156 39.292969 197.542969 38.15625 201.039062 37.910156 C 206.933594 37.492188 212.320312 39.085938 217.242188 42.265625 C 219.972656 44.011719 222.441406 46.070312 224.648438 48.441406 C 226.851562 50.8125 228.726562 53.425781 230.265625 56.273438 C 231.667969 58.855469 232.9375 61.511719 234.214844 64.15625 C 235.75 67.3125 237.925781 69.933594 240.738281 72.03125 C 242.722656 73.554688 244.554688 75.242188 246.238281 77.097656 C 247.367188 78.328125 248.878906 79.335938 251.003906 78.753906 C 254.515625 77.789062 258.171875 77.644531 261.800781 77.605469 C 265.964844 77.558594 268.003906 79.480469 268.382812 83.660156 C 268.671875 86.628906 268.347656 89.53125 267.410156 92.363281 C 267.234375 92.898438 267.074219 93.4375 266.875 93.964844 C 266.660156 94.527344 266.742188 94.941406 267.371094 95.136719 C 267.488281 95.175781 267.609375 95.207031 267.726562 95.253906 C 270.261719 96.304688 270.886719 98.011719 269.65625 100.476562 C 269.121094 101.546875 268.25 102.371094 267.398438 103.351562 Z M 176.757812 329.492188 C 196.15625 329.472656 210.289062 328.410156 224.351562 326.246094 C 237.742188 324.246094 250.847656 321.085938 263.679688 316.761719 C 275.75 312.644531 287.269531 307.390625 297.828125 300.164062 C 303.53125 296.257812 308.726562 291.773438 313.128906 286.414062 C 316.054688 282.945312 318.386719 279.117188 320.121094 274.921875 C 320.824219 273.148438 321.070312 271.316406 320.859375 269.417969 C 320.316406 263.730469 318.269531 258.625 315.078125 253.953125 C 309.148438 245.265625 300.914062 239.234375 291.949219 234.066406 C 291.113281 233.585938 290.910156 233.722656 290.726562 234.699219 C 290.632812 235.191406 290.589844 235.691406 290.539062 236.1875 C 290.097656 240.480469 289.492188 244.75 288.753906 249 C 288.171875 252.339844 287.417969 255.585938 285.585938 258.539062 C 282.316406 263.78125 278.316406 268.390625 273.582031 272.363281 C 267.144531 277.832031 259.953125 282.097656 252.265625 285.539062 C 234.300781 293.578125 215.332031 297.113281 195.789062 297.882812 C 186.582031 298.238281 177.402344 297.871094 168.253906 296.785156 C 154.582031 295.171875 141.269531 292.136719 128.421875 287.144531 C 118.515625 283.296875 109.1875 278.398438 100.785156 271.832031 C 96.296875 268.386719 92.316406 264.429688 88.847656 259.957031 C 88.261719 259.285156 87.859375 258.519531 87.644531 257.65625 C 87.070312 254.648438 86.445312 251.648438 85.847656 248.644531 C 85.019531 244.472656 84.378906 240.273438 83.785156 236.0625 C 83.601562 234.753906 83.4375 234.660156 82.257812 235.328125 C 80.785156 236.15625 79.339844 237.023438 77.914062 237.933594 C 71.070312 242.296875 64.769531 247.292969 59.707031 253.707031 C 56.617188 257.621094 54.1875 261.890625 52.804688 266.714844 C 52.316406 268.285156 52.15625 269.890625 52.324219 271.527344 C 52.929688 276.378906 54.511719 280.886719 57.066406 285.050781 C 60.992188 291.597656 66.347656 296.804688 72.417969 301.324219 C 79.738281 306.773438 87.765625 310.964844 96.179688 314.429688 C 109.1875 319.789062 122.71875 323.324219 136.5625 325.722656 C 151.570312 328.320312 166.703125 329.523438 176.757812 329.496094 Z M 287.976562 148.558594 C 287.695312 148.6875 287.617188 148.695312 287.589844 148.738281 C 287.449219 148.941406 287.324219 149.15625 287.21875 149.382812 C 285.621094 153.191406 283.199219 156.421875 280.269531 159.296875 C 276.398438 163.097656 271.957031 166.101562 267.203125 168.675781 C 260.1875 172.480469 252.769531 175.28125 245.121094 177.496094 C 227.195312 182.679688 208.835938 184.679688 190.25 184.875 C 179.785156 184.957031 169.371094 184.3125 159 182.9375 C 145.238281 181.15625 131.785156 178.132812 118.851562 173.015625 C 112.019531 170.316406 105.480469 167.058594 99.570312 162.65625 C 94.496094 158.875 90.105469 154.480469 87.433594 148.617188 C 87.332031 148.394531 87.207031 148.164062 86.90625 148.117188 C 86.410156 148.441406 86.535156 148.988281 86.476562 149.453125 C 85.140625 160.636719 84.617188 171.875 84.160156 183.117188 C 84.097656 184.652344 84.621094 185.667969 85.761719 186.652344 C 94.84375 194.429688 104.796875 200.855469 115.621094 205.925781 C 137.652344 216.367188 160.953125 221.515625 185.234375 222.464844 C 195.382812 222.851562 205.492188 222.367188 215.558594 221.011719 C 228.890625 219.234375 241.839844 216.003906 254.289062 210.871094 C 266.832031 205.703125 278.285156 198.804688 288.238281 189.5 C 289.632812 188.199219 290.242188 186.871094 290.203125 184.945312 C 290.007812 175.316406 289.585938 165.699219 288.785156 156.101562 C 288.574219 153.625 288.488281 151.121094 287.976562 148.558594 Z M 84.335938 189.027344 C 83.96875 189.5625 84.132812 190.203125 84.125 190.800781 C 83.996094 200.871094 84.453125 210.925781 84.957031 220.984375 C 84.988281 221.953125 85.335938 222.789062 86 223.496094 C 92.730469 231.066406 100.339844 237.617188 108.828125 243.148438 C 131.300781 257.75 156.15625 264.621094 182.757812 265.65625 C 191.847656 265.984375 200.890625 265.5 209.894531 264.199219 C 227.410156 261.734375 244.027344 256.5 259.621094 248.113281 C 269.898438 242.625 279.210938 235.824219 287.5625 227.703125 C 288.441406 226.929688 288.914062 225.960938 288.980469 224.792969 C 289.660156 214.242188 290.089844 203.6875 290.164062 193.117188 C 290.167969 192.65625 290.363281 192.113281 289.890625 191.75 C 289.433594 191.742188 289.199219 192.0625 288.929688 192.3125 C 278.449219 201.996094 266.285156 208.945312 253.070312 214.128906 C 236.972656 220.449219 220.210938 223.789062 202.984375 224.78125 C 179.765625 226.117188 157.023438 223.410156 134.855469 216.257812 C 116.75 210.417969 100.066406 201.9375 85.492188 189.5625 C 85.183594 189.296875 84.917969 188.871094 84.335938 189.027344 Z M 194.488281 182.273438 C 202.457031 182.3125 216.085938 181.109375 229.582031 178.527344 C 240.433594 176.457031 251.011719 173.476562 261.078125 168.847656 C 266.789062 166.222656 272.175781 163.070312 276.917969 158.902344 C 279.804688 156.363281 282.300781 153.496094 284.054688 150.042969 C 286.890625 144.460938 286.839844 138.863281 284.074219 133.277344 C 282.816406 130.804688 281.222656 128.574219 279.292969 126.582031 C 275.113281 122.171875 270.132812 118.84375 264.800781 116.011719 C 264.582031 115.886719 264.355469 115.789062 264.117188 115.714844 C 263.992188 115.675781 263.871094 115.679688 263.746094 115.726562 C 263.625 115.773438 263.53125 115.851562 263.464844 115.960938 C 263.394531 116.132812 263.394531 116.304688 263.472656 116.472656 C 263.601562 116.6875 263.746094 116.890625 263.90625 117.082031 C 265.53125 119.582031 265.160156 122.371094 262.9375 124.335938 C 261.933594 125.195312 260.835938 125.914062 259.644531 126.484375 C 259.214844 126.6875 258.859375 126.972656 258.570312 127.347656 C 258.285156 127.722656 258.097656 128.140625 258.015625 128.605469 C 256.75 133.902344 253.699219 137.96875 249.25 141.035156 C 246.421875 142.933594 243.363281 144.335938 240.082031 145.25 C 235.738281 146.511719 231.304688 147.257812 226.789062 147.492188 C 222.964844 147.707031 219.308594 148.292969 215.757812 150.046875 C 208.996094 153.390625 201.691406 154.359375 194.191406 153.839844 C 188.734375 153.453125 183.414062 152.371094 178.234375 150.597656 C 176.140625 149.925781 174 149.535156 171.804688 149.421875 C 164.625 148.929688 157.402344 148.464844 150.433594 146.613281 C 134.871094 142.484375 124.804688 132.835938 121.484375 116.761719 C 121.117188 114.851562 120.925781 112.925781 120.914062 110.980469 C 120.894531 110.117188 120.542969 109.851562 119.734375 110.191406 C 118.179688 110.847656 116.597656 111.449219 115.058594 112.140625 C 108.46875 115.105469 102.183594 118.570312 96.832031 123.519531 C 94.101562 126.042969 91.691406 128.839844 90.140625 132.253906 C 87.742188 137.539062 87.496094 142.863281 90.105469 148.1875 C 91.578125 151.121094 93.488281 153.734375 95.832031 156.03125 C 99.300781 159.515625 103.289062 162.3125 107.539062 164.75 C 115.347656 169.230469 123.691406 172.40625 132.328125 174.847656 C 150.761719 180.054688 169.597656 182.234375 194.488281 182.273438 Z M 85.699219 227.308594 C 85.378906 227.867188 85.609375 228.484375 85.65625 229.070312 C 86.328125 237.058594 87.929688 244.902344 89.171875 252.804688 C 89.820312 256.914062 91.699219 259.929688 94.484375 262.757812 C 102.546875 270.949219 112.039062 277.003906 122.417969 281.746094 C 138.410156 289.050781 155.296875 292.9375 172.734375 294.574219 C 184.546875 295.683594 196.347656 295.582031 208.140625 294.273438 C 219.121094 293.0625 229.894531 290.894531 240.363281 287.339844 C 250.976562 283.734375 260.972656 278.925781 269.84375 271.976562 C 275.921875 267.21875 281.019531 261.609375 284.796875 254.84375 C 285.035156 254.472656 285.207031 254.078125 285.316406 253.652344 C 286.746094 246.46875 287.777344 239.234375 288.414062 231.941406 C 288.445312 231.59375 288.550781 231.160156 288.027344 231.027344 C 287.667969 231.160156 287.367188 231.375 287.128906 231.675781 C 276.113281 241.925781 263.585938 249.855469 249.796875 255.796875 C 231.539062 263.664062 212.4375 267.71875 192.570312 268.269531 C 171.476562 268.859375 151.046875 265.558594 131.40625 257.757812 C 114.433594 251.015625 99.367188 241.390625 86.820312 228 C 86.542969 227.703125 86.332031 227.25 85.699219 227.308594 Z M 158.910156 140.207031 C 158.851562 139.453125 158.191406 139.203125 157.75 138.808594 C 155.265625 136.601562 152.988281 134.199219 150.917969 131.601562 C 144.777344 123.8125 141.289062 114.847656 139.273438 105.246094 C 138.523438 101.472656 138.417969 97.679688 138.957031 93.867188 C 139.496094 89.707031 141.847656 86.488281 144.542969 83.457031 C 145.183594 82.726562 145.875 82.050781 146.621094 81.429688 C 147.371094 80.808594 148.164062 80.25 149 79.757812 C 149.835938 79.265625 150.707031 78.84375 151.613281 78.492188 C 152.519531 78.136719 153.445312 77.859375 154.394531 77.65625 C 155.34375 77.453125 156.304688 77.328125 157.277344 77.277344 C 158.246094 77.230469 159.214844 77.257812 160.179688 77.367188 C 161.144531 77.472656 162.09375 77.65625 163.03125 77.917969 C 163.96875 78.175781 164.875 78.507812 165.757812 78.914062 C 167.234375 79.605469 168.660156 80.386719 170.03125 81.261719 C 173.78125 83.585938 177.042969 86.488281 180.171875 89.566406 C 183.292969 92.636719 186.367188 95.757812 189.65625 98.652344 C 192.523438 101.207031 195.695312 103.3125 199.164062 104.957031 C 203.546875 107 208.152344 108 212.988281 107.960938 C 214.566406 107.957031 214.632812 107.851562 214.226562 106.371094 C 213.792969 104.988281 213.59375 103.566406 213.628906 102.117188 C 213.710938 100.410156 213.941406 98.726562 214.328125 97.0625 C 214.714844 95.398438 215.246094 93.78125 215.925781 92.214844 C 216.605469 90.644531 217.417969 89.152344 218.367188 87.730469 C 219.3125 86.308594 220.382812 84.984375 221.570312 83.753906 C 222.660156 82.597656 223.9375 81.714844 225.40625 81.109375 C 227.207031 80.367188 228.523438 80.820312 229.597656 82.453125 C 229.929688 82.957031 229.992188 83.648438 230.761719 84.050781 C 232.273438 82.191406 233.945312 80.480469 236.464844 79.632812 C 235.410156 78.683594 234.519531 77.910156 233.667969 77.101562 C 233.464844 76.90625 233.203125 76.597656 233.480469 76.292969 C 233.597656 76.175781 233.742188 76.121094 233.910156 76.132812 C 234.078125 76.140625 234.214844 76.210938 234.320312 76.34375 C 235.320312 77.382812 237.042969 77.796875 237.164062 79.597656 C 237.183594 79.894531 237.421875 80.007812 237.636719 80.117188 C 238.304688 80.484375 238.875 80.960938 239.347656 81.558594 C 239.90625 82.199219 240.40625 82.03125 240.933594 81.519531 C 241.695312 80.777344 242.433594 80.003906 243.257812 79.335938 C 244.007812 78.722656 243.835938 78.222656 243.289062 77.621094 C 242.269531 76.507812 241.148438 75.515625 239.921875 74.640625 C 238.054688 73.308594 236.390625 71.753906 234.933594 69.980469 C 233.472656 68.207031 232.273438 66.277344 231.328125 64.183594 C 230.015625 61.351562 228.695312 58.507812 227.023438 55.855469 C 226.496094 55.023438 226.035156 54.132812 225.203125 53.457031 C 224.925781 54.09375 225.335938 54.5 225.503906 54.929688 C 226.460938 57.453125 227.128906 60.054688 227.503906 62.726562 C 227.949219 65.625 228.167969 68.585938 229.945312 71.097656 C 230.117188 71.34375 230.292969 71.710938 230 71.945312 C 229.613281 72.257812 229.292969 71.917969 229.054688 71.652344 C 228.085938 70.542969 227.460938 69.261719 227.179688 67.816406 C 226.800781 66.109375 226.492188 64.382812 226.246094 62.648438 C 225.621094 57.96875 223.910156 53.726562 221.113281 49.921875 C 216.621094 43.78125 210.546875 40.738281 203.042969 40.375 C 201.136719 40.277344 199.296875 40.574219 197.523438 41.269531 C 196.257812 41.742188 195.214844 42.515625 194.394531 43.585938 C 194.070312 44.011719 194.089844 44.394531 194.671875 44.597656 C 195.085938 44.742188 195.507812 44.867188 195.910156 45.039062 C 200.285156 46.933594 203.476562 49.894531 204.476562 54.742188 C 204.957031 57.082031 205.136719 59.449219 204.65625 61.820312 C 204.601562 62.128906 204.523438 62.429688 204.421875 62.722656 C 204.285156 63.066406 204.125 63.503906 203.683594 63.4375 C 203.199219 63.363281 203.25 62.898438 203.292969 62.527344 C 203.375 61.78125 203.523438 61.042969 203.566406 60.292969 C 203.746094 56.992188 203.417969 53.785156 201.511719 50.941406 C 201.007812 50.191406 200.503906 49.402344 199.339844 48.871094 C 199.375 50.148438 199.464844 51.195312 199.289062 52.226562 C 198.574219 56.449219 196.527344 59.839844 192.960938 62.242188 C 188.523438 65.226562 183.890625 67.796875 178.53125 68.757812 C 178.023438 68.847656 177.425781 68.800781 177.242188 69.582031 C 176.875 71.144531 176.710938 71.246094 175.160156 71.210938 C 174.472656 71.179688 173.789062 71.109375 173.113281 71 C 168.75 70.339844 164.390625 70.347656 160.03125 71.027344 C 147.546875 73.007812 137.714844 79.410156 130.382812 89.453125 C 122.121094 100.765625 121.324219 113.105469 127.277344 125.632812 C 131.972656 135.507812 140.304688 141.25 150.738281 143.984375 C 155.644531 145.269531 160.699219 145.808594 165.75 146.277344 C 166.332031 146.332031 166.949219 146.472656 167.539062 146.226562 C 167.476562 146.007812 167.480469 145.835938 167.410156 145.792969 C 164.394531 143.957031 161.671875 141.5 157.863281 141.339844 C 157.300781 141.277344 156.757812 141.140625 156.234375 140.921875 C 155.894531 140.808594 155.488281 140.667969 155.636719 140.128906 C 156.726562 139.511719 157.796875 140.578125 158.910156 140.207031 Z M 207.894531 130.421875 C 209.753906 129.59375 210.648438 127.949219 211.664062 126.390625 C 212.371094 125.304688 211.535156 124.488281 211.332031 123.566406 C 211.035156 122.203125 210.828125 120.851562 211.476562 119.535156 C 211.527344 119.378906 211.621094 119.257812 211.761719 119.171875 C 211.902344 119.085938 212.050781 119.058594 212.214844 119.085938 C 212.628906 119.1875 212.578125 119.558594 212.488281 119.839844 C 211.839844 121.941406 212.542969 123.769531 213.5625 125.554688 C 214.492188 127.167969 214.925781 128.902344 214.871094 130.765625 C 214.816406 133.328125 214.855469 135.894531 214.722656 138.453125 C 214.585938 141.070312 215.125 143.539062 215.972656 145.984375 C 216.234375 146.738281 216.570312 146.757812 217.214844 146.414062 C 219.648438 145.109375 221.898438 143.539062 223.96875 141.707031 C 225.042969 140.765625 225.679688 139.640625 225.601562 138.285156 C 225.449219 135.679688 226.0625 133.21875 226.550781 130.699219 C 227.246094 127.113281 226.035156 124.1875 222.867188 122.1875 C 222.308594 121.882812 221.828125 121.488281 221.429688 120.996094 C 221.25 120.742188 221.078125 120.4375 221.394531 120.171875 C 221.613281 119.988281 221.863281 120.089844 222.078125 120.234375 C 224.265625 121.691406 226.464844 123.066406 227.328125 125.84375 C 227.980469 127.9375 230.25 127.960938 231.867188 128.800781 C 233.1875 127.988281 232.832031 126.503906 233.261719 125.332031 C 233.277344 125.273438 233.289062 125.210938 233.296875 125.148438 C 234.769531 116.480469 228.476562 109.808594 220.527344 110.246094 C 218.589844 110.351562 216.652344 110.417969 214.714844 110.488281 C 210.625 110.632812 206.59375 110.320312 202.652344 109.109375 C 196.292969 107.148438 190.921875 103.570312 186.140625 99.039062 C 183.011719 96.070312 179.933594 93.042969 176.84375 90.027344 C 174.746094 87.960938 172.480469 86.09375 170.046875 84.425781 C 167.714844 82.839844 165.292969 81.410156 162.59375 80.515625 C 161.851562 80.273438 161.144531 79.984375 160.878906 81.164062 C 160.796875 81.542969 160.378906 81.859375 160.085938 82.179688 C 158.746094 83.636719 157.003906 84.25 155.105469 84.554688 C 152.480469 84.972656 150.78125 86.761719 149.933594 89 C 149.144531 91.121094 149.03125 93.28125 149.597656 95.472656 C 149.695312 95.863281 149.65625 96.382812 150.265625 96.492188 C 150.964844 96.019531 151.304688 95.25 151.671875 94.554688 C 154.210938 89.78125 159.0625 88.703125 163.558594 87.054688 C 163.679688 86.996094 163.796875 86.992188 163.917969 87.046875 C 164.042969 87.101562 164.121094 87.191406 164.15625 87.320312 C 164.175781 87.507812 164.128906 87.675781 164.011719 87.828125 C 163.664062 88.203125 163.242188 88.460938 162.75 88.601562 C 161.410156 89.128906 160.0625 89.632812 158.726562 90.164062 C 157.542969 90.605469 156.464844 91.226562 155.492188 92.03125 C 154.519531 92.835938 153.707031 93.777344 153.050781 94.859375 C 151.859375 96.839844 150.566406 98.761719 149.375 100.742188 C 148.640625 101.875 148.277344 103.117188 148.289062 104.464844 C 148.28125 105.527344 148.210938 106.585938 148.078125 107.640625 C 147.917969 109.300781 147.90625 109.28125 149.488281 109.464844 C 150.167969 109.554688 150.84375 109.675781 151.515625 109.835938 C 152.214844 109.992188 152.59375 109.6875 152.742188 109.039062 C 152.839844 108.617188 152.90625 108.183594 152.96875 107.75 C 153.042969 106.992188 153.265625 106.28125 153.644531 105.621094 C 154.019531 104.960938 154.519531 104.40625 155.132812 103.960938 C 155.890625 103.414062 156.65625 102.78125 156.992188 101.886719 C 157.785156 99.777344 159.363281 98.738281 161.484375 98.378906 C 162.859375 98.148438 163.703125 97.371094 164.175781 96.074219 C 164.738281 94.40625 165.496094 92.832031 166.449219 91.351562 C 166.84375 90.769531 167.199219 89.527344 167.871094 89.917969 C 168.828125 90.476562 167.792969 91.324219 167.433594 91.9375 C 166.539062 93.519531 165.777344 95.160156 165.152344 96.867188 C 165.023438 97.207031 164.839844 97.597656 165.339844 97.820312 C 166.15625 98.179688 167.507812 97.789062 167.953125 96.980469 C 168.527344 95.941406 169.003906 94.851562 169.535156 93.785156 C 169.753906 93.34375 169.910156 92.851562 170.3125 92.519531 C 170.457031 92.398438 170.648438 92.289062 170.816406 92.425781 C 170.945312 92.53125 171.101562 92.730469 171.082031 92.859375 C 171.027344 93.230469 170.925781 93.585938 170.777344 93.929688 C 169.863281 96.058594 168.910156 98.167969 167.453125 100 C 164.292969 103.988281 164.054688 108.304688 165.949219 112.886719 C 166.738281 114.792969 167.4375 116.734375 168.183594 118.660156 C 168.363281 119.125 168.554688 119.585938 168.773438 120.035156 C 169.09375 120.695312 169.507812 120.773438 170.09375 120.277344 C 171.765625 118.851562 173.367188 117.402344 174.277344 115.308594 C 174.949219 113.765625 175.746094 112.234375 177.078125 111.132812 C 178.371094 110.0625 179.90625 109.273438 180.886719 107.835938 C 180.957031 107.722656 181.054688 107.652344 181.183594 107.621094 C 181.3125 107.59375 181.433594 107.613281 181.546875 107.679688 C 181.644531 107.765625 181.707031 107.871094 181.734375 108 C 181.757812 108.128906 181.742188 108.25 181.683594 108.367188 C 181.316406 109.421875 180.644531 110.21875 179.664062 110.757812 C 177.691406 111.929688 176.449219 113.667969 175.480469 115.679688 C 175.011719 116.632812 174.488281 117.554688 173.902344 118.445312 C 173.554688 118.984375 173.402344 119.578125 173.449219 120.21875 C 173.507812 121.605469 174.074219 122.839844 174.484375 124.484375 C 176.042969 123.027344 177.566406 122.089844 178.96875 120.984375 C 179.425781 120.613281 179.71875 120.136719 179.84375 119.5625 C 180.777344 115.433594 183.953125 112.789062 186.367188 109.640625 C 186.570312 109.378906 186.863281 109.15625 187.164062 109.335938 C 187.457031 109.511719 187.433594 109.878906 187.285156 110.179688 C 186.660156 111.347656 185.859375 112.382812 184.890625 113.285156 C 183.675781 114.484375 182.5 115.761719 181.992188 117.386719 C 180.933594 120.773438 180.09375 121.910156 176.898438 124.027344 C 174.253906 125.777344 174.316406 125.996094 174.945312 129.105469 C 175.164062 130.03125 175.164062 130.957031 174.941406 131.886719 C 174.722656 132.8125 174.300781 133.640625 173.6875 134.367188 C 172.863281 135.386719 171.96875 136.351562 171.070312 137.304688 C 169.910156 138.472656 169 139.808594 168.332031 141.3125 C 167.753906 142.691406 167.785156 142.859375 169.015625 143.578125 C 170.804688 144.617188 172.652344 145.53125 174.5625 146.324219 C 175.859375 146.867188 176 146.785156 176.363281 145.4375 C 176.472656 145.015625 176.558594 144.585938 176.617188 144.152344 C 177.058594 140.921875 178.375 138.066406 180.179688 135.371094 C 181.777344 132.984375 183.171875 130.460938 184.722656 128.039062 C 186.164062 125.785156 186.613281 123.449219 185.652344 120.902344 C 184.613281 118.167969 185.316406 115.75 187.035156 113.53125 C 187.574219 112.835938 188.105469 112.144531 188.65625 111.460938 C 188.851562 111.21875 189.070312 111 189.3125 110.804688 C 189.417969 110.726562 189.535156 110.691406 189.664062 110.699219 C 189.792969 110.707031 189.90625 110.753906 190 110.84375 C 190.105469 110.925781 190.167969 111.03125 190.1875 111.164062 C 190.203125 111.292969 190.171875 111.414062 190.09375 111.519531 C 189.75 112.042969 189.375 112.539062 188.96875 113.015625 C 186.792969 115.476562 185.660156 118.15625 187.082031 121.421875 C 187.152344 121.664062 187.207031 121.90625 187.238281 122.15625 C 187.664062 123.867188 187.542969 125.578125 186.636719 127.0625 C 185.601562 128.757812 185.871094 130.257812 186.796875 131.8125 C 187.019531 132.1875 187.203125 132.589844 187.414062 132.96875 C 188.617188 135.128906 189.082031 137.398438 188.457031 139.839844 C 188.382812 140.125 188.257812 140.441406 188.507812 140.722656 C 188.867188 140.84375 189.082031 140.570312 189.332031 140.40625 C 190.875 139.414062 192.191406 138.179688 193.28125 136.703125 C 194.367188 135.226562 195.152344 133.601562 195.640625 131.832031 C 196.152344 130.085938 196.753906 128.378906 197.796875 126.863281 C 199.289062 124.703125 200.777344 122.539062 202.292969 120.394531 C 202.628906 119.945312 203.007812 119.53125 203.425781 119.15625 C 203.511719 119.054688 203.621094 119.003906 203.757812 119.007812 C 203.890625 119.011719 203.996094 119.070312 204.078125 119.175781 C 204.183594 119.332031 204.210938 119.5 204.160156 119.683594 C 203.988281 120.015625 203.792969 120.335938 203.570312 120.632812 C 202.21875 122.585938 200.859375 124.535156 199.5 126.484375 C 198.5625 127.824219 197.640625 129.191406 197.242188 130.785156 C 196.003906 135.703125 193.253906 139.539062 188.929688 142.125 C 187.167969 143.175781 186.871094 144.625 186.917969 146.359375 C 186.945312 147.296875 187.0625 148.230469 187.15625 149.164062 C 187.160156 149.492188 187.273438 149.773438 187.496094 150.015625 C 187.71875 150.253906 187.992188 150.390625 188.316406 150.417969 C 190.78125 150.878906 193.265625 151.148438 195.769531 151.238281 C 196.632812 151.253906 197.195312 150.949219 197.53125 150.152344 C 198.4375 148 199.796875 146.125 201.175781 144.265625 C 201.601562 143.777344 201.828125 143.210938 201.859375 142.566406 C 201.859375 139.242188 203.089844 136.351562 205.011719 133.707031 C 205.996094 132.351562 206.617188 130.882812 206.363281 129.152344 C 206.328125 128.84375 206.332031 128.53125 206.382812 128.222656 C 206.386719 128.09375 206.433594 127.980469 206.519531 127.886719 C 206.609375 127.789062 206.714844 127.734375 206.84375 127.714844 C 207.144531 127.679688 207.269531 127.933594 207.363281 128.164062 C 207.652344 128.839844 207.378906 129.652344 207.890625 130.421875 Z M 247.589844 94.910156 C 247.6875 95.015625 247.753906 95.140625 247.855469 95.183594 C 248.03125 95.25 248.210938 95.292969 248.398438 95.300781 C 251.101562 95.433594 253.777344 95.277344 256.378906 94.449219 C 256.792969 94.316406 257.203125 94.152344 257.628906 94.054688 C 257.867188 94 258.15625 94.066406 258.195312 94.378906 C 258.214844 94.566406 258.160156 94.730469 258.039062 94.875 C 257.390625 95.53125 256.507812 95.710938 255.667969 95.921875 C 253.085938 96.550781 250.480469 96.710938 247.839844 96.410156 C 247.15625 96.296875 246.492188 96.367188 245.847656 96.621094 C 245.199219 96.871094 244.664062 97.269531 244.238281 97.816406 C 242.601562 99.703125 240.828125 101.476562 239.144531 103.324219 C 237.558594 105.074219 237.660156 105.449219 239.964844 106.046875 C 243.792969 107.039062 247.671875 107.679688 251.652344 107.304688 C 251.960938 107.265625 252.273438 107.242188 252.585938 107.234375 C 252.824219 107.238281 253.109375 107.25 253.195312 107.539062 C 253.316406 107.949219 252.984375 108.085938 252.710938 108.207031 C 252.0625 108.464844 251.390625 108.589844 250.691406 108.59375 C 246.257812 108.792969 241.972656 108.085938 237.835938 106.476562 C 237.046875 106.171875 236.578125 106.1875 236.078125 106.84375 C 235.050781 108.183594 233.953125 109.46875 232.960938 110.832031 C 232.078125 112.039062 232.097656 112.105469 232.984375 113.277344 C 234.542969 115.230469 235.5 117.441406 235.863281 119.910156 C 235.992188 120.894531 236.507812 121.308594 237.425781 121.4375 C 238.925781 121.621094 240.421875 121.621094 241.917969 121.441406 C 244.09375 121.21875 246.273438 121.003906 248.421875 120.566406 C 248.941406 120.460938 249.734375 120.207031 249.898438 120.828125 C 250.089844 121.550781 249.242188 121.519531 248.742188 121.671875 C 248.683594 121.691406 248.621094 121.699219 248.558594 121.714844 C 245.550781 122.335938 242.511719 122.6875 239.441406 122.757812 C 238.398438 122.789062 237.070312 122.03125 236.410156 122.824219 C 235.824219 123.519531 235.964844 124.832031 235.816406 125.878906 C 235.582031 127.558594 235.585938 127.589844 237.136719 127.847656 C 245.25 129.191406 252.796875 127.582031 259.839844 123.429688 C 260.4375 123.082031 260.984375 122.667969 261.480469 122.183594 C 262.691406 120.980469 262.675781 119.417969 261.488281 118.191406 C 261.1875 117.878906 260.808594 117.632812 260.511719 117.316406 C 259.597656 116.34375 259.648438 115.476562 260.691406 114.597656 C 261.085938 114.292969 261.5 114.011719 261.925781 113.75 C 263.339844 112.820312 264.675781 111.792969 265.933594 110.660156 C 266.664062 110.039062 267.199219 109.277344 267.53125 108.378906 C 267.984375 106.992188 267.507812 106.238281 266.046875 106.019531 C 265.488281 105.984375 264.929688 105.917969 264.375 105.820312 C 263.296875 105.527344 262.914062 104.574219 263.523438 103.632812 C 263.898438 103.136719 264.324219 102.679688 264.792969 102.265625 C 265.628906 101.425781 266.570312 100.675781 267.195312 99.644531 C 267.960938 98.382812 267.761719 97.898438 266.359375 97.523438 C 266.058594 97.441406 265.742188 97.40625 265.445312 97.3125 C 264.171875 96.910156 263.6875 96.21875 263.953125 94.925781 C 264.199219 93.953125 264.496094 93 264.84375 92.0625 C 265.738281 89.296875 266.253906 86.484375 265.820312 83.570312 C 265.421875 80.875 264.578125 80.109375 261.875 80.125 C 258.113281 80.144531 254.371094 80.390625 250.703125 81.289062 C 249.554688 81.570312 248.433594 81.644531 247.46875 80.90625 C 246.496094 80.160156 245.726562 80.488281 244.96875 81.167969 C 244.132812 81.917969 243.339844 82.71875 242.503906 83.46875 C 240.589844 85.179688 239.46875 85.164062 237.65625 83.429688 C 236.425781 82.25 236.21875 82.253906 234.855469 83.355469 C 233.664062 84.316406 232.890625 85.601562 232.03125 86.835938 C 230.964844 88.363281 229.53125 88.238281 228.664062 86.605469 C 228.425781 86.097656 228.210938 85.578125 228.027344 85.046875 C 227.234375 83.085938 226.808594 82.957031 225.019531 84.164062 C 223.925781 84.90625 222.964844 85.792969 222.140625 86.832031 C 220.617188 88.714844 219.363281 90.761719 218.375 92.972656 C 217.390625 95.183594 216.703125 97.484375 216.320312 99.875 C 215.90625 102.140625 216.078125 104.363281 216.839844 106.535156 C 217.144531 107.359375 217.597656 107.738281 218.503906 107.679688 C 219.625 107.605469 220.753906 107.636719 221.882812 107.632812 C 223.429688 107.625 223.488281 107.578125 223.265625 106.042969 C 222.792969 102.808594 222.90625 99.558594 223.089844 96.3125 C 223.125 95.722656 223.15625 94.753906 223.839844 94.796875 C 224.742188 94.855469 224.199219 95.773438 224.25 96.328125 C 224.25 96.453125 224.242188 96.578125 224.226562 96.703125 C 224.109375 100.015625 223.976562 103.324219 224.515625 106.621094 C 224.648438 107.425781 224.875 108.027344 225.75 108.277344 C 227.449219 108.78125 228.992188 109.585938 230.378906 110.695312 C 230.960938 111.152344 231.347656 111.011719 231.761719 110.441406 C 232.753906 109.082031 233.75 107.710938 234.839844 106.425781 C 235.488281 105.691406 235.757812 104.835938 235.652344 103.863281 C 235.449219 100.792969 235.585938 97.738281 236.0625 94.699219 C 236.160156 94.085938 236.210938 93.453125 236.59375 92.921875 C 236.710938 92.734375 236.875 92.683594 237.082031 92.761719 C 237.230469 92.824219 237.425781 93 237.433594 93.132812 C 237.4375 93.507812 237.40625 93.875 237.335938 94.242188 C 236.929688 96.84375 236.757812 99.460938 236.820312 102.089844 C 236.824219 102.5 236.6875 102.972656 237.113281 103.25 C 237.398438 103.292969 237.621094 103.191406 237.78125 102.945312 C 240.007812 100.578125 242.214844 98.191406 244.460938 95.84375 C 244.984375 95.292969 245.097656 94.675781 245.171875 93.976562 C 245.394531 91.730469 245.84375 89.527344 246.515625 87.371094 C 246.730469 86.71875 246.976562 86.078125 247.257812 85.453125 C 247.304688 85.292969 247.402344 85.171875 247.550781 85.097656 C 247.699219 85.019531 247.851562 85.011719 248.007812 85.070312 C 248.152344 85.148438 248.25 85.265625 248.300781 85.421875 C 248.347656 85.578125 248.339844 85.730469 248.269531 85.878906 C 247.953125 86.957031 247.554688 88.015625 247.296875 89.105469 C 246.976562 90.460938 246.464844 91.804688 246.703125 93.496094 C 247.347656 92.964844 247.832031 92.597656 248.28125 92.191406 C 251.800781 89.082031 255.480469 86.179688 259.324219 83.488281 C 259.828125 83.125 260.316406 82.699219 260.964844 82.628906 C 261.15625 82.609375 261.320312 82.667969 261.457031 82.804688 C 261.527344 82.976562 261.519531 83.144531 261.429688 83.308594 C 261.136719 83.816406 260.609375 84.066406 260.15625 84.394531 C 256.261719 87.230469 252.414062 90.125 248.859375 93.386719 C 248.375 93.832031 247.710938 94.164062 247.589844 94.910156 Z M 51.953125 277.484375 C 51.800781 278.769531 52.175781 279.953125 52.445312 281.128906 C 53.78125 286.863281 56.664062 291.792969 60.417969 296.257812 C 65.34375 302.117188 71.324219 306.722656 77.816406 310.691406 C 87.378906 316.539062 97.65625 320.785156 108.316406 324.125 C 129.417969 330.742188 151.105469 333.839844 173.152344 334.59375 C 183.980469 334.976562 194.796875 334.746094 205.601562 333.898438 C 221.039062 332.667969 236.289062 330.328125 251.273438 326.367188 C 264.507812 322.867188 277.320312 318.273438 289.324219 311.613281 C 297.078125 307.3125 304.292969 302.285156 310.335938 295.714844 C 313.960938 291.769531 316.957031 287.402344 318.910156 282.378906 C 319.34375 281.378906 319.644531 280.34375 319.8125 279.265625 C 319.097656 279.578125 318.949219 280.15625 318.683594 280.617188 C 316.238281 284.800781 313.273438 288.582031 309.796875 291.957031 C 302.164062 299.441406 293.292969 305.125 283.746094 309.8125 C 263.367188 319.820312 241.640625 325.195312 219.277344 328.273438 C 211.222656 329.382812 203.117188 329.984375 194.992188 330.402344 C 180.207031 331.164062 165.472656 330.578125 150.773438 328.996094 C 141.375 327.984375 132.074219 326.382812 122.875 324.195312 C 109.804688 321.097656 97.132812 316.875 85.167969 310.691406 C 77.117188 306.53125 69.648438 301.546875 63.273438 295.042969 C 58.578125 290.25 54.832031 284.835938 52.648438 278.429688 C 52.535156 278.09375 52.546875 277.660156 51.953125 277.484375 Z M 255.210938 128.886719 C 254.484375 128.609375 253.929688 129.003906 253.363281 129.175781 C 250.644531 130.046875 247.863281 130.578125 245.015625 130.777344 C 242.167969 130.972656 239.335938 130.832031 236.523438 130.34375 C 234.773438 130.035156 234.757812 130.058594 234.054688 131.683594 C 232.101562 136.292969 229.300781 140.304688 225.644531 143.71875 C 225.34375 143.996094 224.890625 144.191406 224.929688 144.746094 C 225.160156 145.019531 225.480469 144.972656 225.777344 144.953125 C 229.652344 144.757812 233.480469 144.21875 237.261719 143.339844 C 240.632812 142.566406 243.8125 141.308594 246.800781 139.5625 C 250.308594 137.441406 253.03125 134.589844 254.699219 130.808594 C 254.964844 130.207031 255.359375 129.617188 255.210938 128.886719 Z M 212.886719 127.273438 C 212.136719 127.53125 211.964844 128.117188 211.652344 128.5625 C 211.074219 129.46875 210.339844 130.230469 209.453125 130.84375 C 206.90625 132.453125 205.476562 134.9375 204.207031 137.527344 C 203.316406 139.304688 202.960938 141.1875 203.140625 143.167969 C 203.394531 145.285156 203.410156 147.398438 203.183594 149.519531 C 203.019531 150.785156 203.234375 150.949219 204.539062 150.742188 C 207.515625 150.28125 210.402344 149.492188 213.195312 148.371094 C 215.117188 147.589844 215.230469 147.441406 214.542969 145.449219 C 213.726562 142.992188 213.398438 140.472656 213.558594 137.890625 C 213.667969 135.335938 213.640625 132.773438 213.644531 130.214844 C 213.644531 129.21875 213.546875 128.226562 212.886719 127.273438 Z M 172.136719 120.679688 C 171.890625 120.679688 171.730469 120.628906 171.65625 120.6875 C 168.6875 122.945312 166.105469 125.441406 165.101562 129.269531 C 164.761719 130.644531 164.214844 131.933594 163.457031 133.132812 C 162.699219 134.335938 161.773438 135.386719 160.679688 136.285156 C 159.949219 136.878906 160.183594 137.308594 160.714844 137.785156 C 162.316406 139.179688 164.011719 140.449219 165.804688 141.59375 C 166.441406 142.011719 166.84375 141.828125 167.089844 141.152344 C 167.945312 138.796875 169.566406 136.996094 171.3125 135.277344 C 172.167969 134.445312 172.878906 133.503906 173.441406 132.449219 C 173.738281 131.894531 174.058594 131.292969 173.90625 130.667969 C 173.289062 128.117188 173.40625 125.460938 172.773438 122.914062 C 172.578125 122.148438 172.339844 121.390625 172.136719 120.679688 Z M 163.523438 109.875 C 162.96875 111.058594 162.671875 112.308594 162.640625 113.617188 C 162.566406 115.035156 162.246094 116.390625 161.675781 117.691406 C 161.105469 118.992188 160.324219 120.148438 159.328125 121.160156 C 158.765625 121.742188 158.234375 122.355469 157.714844 122.976562 C 157.109375 123.671875 156.679688 124.457031 156.417969 125.339844 C 156.152344 126.21875 156.085938 127.117188 156.210938 128.027344 C 156.503906 130.546875 157.519531 132.824219 158.644531 135.058594 C 158.976562 135.714844 159.46875 135.804688 160.003906 135.34375 C 160.476562 134.933594 160.910156 134.488281 161.304688 134.003906 C 162.59375 132.367188 163.515625 130.539062 164.070312 128.527344 C 164.523438 126.960938 165.203125 125.496094 166.109375 124.136719 C 166.703125 123.253906 167.964844 122.671875 168.007812 121.679688 C 168.046875 120.722656 167.277344 119.742188 166.898438 118.757812 C 165.785156 115.859375 164.691406 112.949219 163.523438 109.875 Z M 162.164062 108.390625 C 160.914062 108.6875 160.140625 109.527344 159.257812 110.1875 C 157.042969 111.847656 154.695312 112.433594 152.050781 111.28125 C 151.414062 111.011719 150.753906 110.824219 150.070312 110.714844 C 147.707031 110.3125 147.363281 110.484375 146.148438 112.519531 C 145.925781 112.894531 145.71875 113.285156 145.5 113.660156 C 145.226562 114.09375 145.074219 114.5625 145.046875 115.074219 C 145.019531 115.585938 145.121094 116.070312 145.347656 116.527344 C 146.054688 118.0625 146.75 119.597656 147.40625 121.152344 C 147.761719 122 148.25 122.378906 149.132812 121.894531 C 151.742188 120.460938 154.578125 119.746094 157.46875 119.136719 C 158.292969 118.984375 159.015625 118.621094 159.636719 118.054688 C 160.257812 117.488281 160.683594 116.804688 160.914062 115.996094 C 161.613281 113.554688 161.65625 110.96875 162.164062 108.390625 Z M 154.496094 80.34375 C 152.886719 80.777344 151.371094 81.433594 149.957031 82.316406 C 148.539062 83.195312 147.285156 84.265625 146.1875 85.523438 C 145.761719 86.0625 145.308594 86.578125 144.828125 87.070312 C 143.316406 88.414062 142.527344 90.164062 141.914062 92.019531 C 140.738281 95.550781 141.042969 99.167969 141.355469 102.78125 C 141.449219 103.523438 141.585938 104.261719 141.773438 104.988281 C 141.933594 105.738281 142.324219 105.863281 142.980469 105.453125 C 145.433594 103.9375 147.316406 101.890625 148.625 99.320312 C 148.921875 98.808594 149.003906 98.265625 148.875 97.6875 C 148.355469 95.640625 147.933594 93.582031 148.335938 91.367188 C 147.550781 91.449219 147.214844 91.851562 146.800781 92.105469 C 145.5625 92.855469 144.242188 93.40625 142.835938 93.761719 C 142.558594 93.835938 142.183594 93.828125 142.105469 93.40625 C 142.078125 93.121094 142.195312 92.921875 142.464844 92.8125 C 142.675781 92.675781 142.898438 92.566406 143.136719 92.488281 C 145.890625 91.699219 147.730469 89.828125 149.214844 87.484375 C 149.984375 86.269531 150.871094 85.074219 152.144531 84.367188 C 153.636719 83.535156 154 82.171875 154.496094 80.34375 Z M 185.050781 130.859375 C 184.738281 130.976562 184.570312 130.984375 184.515625 131.066406 C 181.476562 135.695312 178.117188 140.167969 177.484375 145.949219 C 177.339844 147.28125 177.246094 147.355469 178.566406 147.875 C 180.492188 148.605469 182.464844 149.183594 184.484375 149.613281 C 185.859375 149.929688 186.03125 149.8125 185.867188 148.351562 C 185.5625 145.695312 185.925781 143.132812 186.953125 140.664062 C 187.402344 139.476562 187.578125 138.253906 187.476562 136.992188 C 187.347656 134.644531 185.878906 132.886719 185.050781 130.859375 Z M 166.390625 99.238281 C 164.195312 98.800781 162.476562 99.351562 160.746094 99.816406 C 160.21875 99.933594 159.75 100.164062 159.332031 100.507812 C 158.917969 100.855469 158.605469 101.277344 158.390625 101.773438 C 157.96875 102.757812 157.421875 103.71875 156.519531 104.296875 C 154.574219 105.554688 154.117188 107.5 153.761719 109.566406 C 153.609375 110.453125 154.011719 110.679688 154.761719 110.699219 C 156.15625 110.742188 157.28125 110.070312 158.347656 109.296875 C 159.65625 108.34375 160.820312 107.1875 162.382812 106.617188 C 162.824219 106.449219 163.109375 106.140625 163.238281 105.683594 C 163.972656 103.382812 165.023438 101.234375 166.390625 99.238281 Z M 156.101562 132.988281 C 155.613281 130.855469 154.707031 128.835938 154.847656 126.617188 C 155 124.238281 156.34375 122.453125 157.828125 120.792969 C 157.703125 120.65625 157.546875 120.566406 157.363281 120.523438 C 157.183594 120.480469 157.003906 120.496094 156.828125 120.5625 C 154.464844 120.945312 152.226562 121.707031 150.117188 122.839844 C 148.710938 123.582031 148.671875 123.5625 149.464844 124.875 C 151.046875 127.507812 152.867188 129.960938 154.933594 132.238281 C 155.21875 132.550781 155.445312 132.964844 156.101562 132.988281 Z M 227.191406 137.820312 C 229.015625 135.769531 230.449219 133.472656 231.492188 130.933594 C 231.539062 130.832031 231.566406 130.726562 231.570312 130.617188 C 231.574219 130.507812 231.554688 130.398438 231.511719 130.296875 C 231.472656 130.191406 231.410156 130.101562 231.328125 130.027344 C 231.25 129.949219 231.15625 129.894531 231.050781 129.855469 C 230.121094 129.371094 229.195312 128.882812 227.953125 128.761719 C 228.003906 131.832031 226.121094 134.601562 227.191406 137.820312 Z M 144.0625 112.839844 C 146.53125 110.394531 147.550781 107.144531 146.746094 104.386719 C 145.460938 105.296875 144.199219 106.183594 142.941406 107.074219 C 142.773438 107.171875 142.652344 107.308594 142.574219 107.488281 C 142.5 107.667969 142.484375 107.851562 142.53125 108.039062 C 142.90625 109.683594 143.417969 111.28125 144.0625 112.839844 Z M 201.980469 145.5625 C 200.558594 146.835938 199.84375 148.191406 199.152344 149.550781 C 198.371094 151.085938 198.550781 151.308594 200.339844 151.195312 C 200.949219 151.15625 201.671875 151.25 201.816406 150.402344 C 202.140625 148.800781 202.191406 147.1875 201.980469 145.5625 Z M 160.226562 80.117188 C 159.609375 79.882812 158.96875 79.789062 158.3125 79.84375 C 156.242188 79.84375 155.597656 80.367188 155.117188 82.40625 C 154.980469 82.988281 155.175781 83.246094 155.78125 83.132812 C 157.636719 82.792969 159.003906 81.742188 160.226562 80.117188 Z M 160.226562 80.117188 " fill-opacity="1" fill-rule="nonzero"/></g><path fill="#ffffff" d="M 61.023438 269.410156 C 61.351562 264.023438 63.410156 258.175781 68.375 253.699219 C 71.320312 251.042969 74.828125 249.988281 78.800781 251.230469 C 81.398438 252.039062 83.136719 255.058594 82.605469 257.972656 C 82.449219 258.773438 82.222656 259.550781 81.921875 260.308594 C 80.296875 264.53125 80.488281 268.757812 81.996094 272.941406 C 82.671875 274.816406 83.546875 276.621094 84.367188 278.441406 C 85.46875 280.894531 86.472656 283.378906 87.011719 286.027344 C 87.304688 287.335938 87.261719 288.628906 86.886719 289.914062 C 85.570312 294.296875 82.363281 295.96875 78.054688 294.492188 C 68.640625 291.265625 60.957031 280.476562 61.023438 269.410156 Z M 62.34375 270.816406 C 62.351562 271.648438 62.414062 272.476562 62.527344 273.300781 C 64.214844 282.023438 68.996094 288.445312 76.910156 292.511719 C 78.074219 293.148438 79.320312 293.53125 80.644531 293.664062 C 81.378906 293.75 82.082031 293.644531 82.753906 293.339844 C 83.425781 293.039062 83.972656 292.585938 84.394531 291.976562 C 85.667969 290.242188 86.265625 288.351562 85.75 286.164062 C 85.230469 284.035156 84.515625 281.976562 83.601562 279.984375 C 82.707031 277.992188 81.765625 276.015625 80.976562 273.980469 C 79.152344 269.273438 78.828125 264.511719 80.671875 259.714844 C 80.921875 259.074219 81.117188 258.414062 81.257812 257.742188 C 81.628906 255.898438 80.570312 253.441406 79.011719 252.78125 C 78.152344 252.382812 77.25 252.148438 76.304688 252.070312 C 75.359375 251.996094 74.433594 252.085938 73.519531 252.339844 C 72.160156 252.746094 70.902344 253.363281 69.753906 254.199219 C 68.605469 255.035156 67.628906 256.035156 66.820312 257.203125 C 65.402344 259.191406 64.3125 261.347656 63.546875 263.667969 C 62.785156 265.988281 62.382812 268.371094 62.34375 270.816406 Z M 62.34375 270.816406 " fill-opacity="1" fill-rule="nonzero"/><path fill="#ffffff" d="M 242.101562 184.679688 C 241.480469 185.492188 240.714844 185.589844 239.996094 185.757812 C 231.113281 187.84375 222.226562 189.925781 213.128906 190.871094 C 207.964844 191.40625 202.773438 191.503906 197.582031 191.515625 C 187.886719 191.539062 178.199219 191.246094 168.570312 190.078125 C 159.257812 188.953125 150.019531 187.34375 140.953125 184.894531 C 140.144531 184.675781 139.019531 184.804688 138.746094 183.597656 C 139.628906 182.976562 140.410156 183.644531 141.199219 183.84375 C 149.328125 185.894531 157.550781 187.449219 165.867188 188.5 C 178.300781 190.117188 190.785156 190.480469 203.300781 190.21875 C 212.527344 190.023438 221.589844 188.625 230.585938 186.667969 C 233.640625 186.003906 236.6875 185.3125 239.738281 184.644531 C 240.449219 184.488281 241.175781 184.234375 242.101562 184.679688 Z M 242.101562 184.679688 " fill-opacity="1" fill-rule="nonzero"/><path fill="#ffffff" d="M 117.023438 177.988281 C 111.65625 177.734375 94.8125 166.621094 93.640625 162.636719 C 94.226562 162.515625 94.574219 162.886719 94.90625 163.214844 C 100.613281 168.882812 107.449219 172.84375 114.632812 176.285156 C 115.304688 176.605469 115.953125 176.980469 116.59375 177.359375 C 116.730469 177.441406 116.792969 177.644531 117.023438 177.988281 Z M 117.023438 177.988281 " fill-opacity="1" fill-rule="nonzero"/><path fill="#ffffff" d="M 283.21875 162.480469 C 282.433594 165.382812 276.117188 170.230469 273.253906 170.128906 C 274.078125 168.753906 275.632812 168.550781 276.730469 167.71875 C 277.828125 166.894531 278.894531 166.042969 279.960938 165.175781 C 281.019531 164.308594 281.6875 162.9375 283.21875 162.480469 Z M 283.21875 162.480469 " fill-opacity="1" fill-rule="nonzero"/><path fill="#ffffff" d="M 258.605469 177.695312 C 257.351562 179.441406 254.660156 180.746094 253.042969 180.515625 C 253.796875 179.472656 256.578125 178.023438 258.605469 177.695312 Z M 258.605469 177.695312 " fill-opacity="1" fill-rule="nonzero"/><path fill="#ffffff" d="M 123.445312 178.726562 C 123.402344 178.835938 123.398438 178.914062 123.355469 178.945312 C 122.625 179.566406 121.902344 179.402344 121.207031 178.890625 C 121.167969 178.859375 121.144531 178.824219 121.125 178.78125 C 121.109375 178.734375 121.101562 178.691406 121.109375 178.644531 C 121.113281 178.597656 121.132812 178.554688 121.160156 178.515625 C 121.1875 178.480469 121.226562 178.449219 121.269531 178.433594 C 122.046875 178.113281 122.796875 178.09375 123.445312 178.726562 Z M 123.445312 178.726562 " fill-opacity="1" fill-rule="nonzero"/><path fill="#ffffff" d="M 193.386719 243.183594 C 193.414062 244.894531 192.835938 245.882812 191.1875 246.492188 C 189.378906 247.183594 187.628906 248 185.9375 248.949219 C 183.550781 250.265625 181.191406 250.363281 178.90625 248.667969 C 177.941406 247.953125 176.777344 247.644531 175.710938 247.128906 C 173.980469 246.296875 173.027344 244.949219 173.0625 242.976562 C 173.089844 241.117188 173.996094 239.738281 175.734375 239.085938 C 176.441406 238.828125 177.167969 238.65625 177.914062 238.570312 C 179.289062 238.398438 180.550781 238.148438 181.695312 237.183594 C 181.976562 236.945312 182.289062 236.765625 182.632812 236.644531 C 182.980469 236.519531 183.335938 236.464844 183.703125 236.476562 C 184.070312 236.488281 184.425781 236.5625 184.765625 236.707031 C 185.101562 236.847656 185.40625 237.046875 185.667969 237.300781 C 186.691406 238.234375 187.839844 238.390625 189.085938 238.5625 C 191.695312 238.925781 193.347656 240.75 193.386719 243.183594 Z M 182.898438 247.402344 C 183.390625 247.398438 184.1875 247.042969 184.953125 246.617188 C 186.46875 245.753906 188.042969 245.011719 189.675781 244.390625 C 191.128906 243.847656 191.289062 242.539062 190.074219 241.558594 C 189.410156 241.027344 188.601562 240.90625 187.789062 240.855469 C 186.578125 240.777344 185.457031 240.507812 184.5625 239.609375 C 183.929688 238.972656 183.222656 238.976562 182.558594 239.542969 C 181.511719 240.433594 180.25 240.714844 178.941406 240.894531 C 178.449219 240.964844 177.960938 241.074219 177.476562 241.183594 C 176.582031 241.390625 175.8125 241.75 175.667969 242.800781 C 175.539062 243.742188 175.949219 244.449219 177.105469 244.929688 C 178.445312 245.449219 179.710938 246.109375 180.90625 246.90625 C 181.375 247.234375 181.910156 247.398438 182.898438 247.402344 Z M 182.898438 247.402344 " fill-opacity="1" fill-rule="nonzero"/><path fill="#ffffff" d="M 268.878906 226.988281 C 267.816406 226.976562 266.761719 226.914062 265.707031 226.792969 C 263.246094 226.398438 262.183594 224.710938 262.859375 222.304688 C 263.097656 221.453125 263.484375 220.671875 264.011719 219.960938 C 264.539062 219.25 265.175781 218.660156 265.925781 218.183594 C 266.789062 217.554688 267.726562 217.070312 268.742188 216.730469 C 270.421875 216.21875 271.949219 215.414062 273.316406 214.3125 C 274.574219 213.289062 276.015625 212.753906 277.636719 212.710938 C 279.289062 212.699219 280.1875 213.320312 280.730469 214.886719 C 281.71875 217.734375 281.339844 220.304688 279.078125 222.441406 C 277.476562 223.9375 275.722656 225.226562 273.8125 226.308594 C 272.253906 227.207031 270.566406 227.066406 268.878906 226.988281 Z M 268.972656 224.433594 C 270.007812 224.527344 271.277344 224.769531 272.441406 224.136719 C 274.386719 223.105469 276.125 221.800781 277.652344 220.21875 C 278.054688 219.8125 278.34375 219.335938 278.523438 218.792969 C 278.699219 218.246094 278.742188 217.691406 278.65625 217.128906 C 278.414062 215.28125 277.878906 214.929688 276.199219 215.636719 C 275.605469 215.847656 275.0625 216.148438 274.570312 216.539062 C 273.21875 217.792969 271.644531 218.632812 269.851562 219.058594 C 269.074219 219.296875 268.335938 219.625 267.640625 220.046875 C 266.488281 220.679688 265.722656 221.625 265.351562 222.886719 C 265.09375 223.628906 265.382812 224.144531 266.152344 224.246094 C 267.015625 224.363281 267.894531 224.367188 268.972656 224.433594 Z M 268.972656 224.433594 " fill-opacity="1" fill-rule="nonzero"/><path fill="#ffffff" d="M 231.453125 243.941406 C 230.210938 244.070312 228.96875 244.199219 227.726562 244.328125 C 226.210938 244.546875 224.734375 244.394531 223.296875 243.871094 C 221.515625 243.15625 220.488281 241.859375 220.316406 239.914062 C 220.148438 237.992188 220.8125 236.46875 222.507812 235.488281 C 225.113281 233.980469 227.855469 232.6875 230.78125 232.035156 C 233.476562 231.4375 235.984375 232.261719 238.039062 234.1875 C 238.914062 235.007812 239.210938 236.070312 239.183594 237.25 C 239.109375 240.480469 236.46875 244.386719 232.210938 244.03125 C 231.960938 244.011719 231.710938 244.027344 231.460938 244.027344 Z M 231.367188 241.402344 C 232.023438 241.445312 232.679688 241.441406 233.335938 241.390625 C 235.054688 241.113281 236.59375 239.175781 236.621094 237.328125 C 236.644531 236.054688 235.632812 235.113281 233.707031 234.664062 C 232.980469 234.496094 232.230469 234.265625 231.488281 234.472656 C 228.839844 235.207031 226.261719 236.121094 223.917969 237.597656 C 223.171875 238.066406 222.746094 238.714844 222.84375 239.617188 C 222.878906 240.070312 223.039062 240.46875 223.324219 240.820312 C 223.609375 241.167969 223.972656 241.40625 224.40625 241.53125 C 225.316406 241.800781 226.242188 241.878906 227.183594 241.761719 C 228.675781 241.648438 230.164062 241.507812 231.367188 241.402344 Z M 231.367188 241.402344 " fill-opacity="1" fill-rule="nonzero"/><path fill="#ffffff" d="M 114.398438 222.902344 C 114.449219 225.332031 113.5625 226.769531 111.679688 227.476562 C 109.625 228.246094 107.042969 227.886719 105.964844 226.394531 C 104.882812 224.894531 103.523438 223.765625 102.152344 222.585938 C 99.355469 220.183594 100.085938 216.25 103.480469 214.886719 C 104.003906 214.65625 104.554688 214.550781 105.125 214.574219 C 105.695312 214.597656 106.234375 214.746094 106.738281 215.019531 C 107.839844 215.617188 108.988281 216.101562 110.1875 216.464844 C 112.941406 217.261719 114.382812 219.03125 114.339844 221.941406 C 114.335938 222.316406 114.382812 222.6875 114.398438 222.902344 Z M 111.953125 222.621094 C 111.90625 221.222656 111.851562 219.824219 110.265625 219.195312 C 108.707031 218.574219 107.113281 218.046875 105.597656 217.308594 C 104.765625 216.902344 103.894531 217.304688 103.328125 218.101562 C 102.765625 218.898438 102.828125 219.617188 103.582031 220.453125 C 103.835938 220.730469 104.117188 220.972656 104.425781 221.183594 C 105.640625 221.976562 106.648438 222.972656 107.460938 224.175781 C 108.183594 225.28125 109.3125 225.554688 110.574219 225.136719 C 111.679688 224.773438 111.976562 224.226562 111.953125 222.621094 Z M 111.953125 222.621094 " fill-opacity="1" fill-rule="nonzero"/><path fill="#ffffff" d="M 145.898438 237.324219 C 145.996094 240.023438 145.398438 241.222656 143.746094 241.902344 C 141.550781 242.800781 139.492188 242.375 138.003906 240.578125 C 137.171875 239.546875 136.152344 238.757812 134.945312 238.207031 C 133.425781 237.507812 132.445312 236.25 132.492188 234.53125 C 132.539062 232.75 133.265625 231.265625 135.058594 230.535156 C 135.464844 230.371094 135.851562 230.167969 136.257812 230.007812 C 140.699219 228.269531 145.144531 230.9375 145.746094 235.707031 C 145.824219 236.328125 145.863281 236.949219 145.898438 237.324219 Z M 143.355469 237.347656 C 143.335938 236.960938 143.335938 236.585938 143.292969 236.21875 C 142.882812 232.671875 139.628906 230.945312 136.449219 232.558594 C 135.667969 232.957031 135.113281 233.492188 135.089844 234.398438 C 135.070312 235.269531 135.644531 235.765625 136.371094 236.050781 C 137.71875 236.621094 138.835938 237.484375 139.722656 238.644531 C 140.589844 239.695312 141.507812 239.949219 142.496094 239.566406 C 143.617188 239.136719 143.265625 238.15625 143.355469 237.347656 Z M 143.355469 237.347656 " fill-opacity="1" fill-rule="nonzero"/><path fill="#ffffff" d="M 225.226562 246.777344 C 221.363281 247.429688 218.378906 246.039062 216.25 242.789062 C 215.667969 242.003906 215.417969 241.121094 215.5 240.144531 C 215.539062 239.820312 215.6875 239.488281 216.039062 239.472656 C 216.40625 239.457031 216.480469 239.796875 216.578125 240.113281 C 217.808594 244.128906 220.78125 246.113281 224.90625 245.671875 C 225.902344 245.566406 226.894531 245.421875 227.890625 245.617188 C 228.253906 245.6875 228.6875 245.824219 228.6875 246.273438 C 228.683594 246.785156 228.207031 246.761719 227.847656 246.769531 C 226.976562 246.789062 226.101562 246.777344 225.226562 246.777344 Z M 225.226562 246.777344 " fill-opacity="1" fill-rule="nonzero"/><path fill="#ffffff" d="M 130.515625 234.601562 C 130.433594 235.320312 130.546875 236.011719 130.851562 236.667969 C 131.152344 237.324219 131.605469 237.855469 132.207031 238.261719 C 133.554688 239.183594 134.734375 240.285156 135.742188 241.566406 C 136.207031 242.167969 136.902344 242.503906 137.53125 242.910156 C 137.78125 243.074219 138.109375 243.285156 137.976562 243.644531 C 137.804688 244.097656 137.371094 244.003906 137.015625 243.941406 C 136.304688 243.835938 135.710938 243.515625 135.230469 242.980469 C 133.847656 241.359375 132.167969 240.070312 130.628906 238.621094 C 129.332031 237.402344 128.933594 235.738281 129.449219 233.964844 C 129.570312 233.554688 129.757812 233.042969 130.3125 233.1875 C 130.785156 233.3125 130.617188 233.785156 130.585938 234.144531 C 130.574219 234.265625 130.550781 234.390625 130.515625 234.601562 Z M 130.515625 234.601562 " fill-opacity="1" fill-rule="nonzero"/><path fill="#ffffff" d="M 97.035156 219.507812 C 97.183594 218.375 97.324219 217.132812 98.097656 216.089844 C 98.289062 215.828125 98.570312 215.628906 98.894531 215.789062 C 99.230469 215.957031 99.1875 216.300781 99.101562 216.605469 C 98.910156 217.261719 98.652344 217.902344 98.515625 218.566406 C 98.164062 220.3125 98.570312 221.875 100.1875 222.753906 C 101.765625 223.613281 102.4375 225.207031 103.574219 226.414062 C 103.707031 226.519531 103.773438 226.65625 103.777344 226.824219 C 103.777344 226.996094 103.714844 227.132812 103.585938 227.242188 C 103.363281 227.40625 103.128906 227.429688 102.882812 227.304688 C 102.285156 227.050781 101.839844 226.628906 101.550781 226.050781 C 101.007812 225.113281 100.261719 224.386719 99.316406 223.863281 C 97.71875 222.914062 97.136719 221.386719 97.035156 219.507812 Z M 97.035156 219.507812 " fill-opacity="1" fill-rule="nonzero"/><path fill="#ffffff" d="M 176.742188 235.175781 C 177.800781 235.476562 178.824219 235.027344 179.832031 234.496094 C 179.964844 234.398438 180.117188 234.363281 180.277344 234.382812 C 180.441406 234.402344 180.578125 234.476562 180.683594 234.605469 C 180.890625 234.917969 180.636719 235.191406 180.398438 235.398438 C 179.503906 236.160156 178.46875 236.609375 177.296875 236.425781 C 174.5625 236.003906 172.707031 237.105469 171.558594 239.550781 C 171.507812 239.664062 171.445312 239.773438 171.378906 239.875 C 171.167969 240.183594 170.9375 240.574219 170.507812 240.304688 C 170.230469 240.128906 170.292969 239.761719 170.367188 239.445312 C 171.003906 236.796875 173.628906 235 176.742188 235.175781 Z M 176.742188 235.175781 " fill-opacity="1" fill-rule="nonzero"/><path fill="#ffffff" d="M 275.566406 229.054688 C 274.050781 230.5 271.394531 231.417969 269.507812 231.09375 C 268.214844 230.867188 266.914062 230.757812 265.605469 230.769531 C 265.292969 230.78125 264.980469 230.757812 264.675781 230.695312 C 264.128906 230.574219 263.351562 230.402344 263.460938 229.78125 C 263.621094 228.890625 264.34375 229.574219 264.820312 229.582031 C 266.628906 229.59375 268.425781 229.734375 270.214844 230 C 271.234375 230.15625 272.167969 229.699219 273.085938 229.308594 C 273.828125 228.992188 274.566406 228.625 275.566406 229.054688 Z M 275.566406 229.054688 " fill-opacity="1" fill-rule="nonzero"/><path fill="#ffffff" d="M 235.75 229.417969 C 235.359375 229.402344 234.660156 229.800781 234.566406 229.085938 C 234.488281 228.480469 235.214844 228.453125 235.683594 228.359375 C 238.15625 227.851562 241.625 230.132812 242.164062 232.617188 C 242.21875 232.925781 242.230469 233.230469 242.199219 233.542969 C 242.203125 233.636719 242.175781 233.722656 242.113281 233.800781 C 242.050781 233.875 241.972656 233.917969 241.875 233.929688 C 241.660156 233.964844 241.511719 233.882812 241.429688 233.675781 C 241.253906 233.28125 241.113281 232.867188 240.921875 232.472656 C 240.699219 231.984375 240.40625 231.542969 240.046875 231.144531 C 239.6875 230.746094 239.277344 230.410156 238.8125 230.136719 C 238.351562 229.863281 237.859375 229.667969 237.335938 229.542969 C 236.816406 229.421875 236.285156 229.378906 235.75 229.417969 Z M 235.75 229.417969 " fill-opacity="1" fill-rule="nonzero"/><path fill="#ffffff" d="M 188.878906 252.101562 C 188.386719 252.089844 188.074219 251.980469 188.015625 251.632812 C 187.972656 251.382812 188.199219 251.210938 188.445312 251.105469 C 189.359375 250.71875 190.265625 250.300781 191.1875 249.929688 C 192.675781 249.328125 194.296875 249.011719 195.539062 247.875 C 195.628906 247.777344 195.734375 247.722656 195.863281 247.710938 C 195.992188 247.695312 196.113281 247.726562 196.21875 247.804688 C 196.523438 248.054688 196.394531 248.367188 196.226562 248.632812 C 195.832031 249.222656 195.308594 249.648438 194.644531 249.902344 C 192.925781 250.621094 191.1875 251.300781 189.453125 251.980469 C 189.265625 252.042969 189.074219 252.082031 188.878906 252.101562 Z M 188.878906 252.101562 " fill-opacity="1" fill-rule="nonzero"/><path fill="#ffffff" d="M 148.597656 240.230469 C 148.207031 242.347656 147.277344 244.246094 145.214844 245.417969 C 144.945312 245.570312 144.652344 245.675781 144.34375 245.734375 C 143.925781 245.8125 143.398438 245.921875 143.246094 245.378906 C 143.109375 244.898438 143.601562 244.816406 143.941406 244.695312 C 145.78125 244.054688 146.582031 242.539062 147.183594 240.855469 C 147.289062 240.5625 147.335938 240.25 147.449219 239.960938 C 147.585938 239.597656 147.523438 238.96875 148.191406 239.164062 C 148.617188 239.285156 148.601562 239.730469 148.597656 240.230469 Z M 148.597656 240.230469 " fill-opacity="1" fill-rule="nonzero"/><path fill="#ffffff" d="M 233.625 246.722656 C 233.347656 246.6875 233.070312 246.632812 232.796875 246.566406 C 232.671875 246.546875 232.566406 246.488281 232.476562 246.394531 C 232.390625 246.300781 232.339844 246.191406 232.332031 246.0625 C 232.320312 245.933594 232.359375 245.820312 232.449219 245.726562 C 232.542969 245.628906 232.652344 245.582031 232.78125 245.585938 C 234.441406 245.59375 235.921875 245 237.378906 244.304688 C 237.488281 244.234375 237.609375 244.210938 237.738281 244.230469 C 237.867188 244.246094 237.976562 244.304688 238.0625 244.402344 C 238.304688 244.730469 238.070312 244.992188 237.828125 245.175781 C 236.609375 246.097656 235.195312 246.496094 233.625 246.722656 Z M 233.625 246.722656 " fill-opacity="1" fill-rule="nonzero"/><path fill="#ffffff" d="M 117.011719 221.011719 C 116.972656 221.28125 116.910156 221.542969 116.828125 221.804688 C 116.789062 221.929688 116.71875 222.027344 116.613281 222.105469 C 116.507812 222.179688 116.390625 222.214844 116.261719 222.210938 C 116.132812 222.222656 116.019531 222.179688 115.925781 222.085938 C 115.832031 221.992188 115.792969 221.878906 115.804688 221.746094 C 115.84375 220.792969 115.609375 219.90625 115.113281 219.089844 C 115.03125 218.984375 114.996094 218.867188 115.007812 218.738281 C 115.015625 218.609375 115.066406 218.5 115.160156 218.40625 C 115.46875 218.15625 115.753906 218.335938 115.972656 218.558594 C 116.605469 219.253906 116.953125 220.070312 117.011719 221.011719 Z M 117.011719 221.011719 " fill-opacity="1" fill-rule="nonzero"/><path fill="#ffffff" d="M 188.820312 235.730469 C 188.738281 236.078125 188.484375 236.308594 188.164062 236.121094 C 187.308594 235.632812 186.484375 235.101562 185.691406 234.519531 C 185.546875 234.414062 185.5 234.273438 185.546875 234.101562 C 185.597656 233.929688 185.710938 233.835938 185.886719 233.824219 C 186.695312 233.617188 188.777344 234.980469 188.820312 235.730469 Z M 188.820312 235.730469 " fill-opacity="1" fill-rule="nonzero"/><path fill="#ffffff" d="M 145.125 229.242188 C 145.84375 229.285156 147.332031 231.042969 147.183594 231.679688 C 147.175781 231.742188 147.152344 231.800781 147.113281 231.851562 C 147.074219 231.90625 147.027344 231.945312 146.96875 231.96875 C 146.910156 231.996094 146.847656 232.007812 146.785156 232 C 146.71875 231.996094 146.660156 231.976562 146.609375 231.9375 C 145.722656 231.414062 145.089844 230.671875 144.707031 229.714844 C 144.605469 229.449219 144.863281 229.285156 145.125 229.242188 Z M 145.125 229.242188 " fill-opacity="1" fill-rule="nonzero"/><path fill="#ffffff" d="M 281.113281 224.722656 C 281.019531 225.453125 279.945312 226.445312 279.40625 226.460938 C 279.308594 226.46875 279.226562 226.441406 279.152344 226.375 C 279.082031 226.3125 279.046875 226.230469 279.046875 226.132812 C 278.992188 225.554688 280.238281 224.398438 280.800781 224.511719 C 280.984375 224.546875 281.125 224.679688 281.113281 224.722656 Z M 281.113281 224.722656 " fill-opacity="1" fill-rule="nonzero"/><path fill="#ffffff" d="M 107.589844 230.675781 C 107.464844 230.667969 107.347656 230.648438 107.226562 230.617188 C 106.800781 230.441406 106.121094 230.394531 106.292969 229.738281 C 106.445312 229.152344 106.996094 229.5 107.390625 229.550781 C 107.511719 229.570312 107.628906 229.605469 107.75 229.632812 C 108.050781 229.703125 108.425781 229.792969 108.410156 230.144531 C 108.386719 230.601562 107.96875 230.65625 107.589844 230.675781 Z M 107.589844 230.675781 " fill-opacity="1" fill-rule="nonzero"/><path fill="#ffffff" d="M 228.519531 229.976562 C 228.320312 229.972656 228.128906 229.914062 228.097656 229.726562 C 228.03125 229.371094 228.273438 229.167969 228.570312 229.070312 C 228.660156 229.042969 228.746094 229.054688 228.824219 229.105469 C 228.902344 229.15625 228.949219 229.230469 228.964844 229.320312 C 229.054688 229.695312 228.78125 229.84375 228.519531 229.976562 Z M 228.519531 229.976562 " fill-opacity="1" fill-rule="nonzero"/><path fill="#ffffff" d="M 114.476562 133.214844 C 114.175781 139.144531 116.253906 144.210938 120.199219 148.558594 C 121.753906 150.269531 123.429688 151.871094 125.035156 153.53125 C 125.972656 154.460938 126.773438 155.496094 127.441406 156.636719 C 129.585938 160.5 127.386719 164.582031 122.980469 164.910156 C 121.019531 165.0625 119.113281 164.820312 117.253906 164.183594 C 108.992188 161.328125 102.308594 156.472656 97.945312 148.75 C 96.253906 145.824219 95.375 142.667969 95.308594 139.285156 C 95.265625 136.863281 95.804688 134.578125 96.929688 132.429688 C 98.855469 128.683594 101.546875 125.621094 105.222656 123.480469 C 105.765625 123.160156 106.355469 122.957031 106.980469 122.878906 C 107.382812 122.835938 107.789062 122.828125 108.191406 122.859375 C 108.59375 122.886719 108.992188 122.953125 109.382812 123.050781 C 109.773438 123.152344 110.15625 123.289062 110.523438 123.457031 C 110.890625 123.628906 111.238281 123.828125 111.570312 124.0625 C 111.898438 124.296875 112.207031 124.558594 112.488281 124.84375 C 112.773438 125.132812 113.027344 125.445312 113.253906 125.78125 C 113.480469 126.117188 113.675781 126.46875 113.839844 126.839844 C 114 127.210938 114.128906 127.589844 114.222656 127.984375 C 114.648438 129.71875 114.585938 131.453125 114.476562 133.214844 Z M 113.085938 133.105469 C 113.335938 131.28125 113.222656 129.480469 112.738281 127.703125 C 112.578125 127.125 112.308594 126.605469 111.933594 126.140625 C 111.554688 125.675781 111.101562 125.304688 110.570312 125.03125 C 108.164062 123.675781 105.941406 124.078125 103.980469 125.761719 C 96.566406 132.136719 94.714844 139.183594 98.679688 147.054688 C 102.796875 155.226562 109.679688 160.125 118.136719 163.046875 C 119.765625 163.589844 121.429688 163.765625 123.136719 163.574219 C 126.265625 163.261719 127.859375 160.328125 126.425781 157.539062 C 125.714844 156.277344 124.832031 155.148438 123.777344 154.15625 C 122.121094 152.457031 120.371094 150.835938 118.804688 149.058594 C 114.800781 144.503906 112.804688 139.199219 113.085938 133.105469 Z M 113.085938 133.105469 " fill-opacity="1" fill-rule="nonzero"/><path fill="#ffffff" d="M 281.070312 140.523438 C 281.15625 145.03125 279.195312 148.773438 276.429688 152.085938 C 273.378906 155.695312 269.644531 158.339844 265.222656 160.015625 C 263.457031 160.734375 261.625 161.027344 259.722656 160.890625 C 259.222656 160.863281 258.730469 160.792969 258.242188 160.671875 C 255.269531 159.84375 254.304688 157.285156 255.976562 154.699219 C 256.582031 153.820312 257.300781 153.039062 258.128906 152.363281 C 259.261719 151.378906 260.421875 150.429688 261.554688 149.453125 C 264.101562 147.285156 266.210938 144.757812 267.882812 141.863281 C 268.488281 140.902344 268.9375 139.878906 269.230469 138.78125 C 269.65625 136.839844 269.714844 134.992188 268.082031 133.402344 C 267.816406 133.15625 267.589844 132.875 267.410156 132.558594 C 267.230469 132.242188 267.105469 131.902344 267.03125 131.546875 C 266.957031 131.191406 266.9375 130.832031 266.976562 130.46875 C 267.015625 130.105469 267.109375 129.757812 267.257812 129.425781 C 267.835938 128 269.039062 127.402344 270.488281 127.21875 C 272.113281 127.03125 273.59375 127.402344 274.9375 128.335938 C 278.628906 130.710938 280.320312 134.277344 280.933594 138.464844 C 281.035156 139.144531 281.027344 139.835938 281.070312 140.523438 Z M 279.714844 142.042969 C 279.671875 137.308594 278.789062 134.289062 276.710938 131.703125 C 275.476562 130.164062 273.980469 128.921875 271.957031 128.578125 C 270.671875 128.363281 269.363281 128.449219 268.613281 129.691406 C 267.875 130.910156 268.519531 131.984375 269.34375 132.910156 C 270.40625 134.105469 270.757812 135.503906 270.769531 137.0625 C 270.746094 138.589844 270.375 140.027344 269.65625 141.378906 C 268.007812 144.660156 265.804688 147.515625 263.042969 149.9375 C 261.6875 151.140625 260.277344 152.285156 258.914062 153.480469 C 258.066406 154.222656 257.234375 154.996094 256.769531 156.058594 C 256.234375 157.285156 256.535156 158.273438 257.664062 158.949219 C 258.273438 159.292969 258.929688 159.476562 259.628906 159.507812 C 261.539062 159.65625 263.371094 159.339844 265.125 158.570312 C 269.089844 156.859375 272.609375 154.460938 275.351562 151.132812 C 277.847656 148.105469 279.707031 144.710938 279.714844 142.042969 Z M 279.714844 142.042969 " fill-opacity="1" fill-rule="nonzero"/><path fill="#ffffff" d="M 256.242188 139.492188 C 256.566406 140.238281 256.058594 140.777344 255.683594 141.308594 C 254.679688 142.683594 253.480469 143.863281 252.09375 144.84375 C 249.335938 146.882812 246.355469 148.5 243.148438 149.707031 C 239.941406 150.910156 236.628906 151.652344 233.214844 151.933594 C 230.289062 152.183594 227.351562 152.207031 224.429688 152.539062 C 223.058594 152.660156 221.714844 152.917969 220.394531 153.316406 C 219.871094 153.488281 219.324219 153.707031 218.777344 153.339844 C 218.644531 152.734375 219.125 152.585938 219.507812 152.425781 C 220.957031 151.824219 222.464844 151.441406 224.03125 151.285156 C 228.191406 150.871094 232.394531 150.886719 236.519531 150.113281 C 243.714844 148.761719 250.054688 145.8125 254.96875 140.214844 C 255.289062 139.851562 255.550781 139.375 256.242188 139.492188 Z M 256.242188 139.492188 " fill-opacity="1" fill-rule="nonzero"/><path fill="#ffffff" d="M 120.59375 128.789062 C 120.640625 128.222656 120.566406 127.730469 121.058594 127.699219 C 121.496094 127.667969 121.625 128.128906 121.703125 128.492188 C 122.9375 134.289062 126.738281 138.253906 131.199219 141.730469 C 134.210938 144.078125 137.515625 145.96875 140.863281 147.789062 C 141.429688 148.097656 142.550781 148.351562 142.253906 149.019531 C 141.882812 149.859375 140.949219 149.214844 140.339844 148.90625 C 135.195312 146.296875 130.320312 143.292969 126.273438 139.109375 C 123.816406 136.566406 121.839844 133.710938 120.90625 130.238281 C 120.761719 129.699219 120.671875 129.144531 120.59375 128.789062 Z M 120.59375 128.789062 " fill-opacity="1" fill-rule="nonzero"/><path fill="#ffffff" d="M 195.167969 157.441406 C 194.632812 158.15625 193.898438 157.972656 193.25 158 C 190.789062 158.105469 188.410156 157.636719 186.0625 156.945312 C 182.46875 155.894531 178.941406 154.625 175.277344 153.8125 C 172.582031 153.214844 169.882812 152.769531 167.121094 153.339844 C 166.996094 153.367188 166.875 153.378906 166.746094 153.375 C 166.207031 153.355469 165.394531 153.5625 165.332031 152.871094 C 165.257812 152.113281 166.117188 152.296875 166.617188 152.195312 C 170.007812 151.507812 173.335938 151.933594 176.617188 152.828125 C 179.746094 153.679688 182.859375 154.601562 185.964844 155.539062 C 188.351562 156.316406 190.804688 156.746094 193.3125 156.824219 C 193.96875 156.835938 194.679688 156.765625 195.167969 157.441406 Z M 195.167969 157.441406 " fill-opacity="1" fill-rule="nonzero"/><path fill="#ffffff" d="M 131.128906 164.730469 C 131.132812 164.214844 131.230469 163.714844 131.429688 163.234375 C 131.628906 162.757812 131.910156 162.332031 132.273438 161.960938 C 132.636719 161.59375 133.054688 161.304688 133.53125 161.097656 C 134.007812 160.890625 134.503906 160.78125 135.019531 160.769531 C 135.300781 160.765625 135.578125 160.792969 135.855469 160.84375 C 136.128906 160.894531 136.398438 160.976562 136.65625 161.078125 C 136.917969 161.183594 137.164062 161.316406 137.398438 161.46875 C 137.632812 161.621094 137.851562 161.796875 138.050781 161.996094 C 138.25 162.191406 138.429688 162.40625 138.585938 162.636719 C 138.746094 162.871094 138.878906 163.113281 138.988281 163.371094 C 139.097656 163.632812 139.179688 163.898438 139.234375 164.171875 C 139.292969 164.445312 139.320312 164.722656 139.324219 165.003906 C 139.324219 165.261719 139.300781 165.515625 139.25 165.769531 C 139.199219 166.023438 139.125 166.265625 139.023438 166.503906 C 138.921875 166.742188 138.800781 166.964844 138.652344 167.179688 C 138.507812 167.390625 138.339844 167.585938 138.15625 167.765625 C 137.96875 167.945312 137.769531 168.101562 137.550781 168.238281 C 137.332031 168.375 137.101562 168.492188 136.863281 168.582031 C 136.621094 168.671875 136.375 168.738281 136.117188 168.777344 C 135.863281 168.820312 135.609375 168.835938 135.351562 168.824219 C 135.078125 168.824219 134.808594 168.800781 134.539062 168.753906 C 134.273438 168.703125 134.011719 168.628906 133.757812 168.527344 C 133.503906 168.425781 133.261719 168.300781 133.035156 168.152344 C 132.804688 168.003906 132.59375 167.835938 132.398438 167.648438 C 132.203125 167.457031 132.027344 167.25 131.871094 167.027344 C 131.714844 166.800781 131.582031 166.566406 131.472656 166.316406 C 131.367188 166.066406 131.28125 165.804688 131.222656 165.539062 C 131.164062 165.273438 131.132812 165.003906 131.128906 164.730469 Z M 135.386719 167.425781 C 135.714844 167.441406 136.035156 167.390625 136.34375 167.277344 C 136.65625 167.164062 136.933594 166.996094 137.175781 166.769531 C 137.417969 166.546875 137.605469 166.285156 137.742188 165.984375 C 137.878906 165.683594 137.949219 165.367188 137.960938 165.035156 C 137.964844 164.660156 137.898438 164.300781 137.761719 163.949219 C 137.621094 163.601562 137.425781 163.289062 137.164062 163.019531 C 136.90625 162.746094 136.605469 162.535156 136.261719 162.382812 C 135.921875 162.226562 135.5625 162.144531 135.1875 162.128906 C 133.65625 162.125 132.539062 163.171875 132.527344 164.625 C 132.527344 165 132.597656 165.363281 132.746094 165.710938 C 132.890625 166.054688 133.097656 166.363281 133.367188 166.625 C 133.636719 166.886719 133.945312 167.089844 134.296875 167.226562 C 134.644531 167.367188 135.007812 167.433594 135.386719 167.425781 Z M 135.386719 167.425781 " fill-opacity="1" fill-rule="nonzero"/><path fill="#ffffff" d="M 151.75 150.730469 C 150.449219 151.097656 149.191406 150.984375 147.976562 150.390625 C 147.855469 150.347656 147.765625 150.269531 147.707031 150.152344 C 147.648438 150.035156 147.636719 149.917969 147.675781 149.792969 C 147.734375 149.597656 147.890625 149.445312 148.070312 149.480469 C 149.21875 149.726562 150.492188 149.597656 151.75 150.730469 Z M 151.75 150.730469 " fill-opacity="1" fill-rule="nonzero"/><path fill="#ffffff" d="M 202.890625 157.359375 C 202.640625 157.339844 202.394531 157.304688 202.148438 157.25 C 201.984375 157.203125 201.792969 157.128906 201.792969 156.886719 C 201.777344 156.675781 201.867188 156.53125 202.0625 156.457031 C 203.007812 156.128906 203.980469 155.980469 204.980469 156.019531 C 205.164062 156.050781 205.296875 156.148438 205.386719 156.3125 C 205.507812 156.597656 205.273438 156.769531 205.058594 156.890625 C 204.378906 157.257812 203.601562 157.160156 202.890625 157.359375 Z M 202.890625 157.359375 " fill-opacity="1" fill-rule="nonzero"/><path fill="#ffffff" d="M 260.378906 133.214844 C 260.296875 133.664062 260.191406 134.191406 259.632812 134.300781 C 259.273438 134.371094 259.128906 134.027344 259.191406 133.691406 C 259.277344 133.21875 259.339844 132.660156 259.910156 132.554688 C 260.265625 132.492188 260.382812 132.84375 260.378906 133.214844 Z M 260.378906 133.214844 " fill-opacity="1" fill-rule="nonzero"/><path fill="#ffffff" d="M 137.28125 132.242188 C 136.441406 132.25 136.027344 131.730469 135.632812 131.28125 C 127.734375 122.265625 124.300781 112.140625 127.957031 100.269531 C 128.199219 99.355469 128.566406 98.5 129.0625 97.695312 C 129.234375 97.4375 129.484375 97.160156 129.832031 97.339844 C 130.167969 97.515625 130.125 97.863281 130 98.160156 C 129.234375 100.011719 128.671875 101.925781 128.308594 103.898438 C 127.671875 107.019531 127.585938 110.15625 128.050781 113.308594 C 128.511719 116.460938 129.496094 119.441406 131.003906 122.25 C 132.484375 125.160156 134.285156 127.855469 136.410156 130.335938 C 136.847656 130.835938 137.414062 131.296875 137.28125 132.242188 Z M 137.28125 132.242188 " fill-opacity="1" fill-rule="nonzero"/><path fill="#ffffff" d="M 141.796875 135.34375 C 142.0625 135.054688 142.316406 134.980469 142.550781 135.074219 C 143.699219 135.566406 144.789062 136.167969 145.816406 136.878906 C 146.0625 137.039062 146.355469 137.300781 146.1875 137.648438 C 146.011719 138.011719 145.660156 137.910156 145.382812 137.769531 C 144.085938 137.113281 142.625 136.679688 141.796875 135.34375 Z M 141.796875 135.34375 " fill-opacity="1" fill-rule="nonzero"/><path fill="#ffffff" d="M 195.671875 71.980469 C 195.222656 71.96875 194.777344 71.929688 194.738281 71.496094 C 194.699219 71.039062 195.171875 70.972656 195.519531 70.921875 C 196.09375 70.839844 196.65625 70.378906 197.25 70.832031 C 197.332031 70.929688 197.355469 71.035156 197.316406 71.15625 C 196.945312 71.828125 196.277344 71.921875 195.671875 71.980469 Z M 195.671875 71.980469 " fill-opacity="1" fill-rule="nonzero"/><path fill="#ffffff" d="M 189.007812 105.550781 C 187.945312 105.578125 187.222656 105.097656 186.492188 104.652344 C 183.9375 103.0625 181.605469 101.191406 179.5 99.039062 C 176.804688 96.347656 174.175781 93.59375 171.503906 90.882812 C 169.265625 88.5625 166.679688 86.738281 163.742188 85.414062 C 163.003906 85.085938 162.214844 84.871094 161.457031 84.582031 C 161.332031 84.554688 161.230469 84.484375 161.160156 84.375 C 161.089844 84.261719 161.070312 84.144531 161.097656 84.015625 C 161.171875 83.71875 161.425781 83.667969 161.675781 83.652344 C 162.582031 83.59375 163.402344 83.914062 164.203125 84.257812 C 167.160156 85.539062 169.777344 87.320312 172.054688 89.597656 C 173.875 91.394531 175.621094 93.273438 177.414062 95.097656 C 180.613281 98.347656 183.847656 101.554688 187.773438 103.960938 C 188.289062 104.273438 188.863281 104.589844 189.007812 105.550781 Z M 189.007812 105.550781 " fill-opacity="1" fill-rule="nonzero"/><path fill="#ffffff" d="M 227.195312 115.1875 C 227.132812 115.296875 227.078125 115.515625 226.949219 115.582031 C 226.773438 115.652344 226.597656 115.640625 226.433594 115.546875 C 224.273438 113.945312 221.730469 114.070312 219.25 113.953125 C 217.5625 113.90625 215.875 113.972656 214.199219 114.160156 C 213.390625 114.238281 212.578125 114.269531 211.765625 114.246094 C 211.304688 114.234375 210.605469 114.285156 210.625 113.605469 C 210.640625 113.082031 211.265625 113.148438 211.683594 113.09375 C 211.867188 113.070312 212.054688 113.089844 212.242188 113.078125 C 213.738281 112.980469 215.238281 112.914062 216.730469 112.777344 C 219.109375 112.597656 221.472656 112.71875 223.820312 113.140625 C 224.703125 113.242188 225.523438 113.523438 226.285156 113.984375 C 226.789062 114.234375 227.089844 114.636719 227.195312 115.1875 Z M 227.195312 115.1875 " fill-opacity="1" fill-rule="nonzero"/><path fill="#ffffff" d="M 197.429688 109.816406 C 197.257812 110.046875 197.226562 110.125 197.191406 110.132812 C 196.097656 110.261719 195.082031 109.914062 194.976562 109.367188 C 194.957031 109.269531 195.019531 109.082031 195.09375 109.054688 C 196.046875 108.671875 196.6875 109.238281 197.429688 109.816406 Z M 197.429688 109.816406 " fill-opacity="1" fill-rule="nonzero"/><path fill="#ffffff" d="M 259.792969 105.039062 C 259.875 104.667969 259.984375 104.308594 260.121094 103.957031 C 260.804688 102.460938 262.003906 101.328125 262.960938 100.023438 C 263.027344 99.90625 263.125 99.832031 263.257812 99.800781 C 263.386719 99.769531 263.507812 99.789062 263.621094 99.859375 C 263.734375 99.925781 263.804688 100.027344 263.835938 100.15625 C 263.867188 100.285156 263.84375 100.40625 263.773438 100.519531 C 263.589844 100.914062 263.378906 101.292969 263.132812 101.65625 C 262.742188 102.21875 262.289062 102.742188 261.894531 103.300781 C 260.546875 105.207031 260.675781 105.746094 262.734375 106.921875 C 263.195312 107.125 263.601562 107.410156 263.945312 107.777344 C 264.191406 108.042969 264.320312 108.351562 264.328125 108.710938 C 264.339844 109.070312 264.230469 109.390625 264.003906 109.667969 C 263.847656 109.914062 263.628906 109.996094 263.347656 109.914062 C 263.253906 109.894531 263.175781 109.847656 263.117188 109.769531 C 263.058594 109.691406 263.035156 109.605469 263.042969 109.507812 C 263.269531 108.300781 262.273438 108.097656 261.558594 107.660156 C 260.265625 106.875 259.78125 106.199219 259.792969 105.039062 Z M 259.792969 105.039062 " fill-opacity="1" fill-rule="nonzero"/><path fill="#ffffff" d="M 256.75 118 C 256.863281 118.03125 257.011719 118.023438 257.089844 118.09375 C 257.8125 118.777344 258.570312 119.433594 259.222656 120.179688 C 259.492188 120.464844 259.644531 120.800781 259.675781 121.191406 C 259.710938 121.582031 259.621094 121.941406 259.40625 122.269531 C 259.28125 122.519531 259.078125 122.640625 258.796875 122.632812 C 258.664062 122.628906 258.554688 122.574219 258.476562 122.464844 C 258.394531 122.359375 258.371094 122.242188 258.40625 122.109375 C 258.601562 121.078125 258.027344 120.484375 257.273438 119.949219 C 256.738281 119.648438 256.449219 119.191406 256.40625 118.578125 C 256.40625 118.335938 256.4375 118.078125 256.75 118 Z M 256.75 118 " fill-opacity="1" fill-rule="nonzero"/><path fill="#ffffff" d="M 258.511719 114.359375 C 258.253906 114.328125 257.953125 114.25 258.015625 113.941406 C 258.167969 113.21875 258.792969 113.035156 259.40625 112.890625 C 259.53125 112.84375 259.648438 112.847656 259.769531 112.902344 C 259.886719 112.960938 259.964844 113.050781 260.003906 113.175781 C 260.121094 113.589844 259.207031 114.304688 258.511719 114.359375 Z M 258.511719 114.359375 " fill-opacity="1" fill-rule="nonzero"/></svg>