<svg xmlns="http://www.w3.org/2000/svg" version="1.1" xmlns:xlink="http://www.w3.org/1999/xlink" width="512" height="512" x="0" y="0" viewBox="0 0 236.777 236.777" style="enable-background:new 0 0 512 512" xml:space="preserve"><g><path d="M205.664 39.868c36.805 11.184 31.443 45.56 29.976 80.073-.779 18.334 1.971 46.889-6.05 63.939-5.133 10.863-15.446 11.275-26.034 11.734-52.022 2.429-104.916 4.584-156.892 2.2-29.426-1.375-49.272-10.221-45.651-39.051-2.338-27.776-.275-57.156 2.613-84.427 1.513-14.209 4.583-28.463 19.801-33.138 10.725-3.346 24.476.092 35.659-.367 14.438-.55 28.738-2.567 43.222-2.75 33.276-.458 66.552.229 99.828.413 1.557-.001 2.657.595 3.528 1.374zm-50.601 72.098c-12.925-7.104-25.942-14.071-39.143-20.626-8.434-4.217-16.913-8.388-25.53-12.329-.367-.183-1.742-.642-3.254-1.192 3.713 24.796.458 52.114-.596 77.506 23.513-13.475 46.155-28.142 68.523-43.359z" style="" fill="#ffffff" data-original="#ff1d25" opacity="1"></path></g></svg>