<svg xmlns="http://www.w3.org/2000/svg" xmlns:xlink="http://www.w3.org/1999/xlink" width="1920" zoomAndPan="magnify" viewBox="0 0 1440 449.999984" height="600" preserveAspectRatio="xMidYMid meet" version="1.0"><defs><g/></defs><g fill="#000000" fill-opacity="1"><g transform="translate(52.66555, 255.400566)"><g><path d="M 92.375 -21.546875 C 93.28125 -22.90625 92.9375 -24.6875 91.59375 -25.703125 C 90.25 -26.609375 88.34375 -26.265625 87.4375 -24.921875 C 86.65625 -23.6875 67.125 4.265625 37.046875 -6.84375 C 8.1875 -17.515625 6.734375 -39.84375 10.546875 -56.796875 C 18.859375 -93.390625 56.6875 -129.765625 77 -127.96875 C 80.703125 -127.734375 84.40625 -126.625 87.5625 -124.59375 C 88.796875 -123.46875 89.578125 -121.90625 89.34375 -120.328125 C 89.234375 -118.640625 88.234375 -117.1875 86.765625 -116.515625 C 74.765625 -110.125 64.546875 -100.578125 57.46875 -89.015625 C 53.65625 -82.28125 52.875 -76.890625 55.109375 -73.1875 C 56.90625 -70.609375 59.9375 -69.140625 63.203125 -69.484375 C 78.015625 -69.8125 97.203125 -94.171875 98.5625 -112.8125 C 98.4375 -114.265625 99.34375 -115.625 100.6875 -116.0625 C 105.734375 -117.640625 111.125 -118.53125 116.515625 -118.53125 C 118.203125 -118.53125 119.4375 -119.890625 119.4375 -121.5625 C 119.4375 -123.140625 118.09375 -124.484375 116.515625 -124.484375 L 116.40625 -124.484375 C 111.796875 -124.375 107.203125 -123.8125 102.703125 -122.6875 C 99.796875 -122.015625 96.640625 -123.140625 94.84375 -125.609375 C 90.46875 -130.65625 84.1875 -133.578125 77.453125 -133.796875 C 52.75 -136.15625 13.25 -95.078125 4.828125 -58.03125 C -1.34375 -30.984375 9.3125 -10.78125 35.015625 -1.34375 C 40.078125 0.5625 45.46875 1.578125 50.84375 1.6875 C 76.21875 1.6875 92.15625 -21.21875 92.375 -21.546875 Z M 62.96875 -75.3125 C 61.96875 -75.3125 60.609375 -75.4375 60.171875 -76.21875 C 59.375 -77.5625 59.828125 -81.15625 62.515625 -86.09375 C 68.578125 -95.859375 76.890625 -104.0625 86.765625 -109.78125 C 87.890625 -110.453125 89.234375 -110.34375 90.359375 -109.5625 C 91.375 -108.765625 91.828125 -107.421875 91.484375 -106.1875 C 87.21875 -91.375 72.28125 -75.546875 62.96875 -75.3125 Z M 62.96875 -75.3125 "/></g></g></g><g fill="#000000" fill-opacity="1"><g transform="translate(152.117447, 255.400566)"><g><path d="M 97.328125 -31.546875 C 96.765625 -32.109375 95.96875 -32.328125 95.1875 -32.328125 C 94.40625 -32.328125 93.734375 -31.984375 93.171875 -31.4375 C 83.0625 -20.765625 60.390625 -5.15625 43.78125 -5.15625 L 43.546875 -5.15625 C 38.953125 -4.9375 34.578125 -6.734375 31.4375 -9.984375 C 27.390625 -14.375 30.1875 -26.265625 31.546875 -30.078125 C 32.109375 -31.546875 31.4375 -33.109375 30.078125 -33.671875 C 28.84375 -34.34375 27.171875 -34.015625 26.375 -32.78125 C 17.734375 -20.203125 5.390625 -7.96875 1.34375 -10.328125 C 0 -11.21875 2.015625 -19.875 7.515625 -29.640625 C 8.1875 -30.984375 7.75 -32.671875 6.390625 -33.453125 C 5.046875 -34.234375 3.25 -33.90625 2.46875 -32.546875 C -1.34375 -25.9375 -9.3125 -9.875 -1.6875 -5.28125 C 4.375 -1.6875 12.578125 -7.515625 19.421875 -14.59375 C 20.09375 -15.375 21.109375 -15.609375 22 -15.265625 C 22.90625 -15.046875 23.578125 -14.25 23.796875 -13.25 C 24.140625 -10.546875 25.25 -8.078125 27.046875 -5.953125 C 31.3125 -1.453125 37.265625 1.015625 43.4375 0.78125 L 43.78125 0.78125 C 62.296875 0.78125 86.328125 -15.609375 97.4375 -27.28125 C 98 -27.953125 98.21875 -28.625 98.21875 -29.40625 C 98.21875 -30.1875 97.875 -30.984375 97.328125 -31.546875 Z M 97.328125 -31.546875 "/></g></g></g><g fill="#000000" fill-opacity="1"><g transform="translate(244.946714, 255.400566)"><g><path d="M 77 -31.09375 C 76.4375 -31.65625 75.765625 -31.875 74.984375 -31.875 C 74.203125 -31.875 73.40625 -31.65625 72.84375 -31.09375 C 62.078125 -20.875 48.828125 -13.6875 34.34375 -10.21875 C 33.78125 -9.984375 33.109375 -10.21875 32.78125 -10.65625 C 32.4375 -11.21875 32.328125 -11.78125 32.671875 -12.34375 C 34.6875 -16.28125 34.234375 -20.984375 31.65625 -24.578125 C 30.078125 -26.71875 28.0625 -28.515625 25.703125 -29.859375 C 22.5625 -31.984375 19.078125 -34.453125 18.96875 -37.046875 C 19.078125 -38.5 19.640625 -39.84375 20.65625 -40.96875 L 26.71875 -46.703125 C 27.84375 -47.8125 27.953125 -49.609375 26.9375 -50.734375 C 25.9375 -51.96875 24.25 -52.203125 22.90625 -51.1875 C 20.546875 -49.390625 18.296875 -47.375 16.390625 -45.015625 L -0.890625 -28.84375 C -1.6875 -28.171875 -2.015625 -27.046875 -1.796875 -26.046875 C -1.578125 -24.921875 -0.78125 -24.140625 0.21875 -23.796875 C 1.234375 -23.578125 2.359375 -23.796875 3.140625 -24.578125 L 11.671875 -32.546875 C 12.125 -33 12.6875 -33.109375 13.25 -33.109375 C 13.8125 -33 14.25 -32.671875 14.484375 -32.21875 C 16.609375 -29.296875 19.3125 -26.828125 22.34375 -25.03125 C 24.015625 -24.015625 25.484375 -22.90625 26.71875 -21.4375 C 27.84375 -20.203125 28.40625 -18.515625 28.0625 -16.84375 C 27.71875 -15.15625 26.71875 -13.6875 25.25 -12.90625 C 18.078125 -8.875 8.984375 -10.78125 4.046875 -17.40625 C 3.25 -18.640625 1.453125 -19.078125 0.109375 -18.1875 C -1.234375 -17.40625 -1.6875 -15.71875 -0.890625 -14.25 C 2.8125 -7.859375 9.421875 -3.703125 16.84375 -3.140625 C 18.75 -2.8125 20.546875 -2.6875 22.453125 -2.6875 C 41.421875 -2.6875 64.765625 -14.59375 77 -26.9375 C 78.125 -28.0625 78.125 -29.96875 77 -31.09375 Z M 77 -31.09375 "/></g></g></g><g fill="#000000" fill-opacity="1"><g transform="translate(317.459056, 255.400566)"><g><path d="M 77 -30.53125 C 75.875 -31.65625 73.96875 -31.65625 72.84375 -30.421875 C 72.625 -30.1875 42.203125 0.453125 22 -7.1875 C 13.015625 -10.65625 9.203125 -21.109375 7.75 -31.4375 C 9.765625 -36.375 13.140625 -44.5625 16.28125 -53.765625 C 16.609375 -54.890625 16.953125 -55 18.296875 -55.109375 C 33.453125 -56.234375 48.484375 -56.796875 57.359375 -56.796875 C 59.046875 -56.796875 60.28125 -58.140625 60.28125 -59.71875 C 60.28125 -61.40625 59.046875 -62.640625 57.359375 -62.640625 C 48.828125 -62.640625 34.796875 -61.96875 20.421875 -61.171875 C 19.875 -61.0625 18.859375 -61.40625 19.640625 -63.421875 C 25.03125 -78.796875 28.84375 -94.40625 26.484375 -99.109375 C 24.140625 -103.828125 20.984375 -103.9375 19.421875 -103.609375 C 11.109375 -102.03125 5.046875 -80.484375 2.359375 -62.859375 C 2.125 -61.28125 1.34375 -59.9375 -0.109375 -59.828125 C -17.734375 -58.484375 -32.21875 -57.46875 -32.4375 -57.46875 C -34.125 -57.359375 -35.359375 -56.015625 -35.25 -54.328125 C -35.25 -52.75 -33.90625 -51.40625 -32.21875 -51.515625 L -31.984375 -51.515625 C -31.65625 -51.515625 -18.078125 -52.53125 -1.125 -53.765625 C -0.5625 -53.875 0 -53.765625 0.453125 -53.3125 C 0.890625 -52.984375 1.234375 -52.421875 1.234375 -51.859375 C -0.453125 -25.140625 6.28125 -6.84375 19.875 -1.6875 C 22.78125 -0.671875 25.8125 -0.109375 28.953125 -0.109375 C 51.1875 -0.109375 75.875 -25.140625 77.109375 -26.265625 C 77.671875 -26.828125 77.90625 -27.609375 77.90625 -28.40625 C 77.90625 -29.1875 77.5625 -29.96875 77 -30.53125 Z M 8.3125 -63.078125 C 10.890625 -80.140625 16.046875 -93.609375 19.078125 -97.09375 C 19.421875 -97.328125 19.875 -97.4375 20.3125 -97.328125 C 20.65625 -97.203125 20.984375 -96.984375 21.21875 -96.53125 C 22.5625 -93.609375 18.75 -79.359375 13.015625 -62.40625 C 12.796875 -61.40625 12.015625 -60.609375 10.890625 -60.5 C 10.328125 -60.390625 9.765625 -60.390625 9.09375 -60.390625 C 7.96875 -60.390625 8.1875 -62.1875 8.3125 -62.96875 Z M 6.953125 -45.46875 C 5.84375 -45.46875 6.28125 -53.3125 7.296875 -54.4375 C 8.1875 -55 9.3125 -55.109375 10.21875 -54.546875 C 11.21875 -53.65625 8.1875 -45.46875 6.953125 -45.46875 Z M 6.953125 -45.46875 "/></g></g></g><g fill="#000000" fill-opacity="1"><g transform="translate(389.185647, 255.400566)"><g><path d="M 81.828125 -31.875 C 81.265625 -32.4375 80.59375 -32.671875 79.8125 -32.671875 C 79.03125 -32.671875 78.234375 -32.4375 77.671875 -31.875 C 64.203125 -18.40625 45.125 -12.234375 26.375 -15.375 C 24.921875 -15.71875 23.90625 -17.0625 24.140625 -18.515625 C 25.03125 -23.90625 24.578125 -29.40625 21.4375 -31.203125 C 19.421875 -32.328125 16.390625 -32.4375 12.796875 -26.375 C 11.453125 -24.359375 11 -21.890625 11.453125 -19.53125 C 12.015625 -17.171875 13.46875 -15.046875 15.484375 -13.8125 C 16.71875 -12.796875 15.265625 -11.109375 14.484375 -10.328125 C 12.34375 -7.75 8.640625 -7.296875 6.0625 -9.3125 C 2.8125 -10.78125 1.34375 -14.375 2.578125 -17.625 C 4.046875 -23.578125 9.875 -28.734375 12.015625 -28.734375 C 13.578125 -28.734375 14.921875 -30.078125 14.921875 -31.65625 C 15.046875 -33.21875 13.6875 -34.578125 12.125 -34.6875 L 12.015625 -34.6875 C 6.390625 -34.6875 -1.125 -27.046875 -3.140625 -19.078125 C -5.046875 -13.25 -2.359375 -6.84375 3.25 -4.15625 C 5.390625 -2.921875 7.75 -2.359375 10.21875 -2.25 C 15.046875 -2.46875 19.3125 -5.390625 21.328125 -9.875 C 21.546875 -10.21875 22.109375 -10.4375 22.5625 -10.328125 C 36.8125 -6.0625 62.859375 -8.75 81.828125 -27.609375 C 82.390625 -28.171875 82.734375 -28.953125 82.734375 -29.75 C 82.734375 -30.53125 82.390625 -31.3125 81.828125 -31.875 Z M 18.296875 -19.078125 C 17.0625 -20.203125 16.84375 -22 17.84375 -23.34375 C 18.1875 -23.90625 18.40625 -24.25 18.640625 -24.578125 C 18.75 -22.78125 18.640625 -20.875 18.296875 -19.078125 Z M 18.296875 -19.078125 "/></g></g></g><g fill="#000000" fill-opacity="1"><g transform="translate(466.749151, 255.400566)"><g><path d="M 123.140625 -28.515625 C 121.90625 -29.515625 120 -29.296875 118.984375 -28.0625 C 118.765625 -27.71875 93.734375 2.8125 70.71875 -10.546875 C 67.6875 -12.6875 65.328125 -15.609375 64.09375 -18.96875 C 61.96875 -23.234375 59.375 -28.40625 52.203125 -27.28125 C 48.484375 -26.71875 42.765625 -22 37.9375 -16.609375 C 37.71875 -16.28125 37.265625 -16.15625 36.9375 -16.28125 C 36.59375 -16.390625 36.25 -16.609375 36.25 -17.0625 C 35.359375 -22.109375 31.984375 -26.375 27.28125 -28.40625 C 23.453125 -29.40625 17.28125 -30.53125 4.375 -17.734375 C 3.703125 -17.171875 2.8125 -17.40625 2.921875 -18.296875 C 2.921875 -18.75 5.15625 -27.84375 5.15625 -27.84375 C 5.5 -29.40625 4.484375 -30.984375 2.921875 -31.4375 C 1.34375 -31.765625 -0.21875 -30.75 -0.671875 -29.1875 L -6.0625 -5.5 C -6.390625 -4.15625 -5.71875 -2.8125 -4.484375 -2.125 C -3.140625 -1.578125 -1.6875 -1.90625 -0.890625 -3.03125 C 14.140625 -21.890625 21.546875 -23.6875 24.578125 -23.234375 C 27.609375 -22.671875 31.65625 -16.609375 31.203125 -6.84375 C 31.203125 -5.5 31.984375 -4.265625 33.34375 -3.921875 C 34.6875 -3.484375 36.03125 -4.046875 36.703125 -5.15625 C 41.3125 -13.015625 50.28125 -20.984375 53.09375 -21.4375 C 55.78125 -21.890625 56.578125 -20.875 58.8125 -16.390625 C 60.5 -11.90625 63.640625 -8.078125 67.6875 -5.5 C 72.40625 -2.6875 77.796875 -1.125 83.296875 -1.125 C 104.734375 -1.125 122.6875 -23.125 123.59375 -24.359375 C 124.59375 -25.59375 124.375 -27.5 123.140625 -28.515625 Z M 123.140625 -28.515625 "/></g></g></g><g fill="#000000" fill-opacity="1"><g transform="translate(584.946504, 255.400566)"><g/></g></g><g fill="#000000" fill-opacity="1"><g transform="translate(626.702861, 255.400566)"><g><path d="M 92.375 -21.546875 C 93.28125 -22.90625 92.9375 -24.6875 91.59375 -25.703125 C 90.25 -26.609375 88.34375 -26.265625 87.4375 -24.921875 C 86.65625 -23.6875 67.125 4.265625 37.046875 -6.84375 C 8.1875 -17.515625 6.734375 -39.84375 10.546875 -56.796875 C 18.859375 -93.390625 56.6875 -129.765625 77 -127.96875 C 80.703125 -127.734375 84.40625 -126.625 87.5625 -124.59375 C 88.796875 -123.46875 89.578125 -121.90625 89.34375 -120.328125 C 89.234375 -118.640625 88.234375 -117.1875 86.765625 -116.515625 C 74.765625 -110.125 64.546875 -100.578125 57.46875 -89.015625 C 53.65625 -82.28125 52.875 -76.890625 55.109375 -73.1875 C 56.90625 -70.609375 59.9375 -69.140625 63.203125 -69.484375 C 78.015625 -69.8125 97.203125 -94.171875 98.5625 -112.8125 C 98.4375 -114.265625 99.34375 -115.625 100.6875 -116.0625 C 105.734375 -117.640625 111.125 -118.53125 116.515625 -118.53125 C 118.203125 -118.53125 119.4375 -119.890625 119.4375 -121.5625 C 119.4375 -123.140625 118.09375 -124.484375 116.515625 -124.484375 L 116.40625 -124.484375 C 111.796875 -124.375 107.203125 -123.8125 102.703125 -122.6875 C 99.796875 -122.015625 96.640625 -123.140625 94.84375 -125.609375 C 90.46875 -130.65625 84.1875 -133.578125 77.453125 -133.796875 C 52.75 -136.15625 13.25 -95.078125 4.828125 -58.03125 C -1.34375 -30.984375 9.3125 -10.78125 35.015625 -1.34375 C 40.078125 0.5625 45.46875 1.578125 50.84375 1.6875 C 76.21875 1.6875 92.15625 -21.21875 92.375 -21.546875 Z M 62.96875 -75.3125 C 61.96875 -75.3125 60.609375 -75.4375 60.171875 -76.21875 C 59.375 -77.5625 59.828125 -81.15625 62.515625 -86.09375 C 68.578125 -95.859375 76.890625 -104.0625 86.765625 -109.78125 C 87.890625 -110.453125 89.234375 -110.34375 90.359375 -109.5625 C 91.375 -108.765625 91.828125 -107.421875 91.484375 -106.1875 C 87.21875 -91.375 72.28125 -75.546875 62.96875 -75.3125 Z M 62.96875 -75.3125 "/></g></g></g><g fill="#000000" fill-opacity="1"><g transform="translate(726.154776, 255.400566)"><g><path d="M 93.84375 -27.171875 C 92.71875 -28.40625 90.8125 -28.515625 89.578125 -27.390625 C 89.234375 -27.046875 55.90625 2.921875 35.25 -10.65625 C 27.046875 -16.046875 25.03125 -29.078125 25.03125 -29.1875 C 24.921875 -30.53125 23.90625 -31.546875 22.5625 -31.765625 C 21.328125 -31.875 19.984375 -31.203125 19.421875 -30.078125 C 14.140625 -18.40625 4.828125 -3.59375 2.25 -5.28125 C 2.015625 -5.28125 1.578125 -5.71875 1.234375 -6.515625 C -0.109375 -10.21875 0.34375 -14.25 2.25 -17.734375 C 6.515625 -26.484375 14.375 -32.78125 23.796875 -35.140625 C 24.8125 -35.359375 25.59375 -36.140625 25.9375 -37.15625 C 26.265625 -38.171875 25.9375 -39.28125 25.25 -40.078125 C 24.46875 -40.75 23.453125 -41.078125 22.453125 -40.859375 C 11.21875 -38.171875 1.90625 -30.53125 -3.140625 -20.203125 C -5.84375 -15.15625 -6.171875 -9.09375 -4.046875 -3.8125 C -3.03125 -1.234375 -0.5625 0.5625 2.25 0.5625 L 2.359375 0.5625 C 7.859375 0.453125 14.703125 -6.390625 19.421875 -13.8125 C 19.984375 -14.703125 20.984375 -15.15625 22 -15.046875 C 23.015625 -15.046875 23.90625 -14.484375 24.359375 -13.578125 C 26.265625 -10.4375 28.84375 -7.75 31.984375 -5.84375 C 56.46875 10.4375 92.046875 -21.671875 93.609375 -23.015625 C 94.171875 -23.578125 94.515625 -24.359375 94.515625 -25.03125 C 94.625 -25.8125 94.296875 -26.609375 93.84375 -27.171875 Z M 93.84375 -27.171875 "/></g></g></g><g fill="#000000" fill-opacity="1"><g transform="translate(816.851355, 255.400566)"><g><path d="M 92.71875 -26.609375 C 91.59375 -27.71875 89.6875 -27.84375 88.453125 -26.71875 C 69.9375 -8.75 32.78125 -5.15625 20.546875 -10.21875 C 18.75 -11 17.625 -11.90625 17.515625 -12.578125 C 17.515625 -14.140625 20.65625 -18.296875 32.78125 -24.015625 C 35.359375 -24.6875 38.171875 -25.59375 38.28125 -28.171875 C 38.171875 -29.515625 37.375 -30.875 36.03125 -31.3125 C 32.328125 -32.546875 19.078125 -28.84375 5.609375 -15.265625 C 5.15625 -14.8125 4.375 -14.703125 3.8125 -14.921875 C 3.140625 -15.265625 2.8125 -15.9375 2.921875 -16.609375 C 3.25 -19.1875 3.484375 -21.671875 3.8125 -24.140625 C 3.8125 -24.25 3.921875 -24.25 3.921875 -24.359375 C 12.34375 -37.828125 39.0625 -82.84375 31.4375 -93.390625 C 29.296875 -95.96875 25.8125 -96.984375 22.671875 -95.75 C 5.84375 -91.59375 -0.671875 -43.78125 -4.375 -2.46875 C -4.484375 -1.125 -3.703125 0.109375 -2.46875 0.5625 C -1.234375 1.015625 0.109375 0.5625 0.890625 -0.5625 C 3.8125 -4.71875 7.078125 -8.640625 10.78125 -12.125 C 11.21875 -12.6875 11.671875 -12.578125 11.671875 -12.453125 C 11.671875 -10.109375 12.90625 -6.953125 18.296875 -4.71875 C 32.109375 0.890625 72.0625 -2.578125 92.609375 -22.453125 C 93.171875 -23.015625 93.5 -23.6875 93.5 -24.46875 C 93.5 -25.25 93.171875 -26.046875 92.71875 -26.609375 Z M 24.140625 -90.03125 C 24.578125 -90.140625 25.140625 -90.25 25.703125 -90.25 C 26.15625 -90.25 26.484375 -90.140625 26.609375 -89.90625 C 28.953125 -86.765625 23.015625 -69.703125 9.65625 -45.578125 C 9.3125 -45.015625 8.53125 -44.78125 7.96875 -45.015625 C 7.296875 -45.234375 6.84375 -45.90625 6.953125 -46.578125 C 12.578125 -79.359375 19.078125 -88.796875 24.140625 -90.03125 Z M 24.140625 -90.03125 "/></g></g></g><g fill="#000000" fill-opacity="1"><g transform="translate(905.302917, 255.400566)"><g><path d="M 94.171875 -28.84375 C 93.609375 -29.40625 92.9375 -29.859375 92.15625 -29.859375 C 91.375 -29.96875 90.578125 -29.75 90.03125 -29.296875 C 89.578125 -28.953125 46.359375 5.390625 10.328125 -9.421875 C 3.03125 -12.453125 2.6875 -16.390625 2.921875 -18.515625 C 2.921875 -18.859375 3.03125 -19.1875 3.375 -19.421875 C 3.59375 -19.640625 4.046875 -19.640625 4.375 -19.53125 C 11.671875 -19.078125 18.96875 -20.984375 25.25 -24.921875 C 30.640625 -28.40625 31.546875 -32.21875 31.203125 -34.6875 C 30.984375 -38.71875 27.71875 -41.984375 23.578125 -42.09375 C 14.703125 -42.546875 -0.109375 -31.984375 -2.578125 -20.765625 C -3.59375 -16.609375 -3.484375 -8.75 8.078125 -4.046875 C 15.15625 -1.125 22.5625 0.21875 30.078125 0.21875 C 62.296875 0.21875 92.15625 -23.453125 93.734375 -24.6875 C 94.296875 -25.140625 94.734375 -25.9375 94.734375 -26.609375 C 94.84375 -27.390625 94.625 -28.171875 94.171875 -28.84375 Z M 6.953125 -26.375 C 11.34375 -32.4375 18.640625 -36.484375 23.234375 -36.140625 C 24.46875 -36.140625 25.140625 -35.703125 25.375 -34.015625 C 25.484375 -32.890625 24.25 -31.3125 22 -29.859375 C 17.40625 -26.828125 3.59375 -21.890625 6.953125 -26.375 Z M 6.953125 -26.375 "/></g></g></g><g fill="#000000" fill-opacity="1"><g transform="translate(995.213762, 255.400566)"><g><path d="M 77 -31.09375 C 76.4375 -31.65625 75.765625 -31.875 74.984375 -31.875 C 74.203125 -31.875 73.40625 -31.65625 72.84375 -31.09375 C 62.078125 -20.875 48.828125 -13.6875 34.34375 -10.21875 C 33.78125 -9.984375 33.109375 -10.21875 32.78125 -10.65625 C 32.4375 -11.21875 32.328125 -11.78125 32.671875 -12.34375 C 34.6875 -16.28125 34.234375 -20.984375 31.65625 -24.578125 C 30.078125 -26.71875 28.0625 -28.515625 25.703125 -29.859375 C 22.5625 -31.984375 19.078125 -34.453125 18.96875 -37.046875 C 19.078125 -38.5 19.640625 -39.84375 20.65625 -40.96875 L 26.71875 -46.703125 C 27.84375 -47.8125 27.953125 -49.609375 26.9375 -50.734375 C 25.9375 -51.96875 24.25 -52.203125 22.90625 -51.1875 C 20.546875 -49.390625 18.296875 -47.375 16.390625 -45.015625 L -0.890625 -28.84375 C -1.6875 -28.171875 -2.015625 -27.046875 -1.796875 -26.046875 C -1.578125 -24.921875 -0.78125 -24.140625 0.21875 -23.796875 C 1.234375 -23.578125 2.359375 -23.796875 3.140625 -24.578125 L 11.671875 -32.546875 C 12.125 -33 12.6875 -33.109375 13.25 -33.109375 C 13.8125 -33 14.25 -32.671875 14.484375 -32.21875 C 16.609375 -29.296875 19.3125 -26.828125 22.34375 -25.03125 C 24.015625 -24.015625 25.484375 -22.90625 26.71875 -21.4375 C 27.84375 -20.203125 28.40625 -18.515625 28.0625 -16.84375 C 27.71875 -15.15625 26.71875 -13.6875 25.25 -12.90625 C 18.078125 -8.875 8.984375 -10.78125 4.046875 -17.40625 C 3.25 -18.640625 1.453125 -19.078125 0.109375 -18.1875 C -1.234375 -17.40625 -1.6875 -15.71875 -0.890625 -14.25 C 2.8125 -7.859375 9.421875 -3.703125 16.84375 -3.140625 C 18.75 -2.8125 20.546875 -2.6875 22.453125 -2.6875 C 41.421875 -2.6875 64.765625 -14.59375 77 -26.9375 C 78.125 -28.0625 78.125 -29.96875 77 -31.09375 Z M 77 -31.09375 "/></g></g></g><g fill="#000000" fill-opacity="1"><g transform="translate(1107.277452, 252.76282)"><g><path d="M 17.359375 -19.859375 C 21.46875 -20.9375 26.109375 -23.4375 26.109375 -29.3125 C 26.109375 -36.875 16.828125 -37.28125 14.15625 -37.28125 L 2.859375 -37.28125 L 2.859375 0.0625 L 13.078125 0.0625 C 14.6875 0.0625 27.421875 -0.171875 27.421875 -10.28125 C 27.421875 -16.765625 22.484375 -19.203125 17.359375 -19.859375 Z M 11.890625 -36.328125 C 17.609375 -36.328125 21.59375 -34.484375 21.59375 -28.65625 C 21.59375 -22.84375 17.3125 -20.046875 10.34375 -20.046875 L 7.078125 -20.046875 L 7.078125 -36.328125 Z M 10.34375 -0.890625 L 7.078125 -0.890625 L 7.078125 -19.09375 L 11.890625 -19.09375 C 20.9375 -19.09375 22.890625 -14.390625 22.890625 -9.640625 C 22.890625 -2.609375 17.1875 -0.890625 10.34375 -0.890625 Z M 10.34375 -0.890625 "/></g></g></g><g fill="#000000" fill-opacity="1"><g transform="translate(1143.014959, 252.76282)"><g><path d="M 28.96875 -37.28125 L 17.65625 -18.3125 L 6.78125 -37.28125 L 1.90625 -37.28125 L 13.921875 -16.234375 L 13.921875 0.0625 L 18.203125 0.0625 L 18.203125 -17.359375 L 30.15625 -37.28125 Z M 28.96875 -37.28125 "/></g></g></g><g fill="#000000" fill-opacity="1"><g transform="translate(1181.071543, 252.76282)"><g/></g></g><g fill="#000000" fill-opacity="1"><g transform="translate(1201.883729, 252.76282)"><g><path d="M 7.078125 -0.890625 L 7.078125 -37.28125 L 2.859375 -37.28125 L 2.859375 0.0625 L 21.9375 0.0625 L 21.9375 -0.890625 Z M 7.078125 -0.890625 "/></g></g></g><g fill="#000000" fill-opacity="1"><g transform="translate(1232.091137, 252.76282)"><g><path d="M 22.84375 -38 C 12.125 -38 2.375 -32.296875 2.375 -18.5 C 2.375 -2.609375 15.34375 1.125 22.84375 1.125 C 30.265625 1.125 43.296875 -2.609375 43.296875 -18.5 C 43.296875 -32.296875 33.484375 -38 22.84375 -38 Z M 22.84375 0.125 C 16.109375 0.125 6.71875 -2.859375 6.71875 -18.5 C 6.71875 -33.890625 17.0625 -37.046875 22.84375 -37.046875 C 28.609375 -37.046875 38.953125 -33.890625 38.953125 -18.5 C 38.953125 -2.859375 29.5 0.125 22.84375 0.125 Z M 22.84375 0.125 "/></g></g></g><g fill="#000000" fill-opacity="1"><g transform="translate(1284.062152, 252.76282)"><g><path d="M 29.015625 0.0625 L 15.046875 -17.546875 C 19.453125 -18.140625 26.109375 -20.28125 26.109375 -27.953125 C 26.109375 -36.15625 17.1875 -37.28125 14.15625 -37.28125 C 11.234375 -37.28125 2.859375 -37.28125 2.859375 -37.28125 L 2.859375 0.0625 L 7.078125 0.0625 L 7.078125 -17.3125 L 9.8125 -17.3125 L 23.609375 0.0625 Z M 7.078125 -36.328125 L 11.890625 -36.328125 C 17.953125 -36.328125 21.59375 -33.84375 21.59375 -27.296875 C 21.59375 -20.640625 17.3125 -18.25 10.34375 -18.25 L 7.078125 -18.25 Z M 7.078125 -36.328125 "/></g></g></g><g fill="#000000" fill-opacity="1"><g transform="translate(1321.04839, 252.76282)"><g><path d="M 3.453125 0.0625 L 7.671875 0.0625 L 7.671875 -37.28125 L 3.453125 -37.28125 Z M 3.453125 0.0625 "/></g></g></g></svg>