<svg xmlns="http://www.w3.org/2000/svg" version="1.1" xmlns:xlink="http://www.w3.org/1999/xlink" width="512" height="512" x="0" y="0" viewBox="0 0 232.79 232.79" style="enable-background:new 0 0 512 512" xml:space="preserve"><g><path d="M99.684 163.791c-7.471 23.971-15.721 48.676-32.176 67.835-1.237 1.421-2.842 1.421-4.125.642-2.292-.092-4.538-1.604-4.675-4.492-1.421-33.688 1.192-69.852 11.734-102.761 2.017-6.371 4.308-12.604 6.967-18.655-6.188-14.575-5.042-32.038 8.754-42.535 11.321-8.571 26.355-7.288 30.938 7.288 5.454 17.325-.412 40.243-6.921 60.456 2.842 1.604 5.179 3.804 8.342 5.409 8.25 4.309 17.234 4.263 25.576.596 2.75-1.192 5.088-2.75 7.104-4.492 4.583-5.363 8.067-11.321 10.542-17.601 1.1-3.3 2.063-6.738 3.025-10.175 5.546-26.997-7.059-56.514-38.364-66.048-22.688-6.875-49.593-3.025-63.068 18.426-9.259 14.713-8.892 30.847-6.463 46.98 2.704 6.05 5.913 13.384 4.217 19.113a9.388 9.388 0 0 1-1.604 3.162c-4.263 5.546-12.604 5.042-17.738 1.192-2.154-1.65-3.85-3.85-5.225-6.325-22.276-21.771-4.583-70.86 12.192-90.523C76.767-1.673 125.947-9.052 163.669 11.345c37.768 20.396 53.122 73.381 36.255 112.478-15.354 35.613-64.672 58.485-100.24 39.968z" style="" fill="#ffffff" data-original="#ff1d25" opacity="1"></path></g></svg>